G04 #@! TF.GenerationSoftware,KiCad,Pcbnew,(5.1.4)-1*
G04 #@! TF.CreationDate,2020-06-27T20:58:05-05:00*
G04 #@! TF.ProjectId,NiteLite,4e697465-4c69-4746-952e-6b696361645f,rev?*
G04 #@! TF.SameCoordinates,Original*
G04 #@! TF.FileFunction,Legend,Bot*
G04 #@! TF.FilePolarity,Positive*
%FSLAX46Y46*%
G04 Gerber Fmt 4.6, Leading zero omitted, Abs format (unit mm)*
G04 Created by KiCad (PCBNEW (5.1.4)-1) date 2020-06-27 20:58:05*
%MOMM*%
%LPD*%
G04 APERTURE LIST*
%ADD10C,0.150000*%
G04 APERTURE END LIST*
D10*
X86431000Y-107155857D02*
X86395285Y-107084428D01*
X86395285Y-106977285D01*
X86431000Y-106870142D01*
X86502428Y-106798714D01*
X86573857Y-106763000D01*
X86716714Y-106727285D01*
X86823857Y-106727285D01*
X86966714Y-106763000D01*
X87038142Y-106798714D01*
X87109571Y-106870142D01*
X87145285Y-106977285D01*
X87145285Y-107048714D01*
X87109571Y-107155857D01*
X87073857Y-107191571D01*
X86823857Y-107191571D01*
X86823857Y-107048714D01*
X87145285Y-107513000D02*
X86395285Y-107513000D01*
X86395285Y-107798714D01*
X86431000Y-107870142D01*
X86466714Y-107905857D01*
X86538142Y-107941571D01*
X86645285Y-107941571D01*
X86716714Y-107905857D01*
X86752428Y-107870142D01*
X86788142Y-107798714D01*
X86788142Y-107513000D01*
X87145285Y-108263000D02*
X86395285Y-108263000D01*
X86395285Y-108763000D02*
X86395285Y-108905857D01*
X86431000Y-108977285D01*
X86502428Y-109048714D01*
X86645285Y-109084428D01*
X86895285Y-109084428D01*
X87038142Y-109048714D01*
X87109571Y-108977285D01*
X87145285Y-108905857D01*
X87145285Y-108763000D01*
X87109571Y-108691571D01*
X87038142Y-108620142D01*
X86895285Y-108584428D01*
X86645285Y-108584428D01*
X86502428Y-108620142D01*
X86431000Y-108691571D01*
X86395285Y-108763000D01*
X87145285Y-109798714D02*
X87145285Y-109370142D01*
X87145285Y-109584428D02*
X86395285Y-109584428D01*
X86502428Y-109513000D01*
X86573857Y-109441571D01*
X86609571Y-109370142D01*
X92273000Y-107155857D02*
X92237285Y-107084428D01*
X92237285Y-106977285D01*
X92273000Y-106870142D01*
X92344428Y-106798714D01*
X92415857Y-106763000D01*
X92558714Y-106727285D01*
X92665857Y-106727285D01*
X92808714Y-106763000D01*
X92880142Y-106798714D01*
X92951571Y-106870142D01*
X92987285Y-106977285D01*
X92987285Y-107048714D01*
X92951571Y-107155857D01*
X92915857Y-107191571D01*
X92665857Y-107191571D01*
X92665857Y-107048714D01*
X92987285Y-107513000D02*
X92237285Y-107513000D01*
X92237285Y-107798714D01*
X92273000Y-107870142D01*
X92308714Y-107905857D01*
X92380142Y-107941571D01*
X92487285Y-107941571D01*
X92558714Y-107905857D01*
X92594428Y-107870142D01*
X92630142Y-107798714D01*
X92630142Y-107513000D01*
X92987285Y-108263000D02*
X92237285Y-108263000D01*
X92237285Y-108763000D02*
X92237285Y-108905857D01*
X92273000Y-108977285D01*
X92344428Y-109048714D01*
X92487285Y-109084428D01*
X92737285Y-109084428D01*
X92880142Y-109048714D01*
X92951571Y-108977285D01*
X92987285Y-108905857D01*
X92987285Y-108763000D01*
X92951571Y-108691571D01*
X92880142Y-108620142D01*
X92737285Y-108584428D01*
X92487285Y-108584428D01*
X92344428Y-108620142D01*
X92273000Y-108691571D01*
X92237285Y-108763000D01*
X92308714Y-109370142D02*
X92273000Y-109405857D01*
X92237285Y-109477285D01*
X92237285Y-109655857D01*
X92273000Y-109727285D01*
X92308714Y-109763000D01*
X92380142Y-109798714D01*
X92451571Y-109798714D01*
X92558714Y-109763000D01*
X92987285Y-109334428D01*
X92987285Y-109798714D01*
X92951571Y-111307142D02*
X92987285Y-111414285D01*
X92987285Y-111592857D01*
X92951571Y-111664285D01*
X92915857Y-111700000D01*
X92844428Y-111735714D01*
X92773000Y-111735714D01*
X92701571Y-111700000D01*
X92665857Y-111664285D01*
X92630142Y-111592857D01*
X92594428Y-111450000D01*
X92558714Y-111378571D01*
X92523000Y-111342857D01*
X92451571Y-111307142D01*
X92380142Y-111307142D01*
X92308714Y-111342857D01*
X92273000Y-111378571D01*
X92237285Y-111450000D01*
X92237285Y-111628571D01*
X92273000Y-111735714D01*
X92915857Y-112485714D02*
X92951571Y-112450000D01*
X92987285Y-112342857D01*
X92987285Y-112271428D01*
X92951571Y-112164285D01*
X92880142Y-112092857D01*
X92808714Y-112057142D01*
X92665857Y-112021428D01*
X92558714Y-112021428D01*
X92415857Y-112057142D01*
X92344428Y-112092857D01*
X92273000Y-112164285D01*
X92237285Y-112271428D01*
X92237285Y-112342857D01*
X92273000Y-112450000D01*
X92308714Y-112485714D01*
X92987285Y-113164285D02*
X92987285Y-112807142D01*
X92237285Y-112807142D01*
X87109571Y-111289285D02*
X87145285Y-111396428D01*
X87145285Y-111575000D01*
X87109571Y-111646428D01*
X87073857Y-111682142D01*
X87002428Y-111717857D01*
X86931000Y-111717857D01*
X86859571Y-111682142D01*
X86823857Y-111646428D01*
X86788142Y-111575000D01*
X86752428Y-111432142D01*
X86716714Y-111360714D01*
X86681000Y-111325000D01*
X86609571Y-111289285D01*
X86538142Y-111289285D01*
X86466714Y-111325000D01*
X86431000Y-111360714D01*
X86395285Y-111432142D01*
X86395285Y-111610714D01*
X86431000Y-111717857D01*
X87145285Y-112039285D02*
X86395285Y-112039285D01*
X86395285Y-112217857D01*
X86431000Y-112325000D01*
X86502428Y-112396428D01*
X86573857Y-112432142D01*
X86716714Y-112467857D01*
X86823857Y-112467857D01*
X86966714Y-112432142D01*
X87038142Y-112396428D01*
X87109571Y-112325000D01*
X87145285Y-112217857D01*
X87145285Y-112039285D01*
X86931000Y-112753571D02*
X86931000Y-113110714D01*
X87145285Y-112682142D02*
X86395285Y-112932142D01*
X87145285Y-113182142D01*
X92273000Y-114168571D02*
X92237285Y-114097142D01*
X92237285Y-113990000D01*
X92273000Y-113882857D01*
X92344428Y-113811428D01*
X92415857Y-113775714D01*
X92558714Y-113740000D01*
X92665857Y-113740000D01*
X92808714Y-113775714D01*
X92880142Y-113811428D01*
X92951571Y-113882857D01*
X92987285Y-113990000D01*
X92987285Y-114061428D01*
X92951571Y-114168571D01*
X92915857Y-114204285D01*
X92665857Y-114204285D01*
X92665857Y-114061428D01*
X92987285Y-114525714D02*
X92237285Y-114525714D01*
X92987285Y-114954285D01*
X92237285Y-114954285D01*
X92987285Y-115311428D02*
X92237285Y-115311428D01*
X92237285Y-115490000D01*
X92273000Y-115597142D01*
X92344428Y-115668571D01*
X92415857Y-115704285D01*
X92558714Y-115740000D01*
X92665857Y-115740000D01*
X92808714Y-115704285D01*
X92880142Y-115668571D01*
X92951571Y-115597142D01*
X92987285Y-115490000D01*
X92987285Y-115311428D01*
X86395285Y-113740000D02*
X87145285Y-113990000D01*
X86395285Y-114240000D01*
X87073857Y-114918571D02*
X87109571Y-114882857D01*
X87145285Y-114775714D01*
X87145285Y-114704285D01*
X87109571Y-114597142D01*
X87038142Y-114525714D01*
X86966714Y-114490000D01*
X86823857Y-114454285D01*
X86716714Y-114454285D01*
X86573857Y-114490000D01*
X86502428Y-114525714D01*
X86431000Y-114597142D01*
X86395285Y-114704285D01*
X86395285Y-114775714D01*
X86431000Y-114882857D01*
X86466714Y-114918571D01*
X87073857Y-115668571D02*
X87109571Y-115632857D01*
X87145285Y-115525714D01*
X87145285Y-115454285D01*
X87109571Y-115347142D01*
X87038142Y-115275714D01*
X86966714Y-115240000D01*
X86823857Y-115204285D01*
X86716714Y-115204285D01*
X86573857Y-115240000D01*
X86502428Y-115275714D01*
X86431000Y-115347142D01*
X86395285Y-115454285D01*
X86395285Y-115525714D01*
X86431000Y-115632857D01*
X86466714Y-115668571D01*
M02*
