M48
; DRILL file {KiCad (5.1.4)-1} date 8/24/2020 8:29:42 PM
; FORMAT={-:-/ absolute / inch / decimal}
; #@! TF.CreationDate,2020-08-24T20:29:42-05:00
; #@! TF.GenerationSoftware,Kicad,Pcbnew,(5.1.4)-1
; #@! TF.FileFunction,Plated,1,2,PTH
FMAT,2
INCH
T1C0.0157
T2C0.0217
T3C0.0335
T4C0.0354
T5C0.0400
%
G90
G05
T1
X4.4291Y-4.5669
X4.937Y-4.5669
X4.9449Y-5.0157
X5.0157Y-4.4173
X5.0472Y-4.1811
X5.2283Y-5.0157
X5.2829Y-4.1811
X5.3307Y-4.1496
X5.3367Y-4.3719
X5.3465Y-4.8504
X5.4291Y-4.5591
X5.5455Y-4.8404
X5.6586Y-4.554
X5.8976Y-4.189
X5.9685Y-4.5906
X6.0787Y-4.5394
X6.1024Y-4.748
T5
X3.4783Y-4.315
X3.4783Y-4.415
X3.4783Y-4.515
X3.5783Y-4.315
X3.5783Y-4.415
X3.5783Y-4.515
T2
G00X6.0443Y-4.9774
M15
G01X6.0443Y-5.003
M16
G05
G00X6.3494Y-4.9774
M15
G01X6.3494Y-5.003
M16
G05
T3
G00X6.0502Y-4.8297
M15
G01X6.0502Y-4.8514
M16
G05
G00X6.3435Y-4.8297
M15
G01X6.3435Y-4.8514
M16
G05
T4
G00X6.2469Y-4.1756
M15
G01X6.3098Y-4.1756
M16
G05
G00X6.2469Y-4.6244
M15
G01X6.3098Y-4.6244
M16
G05
T0
M30
