G04 #@! TF.GenerationSoftware,KiCad,Pcbnew,(5.1.4)-1*
G04 #@! TF.CreationDate,2020-08-24T20:29:47-05:00*
G04 #@! TF.ProjectId,NiteLite,4e697465-4c69-4746-952e-6b696361645f,rev?*
G04 #@! TF.SameCoordinates,Original*
G04 #@! TF.FileFunction,Soldermask,Bot*
G04 #@! TF.FilePolarity,Negative*
%FSLAX46Y46*%
G04 Gerber Fmt 4.6, Leading zero omitted, Abs format (unit mm)*
G04 Created by KiCad (PCBNEW (5.1.4)-1) date 2020-08-24 20:29:47*
%MOMM*%
%LPD*%
G04 APERTURE LIST*
%ADD10C,0.010000*%
%ADD11C,0.100000*%
G04 APERTURE END LIST*
D10*
G36*
X111795566Y-115444556D02*
G01*
X111759386Y-115501094D01*
X111742089Y-115627168D01*
X111737100Y-115848830D01*
X111737000Y-115907750D01*
X111737000Y-116384000D01*
X111415326Y-116384000D01*
X111201508Y-116371035D01*
X111024482Y-116338139D01*
X110968427Y-116316982D01*
X110797168Y-116277087D01*
X110651251Y-116326549D01*
X110563809Y-116441505D01*
X110567976Y-116598095D01*
X110570110Y-116603832D01*
X110660697Y-116702730D01*
X110798233Y-116746521D01*
X110920009Y-116717120D01*
X110930593Y-116707807D01*
X111028739Y-116669617D01*
X111208790Y-116644261D01*
X111365919Y-116638000D01*
X111731437Y-116638000D01*
X111750094Y-117098375D01*
X111763348Y-117337524D01*
X111784540Y-117476234D01*
X111822074Y-117541061D01*
X111884351Y-117558564D01*
X111895750Y-117558750D01*
X111969264Y-117542221D01*
X112011306Y-117473106D01*
X112033670Y-117322114D01*
X112041718Y-117196181D01*
X112060686Y-116833613D01*
X112571092Y-117212056D01*
X112837443Y-117404127D01*
X113024758Y-117523462D01*
X113151451Y-117578766D01*
X113235936Y-117578743D01*
X113282167Y-117548166D01*
X113303343Y-117467679D01*
X113318525Y-117296813D01*
X113322324Y-117153891D01*
X113007000Y-117153891D01*
X112737125Y-116957986D01*
X112545908Y-116817873D01*
X112370628Y-116687325D01*
X112309449Y-116640884D01*
X112209372Y-116550623D01*
X112181012Y-116496329D01*
X112182449Y-116494806D01*
X112244382Y-116447156D01*
X112380802Y-116343259D01*
X112564927Y-116203504D01*
X112610125Y-116169251D01*
X113007000Y-115868577D01*
X113007000Y-117153891D01*
X113322324Y-117153891D01*
X113324497Y-117072160D01*
X113324500Y-117066498D01*
X113324500Y-116627163D01*
X113721375Y-116659027D01*
X113958590Y-116679511D01*
X114164202Y-116699742D01*
X114268682Y-116712071D01*
X114425550Y-116683652D01*
X114490607Y-116622125D01*
X114524580Y-116478428D01*
X114459226Y-116360837D01*
X114321649Y-116307480D01*
X114268682Y-116309928D01*
X114125070Y-116326353D01*
X113908100Y-116347077D01*
X113721375Y-116362972D01*
X113324500Y-116394836D01*
X113324500Y-115952693D01*
X113316668Y-115676195D01*
X113283536Y-115504686D01*
X113210649Y-115433767D01*
X113083553Y-115459037D01*
X112887794Y-115576096D01*
X112651992Y-115747964D01*
X112434375Y-115908806D01*
X112253963Y-116036082D01*
X112134864Y-116113115D01*
X112102125Y-116128344D01*
X112072059Y-116073173D01*
X112055573Y-115933626D01*
X112054500Y-115881193D01*
X112038073Y-115630948D01*
X111983868Y-115487179D01*
X111884500Y-115433053D01*
X111857207Y-115431500D01*
X111795566Y-115444556D01*
X111795566Y-115444556D01*
G37*
X111795566Y-115444556D02*
X111759386Y-115501094D01*
X111742089Y-115627168D01*
X111737100Y-115848830D01*
X111737000Y-115907750D01*
X111737000Y-116384000D01*
X111415326Y-116384000D01*
X111201508Y-116371035D01*
X111024482Y-116338139D01*
X110968427Y-116316982D01*
X110797168Y-116277087D01*
X110651251Y-116326549D01*
X110563809Y-116441505D01*
X110567976Y-116598095D01*
X110570110Y-116603832D01*
X110660697Y-116702730D01*
X110798233Y-116746521D01*
X110920009Y-116717120D01*
X110930593Y-116707807D01*
X111028739Y-116669617D01*
X111208790Y-116644261D01*
X111365919Y-116638000D01*
X111731437Y-116638000D01*
X111750094Y-117098375D01*
X111763348Y-117337524D01*
X111784540Y-117476234D01*
X111822074Y-117541061D01*
X111884351Y-117558564D01*
X111895750Y-117558750D01*
X111969264Y-117542221D01*
X112011306Y-117473106D01*
X112033670Y-117322114D01*
X112041718Y-117196181D01*
X112060686Y-116833613D01*
X112571092Y-117212056D01*
X112837443Y-117404127D01*
X113024758Y-117523462D01*
X113151451Y-117578766D01*
X113235936Y-117578743D01*
X113282167Y-117548166D01*
X113303343Y-117467679D01*
X113318525Y-117296813D01*
X113322324Y-117153891D01*
X113007000Y-117153891D01*
X112737125Y-116957986D01*
X112545908Y-116817873D01*
X112370628Y-116687325D01*
X112309449Y-116640884D01*
X112209372Y-116550623D01*
X112181012Y-116496329D01*
X112182449Y-116494806D01*
X112244382Y-116447156D01*
X112380802Y-116343259D01*
X112564927Y-116203504D01*
X112610125Y-116169251D01*
X113007000Y-115868577D01*
X113007000Y-117153891D01*
X113322324Y-117153891D01*
X113324497Y-117072160D01*
X113324500Y-117066498D01*
X113324500Y-116627163D01*
X113721375Y-116659027D01*
X113958590Y-116679511D01*
X114164202Y-116699742D01*
X114268682Y-116712071D01*
X114425550Y-116683652D01*
X114490607Y-116622125D01*
X114524580Y-116478428D01*
X114459226Y-116360837D01*
X114321649Y-116307480D01*
X114268682Y-116309928D01*
X114125070Y-116326353D01*
X113908100Y-116347077D01*
X113721375Y-116362972D01*
X113324500Y-116394836D01*
X113324500Y-115952693D01*
X113316668Y-115676195D01*
X113283536Y-115504686D01*
X113210649Y-115433767D01*
X113083553Y-115459037D01*
X112887794Y-115576096D01*
X112651992Y-115747964D01*
X112434375Y-115908806D01*
X112253963Y-116036082D01*
X112134864Y-116113115D01*
X112102125Y-116128344D01*
X112072059Y-116073173D01*
X112055573Y-115933626D01*
X112054500Y-115881193D01*
X112038073Y-115630948D01*
X111983868Y-115487179D01*
X111884500Y-115433053D01*
X111857207Y-115431500D01*
X111795566Y-115444556D01*
G36*
X107308917Y-106738069D02*
G01*
X106772443Y-106758178D01*
X106294090Y-106796469D01*
X105839630Y-106856907D01*
X105374829Y-106943457D01*
X104865456Y-107060083D01*
X104656750Y-107112181D01*
X103567712Y-107445993D01*
X102545412Y-107879536D01*
X101580407Y-108418390D01*
X100663256Y-109068136D01*
X99784517Y-109834354D01*
X99397307Y-110220497D01*
X98845078Y-110835279D01*
X98383215Y-111447530D01*
X97982655Y-112097897D01*
X97780293Y-112481882D01*
X97520045Y-113082574D01*
X97318051Y-113717349D01*
X97175874Y-114366151D01*
X97095077Y-115008924D01*
X97077222Y-115625610D01*
X97123871Y-116196152D01*
X97236589Y-116700494D01*
X97416936Y-117118580D01*
X97418796Y-117121762D01*
X97522866Y-117270932D01*
X97694016Y-117485111D01*
X97910612Y-117738433D01*
X98151019Y-118005032D01*
X98214354Y-118072904D01*
X98438683Y-118315255D01*
X98627974Y-118526940D01*
X98766715Y-118690051D01*
X98839397Y-118786677D01*
X98846500Y-118802853D01*
X98854968Y-118839710D01*
X98892221Y-118849440D01*
X98976031Y-118825659D01*
X99124173Y-118761985D01*
X99354421Y-118652034D01*
X99592625Y-118534895D01*
X99903899Y-118374109D01*
X100108200Y-118250933D01*
X100217152Y-118157551D01*
X100243500Y-118097366D01*
X100229212Y-117985854D01*
X100191029Y-117786549D01*
X100135973Y-117534836D01*
X100109242Y-117420888D01*
X100012025Y-116803043D01*
X100022544Y-116193098D01*
X100143310Y-115574210D01*
X100376833Y-114929535D01*
X100528364Y-114608658D01*
X100850785Y-114084158D01*
X101241354Y-113638570D01*
X101685844Y-113277911D01*
X102170029Y-113008194D01*
X102679685Y-112835435D01*
X103200586Y-112765647D01*
X103718505Y-112804847D01*
X104219217Y-112959048D01*
X104319269Y-113005818D01*
X104609505Y-113167647D01*
X104868434Y-113356294D01*
X105128043Y-113598499D01*
X105420318Y-113921000D01*
X105436201Y-113939524D01*
X105707652Y-114256750D01*
X106708914Y-113240750D01*
X107767759Y-112105211D01*
X108801380Y-110877096D01*
X109781851Y-109590799D01*
X110446536Y-108637000D01*
X110658949Y-108313820D01*
X110858301Y-107999926D01*
X111032958Y-107714713D01*
X111171289Y-107477574D01*
X111261661Y-107307905D01*
X111292500Y-107226528D01*
X111254231Y-107196418D01*
X111133105Y-107155240D01*
X110919650Y-107100668D01*
X110604391Y-107030378D01*
X110177854Y-106942041D01*
X109937996Y-106893976D01*
X109611607Y-106832684D01*
X109323097Y-106788771D01*
X109038656Y-106759504D01*
X108724471Y-106742146D01*
X108346732Y-106733963D01*
X107937746Y-106732178D01*
X107308917Y-106738069D01*
X107308917Y-106738069D01*
G37*
X107308917Y-106738069D02*
X106772443Y-106758178D01*
X106294090Y-106796469D01*
X105839630Y-106856907D01*
X105374829Y-106943457D01*
X104865456Y-107060083D01*
X104656750Y-107112181D01*
X103567712Y-107445993D01*
X102545412Y-107879536D01*
X101580407Y-108418390D01*
X100663256Y-109068136D01*
X99784517Y-109834354D01*
X99397307Y-110220497D01*
X98845078Y-110835279D01*
X98383215Y-111447530D01*
X97982655Y-112097897D01*
X97780293Y-112481882D01*
X97520045Y-113082574D01*
X97318051Y-113717349D01*
X97175874Y-114366151D01*
X97095077Y-115008924D01*
X97077222Y-115625610D01*
X97123871Y-116196152D01*
X97236589Y-116700494D01*
X97416936Y-117118580D01*
X97418796Y-117121762D01*
X97522866Y-117270932D01*
X97694016Y-117485111D01*
X97910612Y-117738433D01*
X98151019Y-118005032D01*
X98214354Y-118072904D01*
X98438683Y-118315255D01*
X98627974Y-118526940D01*
X98766715Y-118690051D01*
X98839397Y-118786677D01*
X98846500Y-118802853D01*
X98854968Y-118839710D01*
X98892221Y-118849440D01*
X98976031Y-118825659D01*
X99124173Y-118761985D01*
X99354421Y-118652034D01*
X99592625Y-118534895D01*
X99903899Y-118374109D01*
X100108200Y-118250933D01*
X100217152Y-118157551D01*
X100243500Y-118097366D01*
X100229212Y-117985854D01*
X100191029Y-117786549D01*
X100135973Y-117534836D01*
X100109242Y-117420888D01*
X100012025Y-116803043D01*
X100022544Y-116193098D01*
X100143310Y-115574210D01*
X100376833Y-114929535D01*
X100528364Y-114608658D01*
X100850785Y-114084158D01*
X101241354Y-113638570D01*
X101685844Y-113277911D01*
X102170029Y-113008194D01*
X102679685Y-112835435D01*
X103200586Y-112765647D01*
X103718505Y-112804847D01*
X104219217Y-112959048D01*
X104319269Y-113005818D01*
X104609505Y-113167647D01*
X104868434Y-113356294D01*
X105128043Y-113598499D01*
X105420318Y-113921000D01*
X105436201Y-113939524D01*
X105707652Y-114256750D01*
X106708914Y-113240750D01*
X107767759Y-112105211D01*
X108801380Y-110877096D01*
X109781851Y-109590799D01*
X110446536Y-108637000D01*
X110658949Y-108313820D01*
X110858301Y-107999926D01*
X111032958Y-107714713D01*
X111171289Y-107477574D01*
X111261661Y-107307905D01*
X111292500Y-107226528D01*
X111254231Y-107196418D01*
X111133105Y-107155240D01*
X110919650Y-107100668D01*
X110604391Y-107030378D01*
X110177854Y-106942041D01*
X109937996Y-106893976D01*
X109611607Y-106832684D01*
X109323097Y-106788771D01*
X109038656Y-106759504D01*
X108724471Y-106742146D01*
X108346732Y-106733963D01*
X107937746Y-106732178D01*
X107308917Y-106738069D01*
G36*
X112734409Y-107863158D02*
G01*
X112626824Y-107996937D01*
X112534481Y-108144939D01*
X112266714Y-108595658D01*
X111929513Y-109120114D01*
X111538072Y-109697349D01*
X111107585Y-110306407D01*
X110653247Y-110926330D01*
X110190253Y-111536161D01*
X109733797Y-112114942D01*
X109299073Y-112641717D01*
X109139170Y-112828000D01*
X108820580Y-113187898D01*
X108469717Y-113573095D01*
X108102950Y-113966594D01*
X107736649Y-114351401D01*
X107387182Y-114710522D01*
X107070920Y-115026961D01*
X106804231Y-115283723D01*
X106603485Y-115463813D01*
X106588004Y-115476675D01*
X106167124Y-115822919D01*
X106129287Y-116373334D01*
X106027629Y-117108897D01*
X105831773Y-117783150D01*
X105547959Y-118387714D01*
X105182425Y-118914210D01*
X104741411Y-119354259D01*
X104231156Y-119699482D01*
X103657899Y-119941499D01*
X103425491Y-120004511D01*
X102972855Y-120059094D01*
X102499329Y-120028411D01*
X102042849Y-119919830D01*
X101641355Y-119740721D01*
X101470171Y-119624736D01*
X101319207Y-119533588D01*
X101186381Y-119495500D01*
X101186027Y-119495500D01*
X101062381Y-119523010D01*
X100878518Y-119595227D01*
X100663454Y-119696676D01*
X100446206Y-119811884D01*
X100255790Y-119925376D01*
X100121222Y-120021678D01*
X100071520Y-120085317D01*
X100072372Y-120089388D01*
X100115302Y-120175219D01*
X100206870Y-120343611D01*
X100332041Y-120567239D01*
X100428183Y-120736049D01*
X100646703Y-121138628D01*
X100821962Y-121517773D01*
X100958500Y-121894985D01*
X101060854Y-122291769D01*
X101133564Y-122729628D01*
X101181169Y-123230066D01*
X101208206Y-123814585D01*
X101219081Y-124483074D01*
X101223022Y-124963564D01*
X101231655Y-125335329D01*
X101250721Y-125616644D01*
X101285959Y-125825779D01*
X101343112Y-125981007D01*
X101427920Y-126100601D01*
X101546123Y-126202831D01*
X101703463Y-126305972D01*
X101812553Y-126371988D01*
X102011787Y-126487442D01*
X102252270Y-126620202D01*
X102509195Y-126757433D01*
X102757749Y-126886301D01*
X102973124Y-126993969D01*
X103130509Y-127067605D01*
X103205095Y-127094373D01*
X103207527Y-127093640D01*
X103214200Y-127028639D01*
X103223094Y-126859029D01*
X103233257Y-126607158D01*
X103243739Y-126295377D01*
X103248795Y-126124242D01*
X103271236Y-125629376D01*
X103310208Y-125245693D01*
X103370239Y-124957945D01*
X103455857Y-124750884D01*
X103571591Y-124609261D01*
X103721969Y-124517829D01*
X103726398Y-124515977D01*
X104009277Y-124461380D01*
X104285763Y-124518450D01*
X104531307Y-124673161D01*
X104721360Y-124911484D01*
X104812737Y-125136737D01*
X104838186Y-125301228D01*
X104857678Y-125572001D01*
X104870331Y-125928438D01*
X104875259Y-126349924D01*
X104874546Y-126579264D01*
X104872801Y-126951800D01*
X104873505Y-127277749D01*
X104876433Y-127537002D01*
X104881356Y-127709447D01*
X104888035Y-127774963D01*
X104972501Y-127804241D01*
X105153586Y-127848593D01*
X105402604Y-127902429D01*
X105690866Y-127960157D01*
X105989686Y-128016186D01*
X106270377Y-128064923D01*
X106504250Y-128100779D01*
X106641125Y-128116658D01*
X107038000Y-128148887D01*
X107038355Y-127203568D01*
X107043324Y-126742930D01*
X107060344Y-126389016D01*
X107093164Y-126121819D01*
X107145538Y-125921334D01*
X107221216Y-125767556D01*
X107323950Y-125640480D01*
X107333230Y-125631088D01*
X107477168Y-125519508D01*
X107647502Y-125471540D01*
X107800000Y-125464500D01*
X108031565Y-125489560D01*
X108214125Y-125572286D01*
X108352541Y-125724000D01*
X108451675Y-125956019D01*
X108516389Y-126279665D01*
X108551543Y-126706258D01*
X108562000Y-127238869D01*
X108562000Y-128131500D01*
X108831875Y-128127467D01*
X109003975Y-128112546D01*
X109262295Y-128075231D01*
X109569260Y-128021473D01*
X109832000Y-127969067D01*
X110126437Y-127905740D01*
X110378468Y-127849511D01*
X110560156Y-127806746D01*
X110641625Y-127784593D01*
X110673022Y-127737059D01*
X110695717Y-127613210D01*
X110710649Y-127400139D01*
X110718758Y-127084937D01*
X110721000Y-126694069D01*
X110727250Y-126121720D01*
X110747507Y-125661546D01*
X110784038Y-125299267D01*
X110839107Y-125020601D01*
X110914978Y-124811268D01*
X111013917Y-124656988D01*
X111050338Y-124617393D01*
X111174420Y-124507879D01*
X111291803Y-124459269D01*
X111456167Y-124455485D01*
X111561519Y-124464292D01*
X111789314Y-124502833D01*
X111947582Y-124581451D01*
X112062685Y-124690957D01*
X112178899Y-124845162D01*
X112263142Y-125023326D01*
X112319939Y-125247712D01*
X112353816Y-125540580D01*
X112369300Y-125924191D01*
X112371646Y-126210625D01*
X112375217Y-126520855D01*
X112384749Y-126779513D01*
X112398883Y-126963246D01*
X112416262Y-127048702D01*
X112420566Y-127052000D01*
X112520153Y-127020108D01*
X112702193Y-126933735D01*
X112942751Y-126806830D01*
X113217892Y-126653343D01*
X113503680Y-126487226D01*
X113776182Y-126322429D01*
X114011462Y-126172901D01*
X114185585Y-126052594D01*
X114274616Y-125975458D01*
X114278962Y-125968834D01*
X114298435Y-125870985D01*
X114315425Y-125668334D01*
X114328879Y-125383074D01*
X114337749Y-125037395D01*
X114340980Y-124659049D01*
X114344853Y-124117156D01*
X114358667Y-123673156D01*
X114386443Y-123298078D01*
X114432198Y-122962954D01*
X114499953Y-122638814D01*
X114593726Y-122296688D01*
X114717536Y-121907606D01*
X114726385Y-121881004D01*
X114854622Y-121516280D01*
X114986206Y-121193503D01*
X115133132Y-120894437D01*
X115202695Y-120777238D01*
X108868326Y-120777238D01*
X108862952Y-120967746D01*
X108859079Y-121008520D01*
X108773923Y-121361366D01*
X108608642Y-121660494D01*
X108382326Y-121892518D01*
X108114067Y-122044054D01*
X107822958Y-122101719D01*
X107528089Y-122052129D01*
X107431722Y-122009167D01*
X107147232Y-121803985D01*
X106908161Y-121525838D01*
X106737829Y-121210231D01*
X106659558Y-120892668D01*
X106657000Y-120829748D01*
X106679936Y-120690325D01*
X106742712Y-120459382D01*
X106836285Y-120162613D01*
X106951611Y-119825712D01*
X107079646Y-119474373D01*
X107211345Y-119134290D01*
X107337665Y-118831157D01*
X107434581Y-118620661D01*
X107566697Y-118479634D01*
X107751503Y-118430550D01*
X107911776Y-118471352D01*
X108021364Y-118578586D01*
X108156661Y-118786444D01*
X108307130Y-119073831D01*
X108462238Y-119419655D01*
X108611447Y-119802819D01*
X108689124Y-120027733D01*
X108787948Y-120344944D01*
X108845503Y-120582208D01*
X108868326Y-120777238D01*
X115202695Y-120777238D01*
X115307395Y-120600844D01*
X115520990Y-120294486D01*
X115785911Y-119957126D01*
X116114153Y-119570527D01*
X116517711Y-119116452D01*
X116616706Y-119006888D01*
X117103792Y-118459724D01*
X117502540Y-117990988D01*
X117818496Y-117593586D01*
X118057211Y-117260423D01*
X118224231Y-116984402D01*
X118270532Y-116892000D01*
X118343389Y-116720084D01*
X118392998Y-116551514D01*
X118394407Y-116542750D01*
X115507059Y-116542750D01*
X115470711Y-117221620D01*
X115353934Y-117815929D01*
X115150047Y-118344510D01*
X114852367Y-118826196D01*
X114583026Y-119147257D01*
X114133557Y-119549139D01*
X113646387Y-119835917D01*
X113130637Y-120004639D01*
X112595427Y-120052352D01*
X112049878Y-119976101D01*
X112035025Y-119972279D01*
X111543316Y-119804022D01*
X111113377Y-119563010D01*
X110707671Y-119226745D01*
X110583637Y-119102436D01*
X110156062Y-118572312D01*
X109812241Y-117968291D01*
X109563068Y-117317161D01*
X109419442Y-116645711D01*
X109387500Y-116161750D01*
X109437775Y-115546580D01*
X109581513Y-114940919D01*
X109808082Y-114372499D01*
X110106851Y-113869055D01*
X110398741Y-113523692D01*
X110755706Y-113218909D01*
X111141678Y-112997846D01*
X111594834Y-112840753D01*
X111821463Y-112787615D01*
X112346873Y-112741031D01*
X112875217Y-112812808D01*
X113392254Y-112995472D01*
X113883745Y-113281552D01*
X114335452Y-113663575D01*
X114733134Y-114134067D01*
X114913213Y-114410133D01*
X115200007Y-114961528D01*
X115386423Y-115496427D01*
X115484383Y-116057643D01*
X115507059Y-116542750D01*
X118394407Y-116542750D01*
X118424970Y-116352753D01*
X118444919Y-116090262D01*
X118457063Y-115777377D01*
X118443229Y-115062065D01*
X118353152Y-114363686D01*
X118180891Y-113656243D01*
X117920502Y-112913740D01*
X117668567Y-112328575D01*
X117402750Y-111835938D01*
X117045540Y-111302533D01*
X116615951Y-110750353D01*
X116132997Y-110201393D01*
X115615693Y-109677646D01*
X115083053Y-109201109D01*
X114710296Y-108906680D01*
X114437997Y-108713979D01*
X114130803Y-108512400D01*
X113810732Y-108314640D01*
X113499804Y-108133398D01*
X113220035Y-107981369D01*
X112993447Y-107871251D01*
X112842056Y-107815742D01*
X112811218Y-107811564D01*
X112734409Y-107863158D01*
X112734409Y-107863158D01*
G37*
X112734409Y-107863158D02*
X112626824Y-107996937D01*
X112534481Y-108144939D01*
X112266714Y-108595658D01*
X111929513Y-109120114D01*
X111538072Y-109697349D01*
X111107585Y-110306407D01*
X110653247Y-110926330D01*
X110190253Y-111536161D01*
X109733797Y-112114942D01*
X109299073Y-112641717D01*
X109139170Y-112828000D01*
X108820580Y-113187898D01*
X108469717Y-113573095D01*
X108102950Y-113966594D01*
X107736649Y-114351401D01*
X107387182Y-114710522D01*
X107070920Y-115026961D01*
X106804231Y-115283723D01*
X106603485Y-115463813D01*
X106588004Y-115476675D01*
X106167124Y-115822919D01*
X106129287Y-116373334D01*
X106027629Y-117108897D01*
X105831773Y-117783150D01*
X105547959Y-118387714D01*
X105182425Y-118914210D01*
X104741411Y-119354259D01*
X104231156Y-119699482D01*
X103657899Y-119941499D01*
X103425491Y-120004511D01*
X102972855Y-120059094D01*
X102499329Y-120028411D01*
X102042849Y-119919830D01*
X101641355Y-119740721D01*
X101470171Y-119624736D01*
X101319207Y-119533588D01*
X101186381Y-119495500D01*
X101186027Y-119495500D01*
X101062381Y-119523010D01*
X100878518Y-119595227D01*
X100663454Y-119696676D01*
X100446206Y-119811884D01*
X100255790Y-119925376D01*
X100121222Y-120021678D01*
X100071520Y-120085317D01*
X100072372Y-120089388D01*
X100115302Y-120175219D01*
X100206870Y-120343611D01*
X100332041Y-120567239D01*
X100428183Y-120736049D01*
X100646703Y-121138628D01*
X100821962Y-121517773D01*
X100958500Y-121894985D01*
X101060854Y-122291769D01*
X101133564Y-122729628D01*
X101181169Y-123230066D01*
X101208206Y-123814585D01*
X101219081Y-124483074D01*
X101223022Y-124963564D01*
X101231655Y-125335329D01*
X101250721Y-125616644D01*
X101285959Y-125825779D01*
X101343112Y-125981007D01*
X101427920Y-126100601D01*
X101546123Y-126202831D01*
X101703463Y-126305972D01*
X101812553Y-126371988D01*
X102011787Y-126487442D01*
X102252270Y-126620202D01*
X102509195Y-126757433D01*
X102757749Y-126886301D01*
X102973124Y-126993969D01*
X103130509Y-127067605D01*
X103205095Y-127094373D01*
X103207527Y-127093640D01*
X103214200Y-127028639D01*
X103223094Y-126859029D01*
X103233257Y-126607158D01*
X103243739Y-126295377D01*
X103248795Y-126124242D01*
X103271236Y-125629376D01*
X103310208Y-125245693D01*
X103370239Y-124957945D01*
X103455857Y-124750884D01*
X103571591Y-124609261D01*
X103721969Y-124517829D01*
X103726398Y-124515977D01*
X104009277Y-124461380D01*
X104285763Y-124518450D01*
X104531307Y-124673161D01*
X104721360Y-124911484D01*
X104812737Y-125136737D01*
X104838186Y-125301228D01*
X104857678Y-125572001D01*
X104870331Y-125928438D01*
X104875259Y-126349924D01*
X104874546Y-126579264D01*
X104872801Y-126951800D01*
X104873505Y-127277749D01*
X104876433Y-127537002D01*
X104881356Y-127709447D01*
X104888035Y-127774963D01*
X104972501Y-127804241D01*
X105153586Y-127848593D01*
X105402604Y-127902429D01*
X105690866Y-127960157D01*
X105989686Y-128016186D01*
X106270377Y-128064923D01*
X106504250Y-128100779D01*
X106641125Y-128116658D01*
X107038000Y-128148887D01*
X107038355Y-127203568D01*
X107043324Y-126742930D01*
X107060344Y-126389016D01*
X107093164Y-126121819D01*
X107145538Y-125921334D01*
X107221216Y-125767556D01*
X107323950Y-125640480D01*
X107333230Y-125631088D01*
X107477168Y-125519508D01*
X107647502Y-125471540D01*
X107800000Y-125464500D01*
X108031565Y-125489560D01*
X108214125Y-125572286D01*
X108352541Y-125724000D01*
X108451675Y-125956019D01*
X108516389Y-126279665D01*
X108551543Y-126706258D01*
X108562000Y-127238869D01*
X108562000Y-128131500D01*
X108831875Y-128127467D01*
X109003975Y-128112546D01*
X109262295Y-128075231D01*
X109569260Y-128021473D01*
X109832000Y-127969067D01*
X110126437Y-127905740D01*
X110378468Y-127849511D01*
X110560156Y-127806746D01*
X110641625Y-127784593D01*
X110673022Y-127737059D01*
X110695717Y-127613210D01*
X110710649Y-127400139D01*
X110718758Y-127084937D01*
X110721000Y-126694069D01*
X110727250Y-126121720D01*
X110747507Y-125661546D01*
X110784038Y-125299267D01*
X110839107Y-125020601D01*
X110914978Y-124811268D01*
X111013917Y-124656988D01*
X111050338Y-124617393D01*
X111174420Y-124507879D01*
X111291803Y-124459269D01*
X111456167Y-124455485D01*
X111561519Y-124464292D01*
X111789314Y-124502833D01*
X111947582Y-124581451D01*
X112062685Y-124690957D01*
X112178899Y-124845162D01*
X112263142Y-125023326D01*
X112319939Y-125247712D01*
X112353816Y-125540580D01*
X112369300Y-125924191D01*
X112371646Y-126210625D01*
X112375217Y-126520855D01*
X112384749Y-126779513D01*
X112398883Y-126963246D01*
X112416262Y-127048702D01*
X112420566Y-127052000D01*
X112520153Y-127020108D01*
X112702193Y-126933735D01*
X112942751Y-126806830D01*
X113217892Y-126653343D01*
X113503680Y-126487226D01*
X113776182Y-126322429D01*
X114011462Y-126172901D01*
X114185585Y-126052594D01*
X114274616Y-125975458D01*
X114278962Y-125968834D01*
X114298435Y-125870985D01*
X114315425Y-125668334D01*
X114328879Y-125383074D01*
X114337749Y-125037395D01*
X114340980Y-124659049D01*
X114344853Y-124117156D01*
X114358667Y-123673156D01*
X114386443Y-123298078D01*
X114432198Y-122962954D01*
X114499953Y-122638814D01*
X114593726Y-122296688D01*
X114717536Y-121907606D01*
X114726385Y-121881004D01*
X114854622Y-121516280D01*
X114986206Y-121193503D01*
X115133132Y-120894437D01*
X115202695Y-120777238D01*
X108868326Y-120777238D01*
X108862952Y-120967746D01*
X108859079Y-121008520D01*
X108773923Y-121361366D01*
X108608642Y-121660494D01*
X108382326Y-121892518D01*
X108114067Y-122044054D01*
X107822958Y-122101719D01*
X107528089Y-122052129D01*
X107431722Y-122009167D01*
X107147232Y-121803985D01*
X106908161Y-121525838D01*
X106737829Y-121210231D01*
X106659558Y-120892668D01*
X106657000Y-120829748D01*
X106679936Y-120690325D01*
X106742712Y-120459382D01*
X106836285Y-120162613D01*
X106951611Y-119825712D01*
X107079646Y-119474373D01*
X107211345Y-119134290D01*
X107337665Y-118831157D01*
X107434581Y-118620661D01*
X107566697Y-118479634D01*
X107751503Y-118430550D01*
X107911776Y-118471352D01*
X108021364Y-118578586D01*
X108156661Y-118786444D01*
X108307130Y-119073831D01*
X108462238Y-119419655D01*
X108611447Y-119802819D01*
X108689124Y-120027733D01*
X108787948Y-120344944D01*
X108845503Y-120582208D01*
X108868326Y-120777238D01*
X115202695Y-120777238D01*
X115307395Y-120600844D01*
X115520990Y-120294486D01*
X115785911Y-119957126D01*
X116114153Y-119570527D01*
X116517711Y-119116452D01*
X116616706Y-119006888D01*
X117103792Y-118459724D01*
X117502540Y-117990988D01*
X117818496Y-117593586D01*
X118057211Y-117260423D01*
X118224231Y-116984402D01*
X118270532Y-116892000D01*
X118343389Y-116720084D01*
X118392998Y-116551514D01*
X118394407Y-116542750D01*
X115507059Y-116542750D01*
X115470711Y-117221620D01*
X115353934Y-117815929D01*
X115150047Y-118344510D01*
X114852367Y-118826196D01*
X114583026Y-119147257D01*
X114133557Y-119549139D01*
X113646387Y-119835917D01*
X113130637Y-120004639D01*
X112595427Y-120052352D01*
X112049878Y-119976101D01*
X112035025Y-119972279D01*
X111543316Y-119804022D01*
X111113377Y-119563010D01*
X110707671Y-119226745D01*
X110583637Y-119102436D01*
X110156062Y-118572312D01*
X109812241Y-117968291D01*
X109563068Y-117317161D01*
X109419442Y-116645711D01*
X109387500Y-116161750D01*
X109437775Y-115546580D01*
X109581513Y-114940919D01*
X109808082Y-114372499D01*
X110106851Y-113869055D01*
X110398741Y-113523692D01*
X110755706Y-113218909D01*
X111141678Y-112997846D01*
X111594834Y-112840753D01*
X111821463Y-112787615D01*
X112346873Y-112741031D01*
X112875217Y-112812808D01*
X113392254Y-112995472D01*
X113883745Y-113281552D01*
X114335452Y-113663575D01*
X114733134Y-114134067D01*
X114913213Y-114410133D01*
X115200007Y-114961528D01*
X115386423Y-115496427D01*
X115484383Y-116057643D01*
X115507059Y-116542750D01*
X118394407Y-116542750D01*
X118424970Y-116352753D01*
X118444919Y-116090262D01*
X118457063Y-115777377D01*
X118443229Y-115062065D01*
X118353152Y-114363686D01*
X118180891Y-113656243D01*
X117920502Y-112913740D01*
X117668567Y-112328575D01*
X117402750Y-111835938D01*
X117045540Y-111302533D01*
X116615951Y-110750353D01*
X116132997Y-110201393D01*
X115615693Y-109677646D01*
X115083053Y-109201109D01*
X114710296Y-108906680D01*
X114437997Y-108713979D01*
X114130803Y-108512400D01*
X113810732Y-108314640D01*
X113499804Y-108133398D01*
X113220035Y-107981369D01*
X112993447Y-107871251D01*
X112842056Y-107815742D01*
X112811218Y-107811564D01*
X112734409Y-107863158D01*
D11*
G36*
X153647714Y-125808058D02*
G01*
X153765721Y-125843855D01*
X153874468Y-125901981D01*
X153969790Y-125980210D01*
X154048019Y-126075532D01*
X154106145Y-126184278D01*
X154141942Y-126302285D01*
X154151000Y-126394254D01*
X154151000Y-127105746D01*
X154141942Y-127197715D01*
X154106145Y-127315722D01*
X154048019Y-127424468D01*
X153969790Y-127519790D01*
X153874468Y-127598019D01*
X153765722Y-127656145D01*
X153647715Y-127691942D01*
X153525000Y-127704028D01*
X153402286Y-127691942D01*
X153284279Y-127656145D01*
X153175533Y-127598019D01*
X153080211Y-127519790D01*
X153001982Y-127424468D01*
X152943855Y-127315721D01*
X152908058Y-127197715D01*
X152899000Y-127105746D01*
X152899000Y-126394255D01*
X152908058Y-126302286D01*
X152943855Y-126184279D01*
X153001981Y-126075532D01*
X153080210Y-125980210D01*
X153175532Y-125901981D01*
X153284278Y-125843855D01*
X153402285Y-125808058D01*
X153525000Y-125795972D01*
X153647714Y-125808058D01*
X153647714Y-125808058D01*
G37*
G36*
X161397714Y-125808058D02*
G01*
X161515721Y-125843855D01*
X161624468Y-125901981D01*
X161719790Y-125980210D01*
X161798019Y-126075532D01*
X161856145Y-126184278D01*
X161891942Y-126302285D01*
X161901000Y-126394254D01*
X161901000Y-127105746D01*
X161891942Y-127197715D01*
X161856145Y-127315722D01*
X161798019Y-127424468D01*
X161719790Y-127519790D01*
X161624468Y-127598019D01*
X161515722Y-127656145D01*
X161397715Y-127691942D01*
X161275000Y-127704028D01*
X161152286Y-127691942D01*
X161034279Y-127656145D01*
X160925533Y-127598019D01*
X160830211Y-127519790D01*
X160751982Y-127424468D01*
X160693855Y-127315721D01*
X160658058Y-127197715D01*
X160649000Y-127105746D01*
X160649000Y-126394255D01*
X160658058Y-126302286D01*
X160693855Y-126184279D01*
X160751981Y-126075532D01*
X160830210Y-125980210D01*
X160925532Y-125901981D01*
X161034278Y-125843855D01*
X161152285Y-125808058D01*
X161275000Y-125795972D01*
X161397714Y-125808058D01*
X161397714Y-125808058D01*
G37*
G36*
X161277120Y-121910228D02*
G01*
X161423401Y-121954602D01*
X161558206Y-122026657D01*
X161676367Y-122123628D01*
X161773345Y-122241796D01*
X161845398Y-122376598D01*
X161889772Y-122522879D01*
X161901000Y-122636882D01*
X161901000Y-123263118D01*
X161889772Y-123377121D01*
X161845398Y-123523402D01*
X161773345Y-123658204D01*
X161773343Y-123658206D01*
X161773342Y-123658208D01*
X161676369Y-123776369D01*
X161615195Y-123826574D01*
X161558204Y-123873345D01*
X161423402Y-123945398D01*
X161277121Y-123989772D01*
X161125000Y-124004754D01*
X160972880Y-123989772D01*
X160826599Y-123945398D01*
X160691797Y-123873345D01*
X160573628Y-123776366D01*
X160543695Y-123739893D01*
X160526368Y-123722566D01*
X160505993Y-123708952D01*
X160483354Y-123699575D01*
X160459321Y-123694795D01*
X160434817Y-123694795D01*
X160410784Y-123699576D01*
X160388145Y-123708953D01*
X160367771Y-123722567D01*
X160350444Y-123739894D01*
X160336830Y-123760269D01*
X160327453Y-123782908D01*
X160322673Y-123806941D01*
X160322673Y-123831445D01*
X160327454Y-123855478D01*
X160344475Y-123911587D01*
X160353182Y-124000000D01*
X160344475Y-124088410D01*
X160318686Y-124173426D01*
X160276807Y-124251775D01*
X160220449Y-124320449D01*
X160151775Y-124376807D01*
X160073426Y-124418686D01*
X159988410Y-124444475D01*
X159922158Y-124451000D01*
X159877842Y-124451000D01*
X159811590Y-124444475D01*
X159726574Y-124418686D01*
X159648225Y-124376807D01*
X159579551Y-124320449D01*
X159523193Y-124251775D01*
X159481314Y-124173426D01*
X159455525Y-124088410D01*
X159446818Y-124000000D01*
X159455525Y-123911590D01*
X159481314Y-123826574D01*
X159523193Y-123748225D01*
X159579551Y-123679551D01*
X159648225Y-123623193D01*
X159726574Y-123581314D01*
X159811590Y-123555525D01*
X159877842Y-123549000D01*
X159922158Y-123549000D01*
X159988410Y-123555525D01*
X160073426Y-123581314D01*
X160151775Y-123623193D01*
X160211428Y-123672149D01*
X160231802Y-123685762D01*
X160254441Y-123695140D01*
X160278474Y-123699920D01*
X160302978Y-123699920D01*
X160327012Y-123695139D01*
X160349650Y-123685762D01*
X160370025Y-123672148D01*
X160387352Y-123654821D01*
X160400965Y-123634447D01*
X160410343Y-123611808D01*
X160415123Y-123587775D01*
X160415123Y-123563271D01*
X160410342Y-123539237D01*
X160406841Y-123530784D01*
X160360228Y-123377121D01*
X160349000Y-123263118D01*
X160349000Y-122636883D01*
X160360228Y-122522880D01*
X160404602Y-122376599D01*
X160476657Y-122241794D01*
X160573628Y-122123633D01*
X160691796Y-122026655D01*
X160826598Y-121954602D01*
X160972879Y-121910228D01*
X161125000Y-121895246D01*
X161277120Y-121910228D01*
X161277120Y-121910228D01*
G37*
G36*
X153827120Y-121910228D02*
G01*
X153973401Y-121954602D01*
X154108206Y-122026657D01*
X154226367Y-122123628D01*
X154323345Y-122241796D01*
X154395398Y-122376598D01*
X154439772Y-122522879D01*
X154451000Y-122636882D01*
X154451000Y-123263118D01*
X154439772Y-123377121D01*
X154393157Y-123530790D01*
X154389654Y-123539249D01*
X154384876Y-123563283D01*
X154384878Y-123587787D01*
X154389661Y-123611820D01*
X154399041Y-123634458D01*
X154412656Y-123654831D01*
X154429985Y-123672156D01*
X154450361Y-123685768D01*
X154473000Y-123695143D01*
X154497034Y-123699921D01*
X154521538Y-123699919D01*
X154545571Y-123695136D01*
X154568209Y-123685756D01*
X154588572Y-123672149D01*
X154648225Y-123623193D01*
X154726574Y-123581314D01*
X154811590Y-123555525D01*
X154877842Y-123549000D01*
X154922158Y-123549000D01*
X154988410Y-123555525D01*
X155073426Y-123581314D01*
X155151775Y-123623193D01*
X155220449Y-123679551D01*
X155276807Y-123748225D01*
X155318686Y-123826574D01*
X155344475Y-123911590D01*
X155353182Y-124000000D01*
X155344475Y-124088410D01*
X155318686Y-124173426D01*
X155276807Y-124251775D01*
X155220449Y-124320449D01*
X155151775Y-124376807D01*
X155073426Y-124418686D01*
X154988410Y-124444475D01*
X154922158Y-124451000D01*
X154877842Y-124451000D01*
X154811590Y-124444475D01*
X154726574Y-124418686D01*
X154648225Y-124376807D01*
X154579551Y-124320449D01*
X154523193Y-124251775D01*
X154481314Y-124173426D01*
X154455525Y-124088410D01*
X154446818Y-124000000D01*
X154455525Y-123911588D01*
X154472546Y-123855477D01*
X154477326Y-123831444D01*
X154477326Y-123806940D01*
X154472545Y-123782907D01*
X154463168Y-123760268D01*
X154449554Y-123739894D01*
X154432227Y-123722567D01*
X154411852Y-123708953D01*
X154389213Y-123699576D01*
X154365180Y-123694796D01*
X154340676Y-123694796D01*
X154316643Y-123699577D01*
X154294004Y-123708954D01*
X154273630Y-123722568D01*
X154256303Y-123739895D01*
X154226372Y-123776366D01*
X154226369Y-123776369D01*
X154165193Y-123826575D01*
X154108204Y-123873345D01*
X153973402Y-123945398D01*
X153827121Y-123989772D01*
X153675000Y-124004754D01*
X153522880Y-123989772D01*
X153376599Y-123945398D01*
X153241797Y-123873345D01*
X153184807Y-123826574D01*
X153123632Y-123776369D01*
X153093698Y-123739895D01*
X153026657Y-123658206D01*
X152954601Y-123523400D01*
X152910228Y-123377121D01*
X152899000Y-123263118D01*
X152899000Y-122636883D01*
X152910228Y-122522880D01*
X152954602Y-122376599D01*
X153026657Y-122241794D01*
X153123628Y-122123633D01*
X153241796Y-122026655D01*
X153376598Y-121954602D01*
X153522879Y-121910228D01*
X153675000Y-121895246D01*
X153827120Y-121910228D01*
X153827120Y-121910228D01*
G37*
G36*
X160466228Y-116473483D02*
G01*
X160654922Y-116530723D01*
X160828815Y-116623671D01*
X160981239Y-116748761D01*
X161106329Y-116901185D01*
X161199277Y-117075078D01*
X161256517Y-117263772D01*
X161275843Y-117460000D01*
X161256517Y-117656228D01*
X161199277Y-117844922D01*
X161106329Y-118018815D01*
X160981239Y-118171239D01*
X160828815Y-118296329D01*
X160654922Y-118389277D01*
X160466228Y-118446517D01*
X160319175Y-118461000D01*
X158620825Y-118461000D01*
X158473772Y-118446517D01*
X158285078Y-118389277D01*
X158111185Y-118296329D01*
X157958761Y-118171239D01*
X157833671Y-118018815D01*
X157740723Y-117844922D01*
X157683483Y-117656228D01*
X157664157Y-117460000D01*
X157683483Y-117263772D01*
X157740723Y-117075078D01*
X157833671Y-116901185D01*
X157958761Y-116748761D01*
X158111185Y-116623671D01*
X158285078Y-116530723D01*
X158473772Y-116473483D01*
X158620825Y-116459000D01*
X160319175Y-116459000D01*
X160466228Y-116473483D01*
X160466228Y-116473483D01*
G37*
G36*
X91804600Y-115594600D02*
G01*
X89975400Y-115594600D01*
X89975400Y-113765400D01*
X91804600Y-113765400D01*
X91804600Y-115594600D01*
X91804600Y-115594600D01*
G37*
G36*
X88529294Y-113778633D02*
G01*
X88701695Y-113830931D01*
X88860583Y-113915858D01*
X88999849Y-114030151D01*
X89114142Y-114169417D01*
X89199069Y-114328305D01*
X89251367Y-114500706D01*
X89269025Y-114680000D01*
X89251367Y-114859294D01*
X89199069Y-115031695D01*
X89114142Y-115190583D01*
X88999849Y-115329849D01*
X88860583Y-115444142D01*
X88701695Y-115529069D01*
X88529294Y-115581367D01*
X88394931Y-115594600D01*
X88305069Y-115594600D01*
X88170706Y-115581367D01*
X87998305Y-115529069D01*
X87839417Y-115444142D01*
X87700151Y-115329849D01*
X87585858Y-115190583D01*
X87500931Y-115031695D01*
X87448633Y-114859294D01*
X87430975Y-114680000D01*
X87448633Y-114500706D01*
X87500931Y-114328305D01*
X87585858Y-114169417D01*
X87700151Y-114030151D01*
X87839417Y-113915858D01*
X87998305Y-113830931D01*
X88170706Y-113778633D01*
X88305069Y-113765400D01*
X88394931Y-113765400D01*
X88529294Y-113778633D01*
X88529294Y-113778633D01*
G37*
G36*
X159606601Y-113474397D02*
G01*
X159645305Y-113482096D01*
X159677340Y-113495365D01*
X159754680Y-113527400D01*
X159853115Y-113593173D01*
X159936827Y-113676885D01*
X160002600Y-113775320D01*
X160047904Y-113884696D01*
X160071000Y-114000805D01*
X160071000Y-114119195D01*
X160047904Y-114235304D01*
X160002600Y-114344680D01*
X159936827Y-114443115D01*
X159853115Y-114526827D01*
X159754680Y-114592600D01*
X159677340Y-114624635D01*
X159645305Y-114637904D01*
X159606601Y-114645603D01*
X159529195Y-114661000D01*
X159410805Y-114661000D01*
X159333399Y-114645603D01*
X159294695Y-114637904D01*
X159262660Y-114624635D01*
X159185320Y-114592600D01*
X159086885Y-114526827D01*
X159003173Y-114443115D01*
X158937400Y-114344680D01*
X158892096Y-114235304D01*
X158869000Y-114119195D01*
X158869000Y-114000805D01*
X158892096Y-113884696D01*
X158937400Y-113775320D01*
X159003173Y-113676885D01*
X159086885Y-113593173D01*
X159185320Y-113527400D01*
X159262660Y-113495365D01*
X159294695Y-113482096D01*
X159333399Y-113474397D01*
X159410805Y-113459000D01*
X159529195Y-113459000D01*
X159606601Y-113474397D01*
X159606601Y-113474397D01*
G37*
G36*
X88529294Y-111238633D02*
G01*
X88701695Y-111290931D01*
X88860583Y-111375858D01*
X88999849Y-111490151D01*
X89114142Y-111629417D01*
X89199069Y-111788305D01*
X89251367Y-111960706D01*
X89269025Y-112140000D01*
X89251367Y-112319294D01*
X89199069Y-112491695D01*
X89114142Y-112650583D01*
X88999849Y-112789849D01*
X88860583Y-112904142D01*
X88701695Y-112989069D01*
X88529294Y-113041367D01*
X88394931Y-113054600D01*
X88305069Y-113054600D01*
X88170706Y-113041367D01*
X87998305Y-112989069D01*
X87839417Y-112904142D01*
X87700151Y-112789849D01*
X87585858Y-112650583D01*
X87500931Y-112491695D01*
X87448633Y-112319294D01*
X87430975Y-112140000D01*
X87448633Y-111960706D01*
X87500931Y-111788305D01*
X87585858Y-111629417D01*
X87700151Y-111490151D01*
X87839417Y-111375858D01*
X87998305Y-111290931D01*
X88170706Y-111238633D01*
X88305069Y-111225400D01*
X88394931Y-111225400D01*
X88529294Y-111238633D01*
X88529294Y-111238633D01*
G37*
G36*
X91069294Y-111238633D02*
G01*
X91241695Y-111290931D01*
X91400583Y-111375858D01*
X91539849Y-111490151D01*
X91654142Y-111629417D01*
X91739069Y-111788305D01*
X91791367Y-111960706D01*
X91809025Y-112140000D01*
X91791367Y-112319294D01*
X91739069Y-112491695D01*
X91654142Y-112650583D01*
X91539849Y-112789849D01*
X91400583Y-112904142D01*
X91241695Y-112989069D01*
X91069294Y-113041367D01*
X90934931Y-113054600D01*
X90845069Y-113054600D01*
X90710706Y-113041367D01*
X90538305Y-112989069D01*
X90379417Y-112904142D01*
X90240151Y-112789849D01*
X90125858Y-112650583D01*
X90040931Y-112491695D01*
X89988633Y-112319294D01*
X89970975Y-112140000D01*
X89988633Y-111960706D01*
X90040931Y-111788305D01*
X90125858Y-111629417D01*
X90240151Y-111490151D01*
X90379417Y-111375858D01*
X90538305Y-111290931D01*
X90710706Y-111238633D01*
X90845069Y-111225400D01*
X90934931Y-111225400D01*
X91069294Y-111238633D01*
X91069294Y-111238633D01*
G37*
G36*
X88616778Y-108720547D02*
G01*
X88783224Y-108789491D01*
X88933022Y-108889583D01*
X89060417Y-109016978D01*
X89160509Y-109166776D01*
X89229453Y-109333222D01*
X89264600Y-109509918D01*
X89264600Y-109690082D01*
X89229453Y-109866778D01*
X89160509Y-110033224D01*
X89060417Y-110183022D01*
X88933022Y-110310417D01*
X88783224Y-110410509D01*
X88616778Y-110479453D01*
X88440082Y-110514600D01*
X88259918Y-110514600D01*
X88083222Y-110479453D01*
X87916776Y-110410509D01*
X87766978Y-110310417D01*
X87639583Y-110183022D01*
X87539491Y-110033224D01*
X87470547Y-109866778D01*
X87435400Y-109690082D01*
X87435400Y-109509918D01*
X87470547Y-109333222D01*
X87539491Y-109166776D01*
X87639583Y-109016978D01*
X87766978Y-108889583D01*
X87916776Y-108789491D01*
X88083222Y-108720547D01*
X88259918Y-108685400D01*
X88440082Y-108685400D01*
X88616778Y-108720547D01*
X88616778Y-108720547D01*
G37*
G36*
X91156778Y-108720547D02*
G01*
X91323224Y-108789491D01*
X91473022Y-108889583D01*
X91600417Y-109016978D01*
X91700509Y-109166776D01*
X91769453Y-109333222D01*
X91804600Y-109509918D01*
X91804600Y-109690082D01*
X91769453Y-109866778D01*
X91700509Y-110033224D01*
X91600417Y-110183022D01*
X91473022Y-110310417D01*
X91323224Y-110410509D01*
X91156778Y-110479453D01*
X90980082Y-110514600D01*
X90799918Y-110514600D01*
X90623222Y-110479453D01*
X90456776Y-110410509D01*
X90306978Y-110310417D01*
X90179583Y-110183022D01*
X90079491Y-110033224D01*
X90010547Y-109866778D01*
X89975400Y-109690082D01*
X89975400Y-109509918D01*
X90010547Y-109333222D01*
X90079491Y-109166776D01*
X90179583Y-109016978D01*
X90306978Y-108889583D01*
X90456776Y-108789491D01*
X90623222Y-108720547D01*
X90799918Y-108685400D01*
X90980082Y-108685400D01*
X91156778Y-108720547D01*
X91156778Y-108720547D01*
G37*
G36*
X159606601Y-108874397D02*
G01*
X159645305Y-108882096D01*
X159663380Y-108889583D01*
X159754680Y-108927400D01*
X159853115Y-108993173D01*
X159936827Y-109076885D01*
X160002600Y-109175320D01*
X160047904Y-109284696D01*
X160071000Y-109400805D01*
X160071000Y-109519195D01*
X160047904Y-109635304D01*
X160002600Y-109744680D01*
X159936827Y-109843115D01*
X159853115Y-109926827D01*
X159754680Y-109992600D01*
X159677340Y-110024635D01*
X159645305Y-110037904D01*
X159606601Y-110045603D01*
X159529195Y-110061000D01*
X159410805Y-110061000D01*
X159333399Y-110045603D01*
X159294695Y-110037904D01*
X159262660Y-110024635D01*
X159185320Y-109992600D01*
X159086885Y-109926827D01*
X159003173Y-109843115D01*
X158937400Y-109744680D01*
X158892096Y-109635304D01*
X158869000Y-109519195D01*
X158869000Y-109400805D01*
X158892096Y-109284696D01*
X158937400Y-109175320D01*
X159003173Y-109076885D01*
X159086885Y-108993173D01*
X159185320Y-108927400D01*
X159276620Y-108889583D01*
X159294695Y-108882096D01*
X159333399Y-108874397D01*
X159410805Y-108859000D01*
X159529195Y-108859000D01*
X159606601Y-108874397D01*
X159606601Y-108874397D01*
G37*
G36*
X160466228Y-105073483D02*
G01*
X160654922Y-105130723D01*
X160828815Y-105223671D01*
X160981239Y-105348761D01*
X161106329Y-105501185D01*
X161199277Y-105675078D01*
X161256517Y-105863772D01*
X161275843Y-106060000D01*
X161256517Y-106256228D01*
X161199277Y-106444922D01*
X161106329Y-106618815D01*
X160981239Y-106771239D01*
X160828815Y-106896329D01*
X160654922Y-106989277D01*
X160466228Y-107046517D01*
X160319175Y-107061000D01*
X158620825Y-107061000D01*
X158473772Y-107046517D01*
X158285078Y-106989277D01*
X158111185Y-106896329D01*
X157958761Y-106771239D01*
X157833671Y-106618815D01*
X157740723Y-106444922D01*
X157683483Y-106256228D01*
X157664157Y-106060000D01*
X157683483Y-105863772D01*
X157740723Y-105675078D01*
X157833671Y-105501185D01*
X157958761Y-105348761D01*
X158111185Y-105223671D01*
X158285078Y-105130723D01*
X158473772Y-105073483D01*
X158620825Y-105059000D01*
X160319175Y-105059000D01*
X160466228Y-105073483D01*
X160466228Y-105073483D01*
G37*
M02*
