G04 #@! TF.GenerationSoftware,KiCad,Pcbnew,(5.1.4)-1*
G04 #@! TF.CreationDate,2020-08-24T20:29:47-05:00*
G04 #@! TF.ProjectId,NiteLite,4e697465-4c69-4746-952e-6b696361645f,rev?*
G04 #@! TF.SameCoordinates,Original*
G04 #@! TF.FileFunction,Legend,Bot*
G04 #@! TF.FilePolarity,Positive*
%FSLAX46Y46*%
G04 Gerber Fmt 4.6, Leading zero omitted, Abs format (unit mm)*
G04 Created by KiCad (PCBNEW (5.1.4)-1) date 2020-08-24 20:29:47*
%MOMM*%
%LPD*%
G04 APERTURE LIST*
%ADD10C,0.010000*%
%ADD11C,0.150000*%
G04 APERTURE END LIST*
D10*
G36*
X90640983Y-123555947D02*
G01*
X90635050Y-123580800D01*
X90642031Y-123606962D01*
X90663682Y-123616615D01*
X90690472Y-123612002D01*
X90699966Y-123600740D01*
X90702793Y-123569299D01*
X90687578Y-123548793D01*
X90663682Y-123544984D01*
X90640983Y-123555947D01*
X90640983Y-123555947D01*
G37*
X90640983Y-123555947D02*
X90635050Y-123580800D01*
X90642031Y-123606962D01*
X90663682Y-123616615D01*
X90690472Y-123612002D01*
X90699966Y-123600740D01*
X90702793Y-123569299D01*
X90687578Y-123548793D01*
X90663682Y-123544984D01*
X90640983Y-123555947D01*
G36*
X88655086Y-125442317D02*
G01*
X88587105Y-125446819D01*
X88536756Y-125455492D01*
X88517325Y-125462585D01*
X88496474Y-125480864D01*
X88499237Y-125501275D01*
X88523965Y-125523319D01*
X88569008Y-125546495D01*
X88632718Y-125570301D01*
X88713445Y-125594239D01*
X88809540Y-125617807D01*
X88919354Y-125640504D01*
X89041237Y-125661831D01*
X89173541Y-125681286D01*
X89282500Y-125694794D01*
X89373781Y-125704707D01*
X89442908Y-125710881D01*
X89492842Y-125713366D01*
X89526544Y-125712212D01*
X89546976Y-125707470D01*
X89556944Y-125699446D01*
X89555019Y-125680368D01*
X89532446Y-125655388D01*
X89492743Y-125626413D01*
X89439433Y-125595351D01*
X89376034Y-125564107D01*
X89306068Y-125534591D01*
X89233054Y-125508708D01*
X89172994Y-125491436D01*
X89096814Y-125475209D01*
X89010383Y-125461925D01*
X88918347Y-125451789D01*
X88825354Y-125445006D01*
X88736051Y-125441781D01*
X88655086Y-125442317D01*
X88655086Y-125442317D01*
G37*
X88655086Y-125442317D02*
X88587105Y-125446819D01*
X88536756Y-125455492D01*
X88517325Y-125462585D01*
X88496474Y-125480864D01*
X88499237Y-125501275D01*
X88523965Y-125523319D01*
X88569008Y-125546495D01*
X88632718Y-125570301D01*
X88713445Y-125594239D01*
X88809540Y-125617807D01*
X88919354Y-125640504D01*
X89041237Y-125661831D01*
X89173541Y-125681286D01*
X89282500Y-125694794D01*
X89373781Y-125704707D01*
X89442908Y-125710881D01*
X89492842Y-125713366D01*
X89526544Y-125712212D01*
X89546976Y-125707470D01*
X89556944Y-125699446D01*
X89555019Y-125680368D01*
X89532446Y-125655388D01*
X89492743Y-125626413D01*
X89439433Y-125595351D01*
X89376034Y-125564107D01*
X89306068Y-125534591D01*
X89233054Y-125508708D01*
X89172994Y-125491436D01*
X89096814Y-125475209D01*
X89010383Y-125461925D01*
X88918347Y-125451789D01*
X88825354Y-125445006D01*
X88736051Y-125441781D01*
X88655086Y-125442317D01*
G36*
X88974832Y-120377436D02*
G01*
X88935105Y-120403378D01*
X88891881Y-120440620D01*
X88849784Y-120484258D01*
X88813439Y-120529389D01*
X88787472Y-120571107D01*
X88776507Y-120604510D01*
X88776696Y-120611312D01*
X88787425Y-120636079D01*
X88811171Y-120642024D01*
X88849898Y-120629363D01*
X88866265Y-120621158D01*
X88901212Y-120598634D01*
X88942459Y-120566198D01*
X88985277Y-120528373D01*
X89024933Y-120489682D01*
X89056698Y-120454647D01*
X89075841Y-120427792D01*
X89079300Y-120417490D01*
X89067985Y-120392356D01*
X89039531Y-120373917D01*
X89006437Y-120367700D01*
X88974832Y-120377436D01*
X88974832Y-120377436D01*
G37*
X88974832Y-120377436D02*
X88935105Y-120403378D01*
X88891881Y-120440620D01*
X88849784Y-120484258D01*
X88813439Y-120529389D01*
X88787472Y-120571107D01*
X88776507Y-120604510D01*
X88776696Y-120611312D01*
X88787425Y-120636079D01*
X88811171Y-120642024D01*
X88849898Y-120629363D01*
X88866265Y-120621158D01*
X88901212Y-120598634D01*
X88942459Y-120566198D01*
X88985277Y-120528373D01*
X89024933Y-120489682D01*
X89056698Y-120454647D01*
X89075841Y-120427792D01*
X89079300Y-120417490D01*
X89067985Y-120392356D01*
X89039531Y-120373917D01*
X89006437Y-120367700D01*
X88974832Y-120377436D01*
G36*
X89360791Y-120407771D02*
G01*
X89336300Y-120414226D01*
X89309159Y-120426966D01*
X89275178Y-120447730D01*
X89230162Y-120478256D01*
X89169920Y-120520281D01*
X89138571Y-120542126D01*
X89098882Y-120567852D01*
X89041475Y-120602545D01*
X88971155Y-120643428D01*
X88892726Y-120687727D01*
X88810992Y-120732664D01*
X88778543Y-120750146D01*
X88686166Y-120799853D01*
X88585085Y-120854669D01*
X88482891Y-120910449D01*
X88387177Y-120963050D01*
X88305533Y-121008324D01*
X88298250Y-121012393D01*
X88163951Y-121086601D01*
X88033148Y-121157204D01*
X87909259Y-121222434D01*
X87795703Y-121280526D01*
X87695899Y-121329712D01*
X87613264Y-121368227D01*
X87588982Y-121378880D01*
X87531569Y-121406371D01*
X87475849Y-121437858D01*
X87431182Y-121467899D01*
X87419541Y-121477374D01*
X87387148Y-121507966D01*
X87371271Y-121530416D01*
X87367927Y-121551581D01*
X87369618Y-121563364D01*
X87370473Y-121585663D01*
X87361893Y-121610168D01*
X87341047Y-121642691D01*
X87313355Y-121678733D01*
X87245918Y-121766822D01*
X87195723Y-121840537D01*
X87161167Y-121902536D01*
X87140648Y-121955476D01*
X87136576Y-121971923D01*
X87121891Y-122022318D01*
X87101043Y-122072089D01*
X87092092Y-122088550D01*
X87060406Y-122141375D01*
X87040233Y-122176920D01*
X87029790Y-122199541D01*
X87027290Y-122213599D01*
X87030949Y-122223452D01*
X87034792Y-122228480D01*
X87055944Y-122240384D01*
X87090850Y-122248598D01*
X87102265Y-122249793D01*
X87135823Y-122253914D01*
X87150731Y-122262829D01*
X87153738Y-122281224D01*
X87153564Y-122285400D01*
X87147856Y-122311808D01*
X87134236Y-122353351D01*
X87115373Y-122402072D01*
X87110452Y-122413742D01*
X87086339Y-122477390D01*
X87077148Y-122524640D01*
X87083269Y-122559923D01*
X87105087Y-122587671D01*
X87127016Y-122603246D01*
X87173103Y-122624003D01*
X87215315Y-122623799D01*
X87256850Y-122606709D01*
X87287994Y-122587661D01*
X87328723Y-122559905D01*
X87359174Y-122537693D01*
X87453350Y-122478170D01*
X87568615Y-122424327D01*
X87701145Y-122376885D01*
X87847116Y-122336566D01*
X88002707Y-122304091D01*
X88164093Y-122280181D01*
X88327452Y-122265559D01*
X88488960Y-122260945D01*
X88644794Y-122267062D01*
X88740359Y-122277018D01*
X88836017Y-122292488D01*
X88913006Y-122312228D01*
X88978009Y-122338988D01*
X89037712Y-122375512D01*
X89098350Y-122424158D01*
X89152650Y-122469986D01*
X89195394Y-122500254D01*
X89232715Y-122517630D01*
X89270744Y-122524783D01*
X89315612Y-122524383D01*
X89326727Y-122523569D01*
X89365279Y-122518043D01*
X89410771Y-122506407D01*
X89467320Y-122487291D01*
X89539043Y-122459326D01*
X89613288Y-122428313D01*
X89685110Y-122398181D01*
X89755142Y-122369920D01*
X89825508Y-122342881D01*
X89898334Y-122316416D01*
X89975745Y-122289877D01*
X90059867Y-122262616D01*
X90152826Y-122233986D01*
X90256745Y-122203337D01*
X90373752Y-122170021D01*
X90505972Y-122133392D01*
X90655529Y-122092800D01*
X90824550Y-122047598D01*
X91015160Y-121997137D01*
X91104950Y-121973487D01*
X91259646Y-121932201D01*
X91401954Y-121893046D01*
X91530308Y-121856507D01*
X91643138Y-121823071D01*
X91738876Y-121793226D01*
X91815953Y-121767458D01*
X91872801Y-121746254D01*
X91907851Y-121730101D01*
X91919319Y-121720741D01*
X91917689Y-121692554D01*
X91898143Y-121648361D01*
X91861483Y-121589320D01*
X91808514Y-121516593D01*
X91740040Y-121431338D01*
X91656866Y-121334715D01*
X91633480Y-121308485D01*
X91579174Y-121246606D01*
X91522902Y-121180163D01*
X91470705Y-121116427D01*
X91428624Y-121062674D01*
X91422379Y-121054335D01*
X91374497Y-120993484D01*
X91330267Y-120947059D01*
X91281419Y-120907060D01*
X91242258Y-120880046D01*
X91185186Y-120842889D01*
X91143815Y-120817602D01*
X91112749Y-120801909D01*
X91086593Y-120793534D01*
X91059950Y-120790202D01*
X91027909Y-120789637D01*
X91004083Y-120788973D01*
X90980548Y-120786080D01*
X90953824Y-120779716D01*
X90920431Y-120768639D01*
X90876888Y-120751607D01*
X90819713Y-120727378D01*
X90745427Y-120694710D01*
X90679500Y-120665315D01*
X90632630Y-120645061D01*
X90593864Y-120630970D01*
X90556004Y-120621521D01*
X90511850Y-120615193D01*
X90454206Y-120610467D01*
X90405926Y-120607523D01*
X90329932Y-120602102D01*
X90250189Y-120594665D01*
X90176870Y-120586251D01*
X90126526Y-120578994D01*
X90024954Y-120562949D01*
X89944468Y-120552963D01*
X89881387Y-120549456D01*
X89832030Y-120552849D01*
X89792717Y-120563562D01*
X89759766Y-120582016D01*
X89729498Y-120608631D01*
X89713270Y-120626206D01*
X89676204Y-120661770D01*
X89632599Y-120693755D01*
X89586925Y-120720199D01*
X89543657Y-120739142D01*
X89507265Y-120748623D01*
X89482222Y-120746681D01*
X89473000Y-120731555D01*
X89481849Y-120705584D01*
X89504286Y-120671092D01*
X89534148Y-120635527D01*
X89565273Y-120606339D01*
X89588510Y-120591955D01*
X89618175Y-120572514D01*
X89625400Y-120550424D01*
X89633166Y-120525237D01*
X89644450Y-120515507D01*
X89660206Y-120498263D01*
X89663500Y-120482724D01*
X89651282Y-120454179D01*
X89614805Y-120432341D01*
X89554334Y-120417306D01*
X89470136Y-120409171D01*
X89460300Y-120408736D01*
X89418599Y-120406764D01*
X89386827Y-120405863D01*
X89360791Y-120407771D01*
X89360791Y-120407771D01*
G37*
X89360791Y-120407771D02*
X89336300Y-120414226D01*
X89309159Y-120426966D01*
X89275178Y-120447730D01*
X89230162Y-120478256D01*
X89169920Y-120520281D01*
X89138571Y-120542126D01*
X89098882Y-120567852D01*
X89041475Y-120602545D01*
X88971155Y-120643428D01*
X88892726Y-120687727D01*
X88810992Y-120732664D01*
X88778543Y-120750146D01*
X88686166Y-120799853D01*
X88585085Y-120854669D01*
X88482891Y-120910449D01*
X88387177Y-120963050D01*
X88305533Y-121008324D01*
X88298250Y-121012393D01*
X88163951Y-121086601D01*
X88033148Y-121157204D01*
X87909259Y-121222434D01*
X87795703Y-121280526D01*
X87695899Y-121329712D01*
X87613264Y-121368227D01*
X87588982Y-121378880D01*
X87531569Y-121406371D01*
X87475849Y-121437858D01*
X87431182Y-121467899D01*
X87419541Y-121477374D01*
X87387148Y-121507966D01*
X87371271Y-121530416D01*
X87367927Y-121551581D01*
X87369618Y-121563364D01*
X87370473Y-121585663D01*
X87361893Y-121610168D01*
X87341047Y-121642691D01*
X87313355Y-121678733D01*
X87245918Y-121766822D01*
X87195723Y-121840537D01*
X87161167Y-121902536D01*
X87140648Y-121955476D01*
X87136576Y-121971923D01*
X87121891Y-122022318D01*
X87101043Y-122072089D01*
X87092092Y-122088550D01*
X87060406Y-122141375D01*
X87040233Y-122176920D01*
X87029790Y-122199541D01*
X87027290Y-122213599D01*
X87030949Y-122223452D01*
X87034792Y-122228480D01*
X87055944Y-122240384D01*
X87090850Y-122248598D01*
X87102265Y-122249793D01*
X87135823Y-122253914D01*
X87150731Y-122262829D01*
X87153738Y-122281224D01*
X87153564Y-122285400D01*
X87147856Y-122311808D01*
X87134236Y-122353351D01*
X87115373Y-122402072D01*
X87110452Y-122413742D01*
X87086339Y-122477390D01*
X87077148Y-122524640D01*
X87083269Y-122559923D01*
X87105087Y-122587671D01*
X87127016Y-122603246D01*
X87173103Y-122624003D01*
X87215315Y-122623799D01*
X87256850Y-122606709D01*
X87287994Y-122587661D01*
X87328723Y-122559905D01*
X87359174Y-122537693D01*
X87453350Y-122478170D01*
X87568615Y-122424327D01*
X87701145Y-122376885D01*
X87847116Y-122336566D01*
X88002707Y-122304091D01*
X88164093Y-122280181D01*
X88327452Y-122265559D01*
X88488960Y-122260945D01*
X88644794Y-122267062D01*
X88740359Y-122277018D01*
X88836017Y-122292488D01*
X88913006Y-122312228D01*
X88978009Y-122338988D01*
X89037712Y-122375512D01*
X89098350Y-122424158D01*
X89152650Y-122469986D01*
X89195394Y-122500254D01*
X89232715Y-122517630D01*
X89270744Y-122524783D01*
X89315612Y-122524383D01*
X89326727Y-122523569D01*
X89365279Y-122518043D01*
X89410771Y-122506407D01*
X89467320Y-122487291D01*
X89539043Y-122459326D01*
X89613288Y-122428313D01*
X89685110Y-122398181D01*
X89755142Y-122369920D01*
X89825508Y-122342881D01*
X89898334Y-122316416D01*
X89975745Y-122289877D01*
X90059867Y-122262616D01*
X90152826Y-122233986D01*
X90256745Y-122203337D01*
X90373752Y-122170021D01*
X90505972Y-122133392D01*
X90655529Y-122092800D01*
X90824550Y-122047598D01*
X91015160Y-121997137D01*
X91104950Y-121973487D01*
X91259646Y-121932201D01*
X91401954Y-121893046D01*
X91530308Y-121856507D01*
X91643138Y-121823071D01*
X91738876Y-121793226D01*
X91815953Y-121767458D01*
X91872801Y-121746254D01*
X91907851Y-121730101D01*
X91919319Y-121720741D01*
X91917689Y-121692554D01*
X91898143Y-121648361D01*
X91861483Y-121589320D01*
X91808514Y-121516593D01*
X91740040Y-121431338D01*
X91656866Y-121334715D01*
X91633480Y-121308485D01*
X91579174Y-121246606D01*
X91522902Y-121180163D01*
X91470705Y-121116427D01*
X91428624Y-121062674D01*
X91422379Y-121054335D01*
X91374497Y-120993484D01*
X91330267Y-120947059D01*
X91281419Y-120907060D01*
X91242258Y-120880046D01*
X91185186Y-120842889D01*
X91143815Y-120817602D01*
X91112749Y-120801909D01*
X91086593Y-120793534D01*
X91059950Y-120790202D01*
X91027909Y-120789637D01*
X91004083Y-120788973D01*
X90980548Y-120786080D01*
X90953824Y-120779716D01*
X90920431Y-120768639D01*
X90876888Y-120751607D01*
X90819713Y-120727378D01*
X90745427Y-120694710D01*
X90679500Y-120665315D01*
X90632630Y-120645061D01*
X90593864Y-120630970D01*
X90556004Y-120621521D01*
X90511850Y-120615193D01*
X90454206Y-120610467D01*
X90405926Y-120607523D01*
X90329932Y-120602102D01*
X90250189Y-120594665D01*
X90176870Y-120586251D01*
X90126526Y-120578994D01*
X90024954Y-120562949D01*
X89944468Y-120552963D01*
X89881387Y-120549456D01*
X89832030Y-120552849D01*
X89792717Y-120563562D01*
X89759766Y-120582016D01*
X89729498Y-120608631D01*
X89713270Y-120626206D01*
X89676204Y-120661770D01*
X89632599Y-120693755D01*
X89586925Y-120720199D01*
X89543657Y-120739142D01*
X89507265Y-120748623D01*
X89482222Y-120746681D01*
X89473000Y-120731555D01*
X89481849Y-120705584D01*
X89504286Y-120671092D01*
X89534148Y-120635527D01*
X89565273Y-120606339D01*
X89588510Y-120591955D01*
X89618175Y-120572514D01*
X89625400Y-120550424D01*
X89633166Y-120525237D01*
X89644450Y-120515507D01*
X89660206Y-120498263D01*
X89663500Y-120482724D01*
X89651282Y-120454179D01*
X89614805Y-120432341D01*
X89554334Y-120417306D01*
X89470136Y-120409171D01*
X89460300Y-120408736D01*
X89418599Y-120406764D01*
X89386827Y-120405863D01*
X89360791Y-120407771D01*
G36*
X86641078Y-123084680D02*
G01*
X86616812Y-123110020D01*
X86609608Y-123120198D01*
X86584308Y-123165448D01*
X86578322Y-123201351D01*
X86593095Y-123230337D01*
X86630075Y-123254838D01*
X86690706Y-123277283D01*
X86705695Y-123281710D01*
X86751299Y-123297754D01*
X86787623Y-123319285D01*
X86819880Y-123351115D01*
X86853281Y-123398056D01*
X86880456Y-123443033D01*
X86912640Y-123492969D01*
X86938894Y-123520090D01*
X86961480Y-123525623D01*
X86982660Y-123510797D01*
X86989390Y-123502123D01*
X87011356Y-123459825D01*
X87032014Y-123400359D01*
X87049241Y-123331941D01*
X87060915Y-123262791D01*
X87064878Y-123209954D01*
X87064558Y-123161128D01*
X87060583Y-123130888D01*
X87051450Y-123112509D01*
X87040950Y-123102930D01*
X87011354Y-123091187D01*
X86990150Y-123091835D01*
X86921348Y-123105046D01*
X86847606Y-123107518D01*
X86780731Y-123099166D01*
X86760610Y-123093494D01*
X86706612Y-123077543D01*
X86668889Y-123074230D01*
X86641078Y-123084680D01*
X86641078Y-123084680D01*
G37*
X86641078Y-123084680D02*
X86616812Y-123110020D01*
X86609608Y-123120198D01*
X86584308Y-123165448D01*
X86578322Y-123201351D01*
X86593095Y-123230337D01*
X86630075Y-123254838D01*
X86690706Y-123277283D01*
X86705695Y-123281710D01*
X86751299Y-123297754D01*
X86787623Y-123319285D01*
X86819880Y-123351115D01*
X86853281Y-123398056D01*
X86880456Y-123443033D01*
X86912640Y-123492969D01*
X86938894Y-123520090D01*
X86961480Y-123525623D01*
X86982660Y-123510797D01*
X86989390Y-123502123D01*
X87011356Y-123459825D01*
X87032014Y-123400359D01*
X87049241Y-123331941D01*
X87060915Y-123262791D01*
X87064878Y-123209954D01*
X87064558Y-123161128D01*
X87060583Y-123130888D01*
X87051450Y-123112509D01*
X87040950Y-123102930D01*
X87011354Y-123091187D01*
X86990150Y-123091835D01*
X86921348Y-123105046D01*
X86847606Y-123107518D01*
X86780731Y-123099166D01*
X86760610Y-123093494D01*
X86706612Y-123077543D01*
X86668889Y-123074230D01*
X86641078Y-123084680D01*
G36*
X92648997Y-124339841D02*
G01*
X92598307Y-124365326D01*
X92552019Y-124400947D01*
X92521456Y-124437312D01*
X92504791Y-124467437D01*
X92501624Y-124488721D01*
X92510793Y-124513066D01*
X92513531Y-124518435D01*
X92540220Y-124554410D01*
X92574514Y-124569861D01*
X92619824Y-124565439D01*
X92667050Y-124547684D01*
X92720856Y-124518029D01*
X92764119Y-124484363D01*
X92792121Y-124450992D01*
X92800400Y-124425952D01*
X92789276Y-124391192D01*
X92761259Y-124358860D01*
X92724385Y-124336265D01*
X92695009Y-124330100D01*
X92648997Y-124339841D01*
X92648997Y-124339841D01*
G37*
X92648997Y-124339841D02*
X92598307Y-124365326D01*
X92552019Y-124400947D01*
X92521456Y-124437312D01*
X92504791Y-124467437D01*
X92501624Y-124488721D01*
X92510793Y-124513066D01*
X92513531Y-124518435D01*
X92540220Y-124554410D01*
X92574514Y-124569861D01*
X92619824Y-124565439D01*
X92667050Y-124547684D01*
X92720856Y-124518029D01*
X92764119Y-124484363D01*
X92792121Y-124450992D01*
X92800400Y-124425952D01*
X92789276Y-124391192D01*
X92761259Y-124358860D01*
X92724385Y-124336265D01*
X92695009Y-124330100D01*
X92648997Y-124339841D01*
G36*
X86476465Y-123363900D02*
G01*
X86451868Y-123396704D01*
X86423877Y-123447170D01*
X86394055Y-123511853D01*
X86363967Y-123587309D01*
X86335175Y-123670096D01*
X86309245Y-123756768D01*
X86304726Y-123773559D01*
X86268617Y-123957521D01*
X86254215Y-124150553D01*
X86261252Y-124348985D01*
X86289460Y-124549150D01*
X86338572Y-124747377D01*
X86385761Y-124884354D01*
X86420981Y-124965703D01*
X86462345Y-125045594D01*
X86507415Y-125120651D01*
X86553758Y-125187494D01*
X86598937Y-125242746D01*
X86640517Y-125283029D01*
X86676062Y-125304965D01*
X86691216Y-125308000D01*
X86716876Y-125300472D01*
X86745148Y-125283243D01*
X86774378Y-125253820D01*
X86807534Y-125211064D01*
X86839108Y-125163229D01*
X86863593Y-125118568D01*
X86874802Y-125088908D01*
X86876166Y-125064250D01*
X86865748Y-125039329D01*
X86840105Y-125006595D01*
X86834251Y-125000008D01*
X86781647Y-124939900D01*
X86745561Y-124893114D01*
X86724575Y-124854987D01*
X86717270Y-124820857D01*
X86722226Y-124786062D01*
X86738025Y-124745941D01*
X86749678Y-124722167D01*
X86767548Y-124679420D01*
X86786533Y-124622046D01*
X86803300Y-124560429D01*
X86807623Y-124541648D01*
X86821831Y-124482706D01*
X86837701Y-124426406D01*
X86852493Y-124382208D01*
X86857002Y-124371135D01*
X86879761Y-124302831D01*
X86896255Y-124219341D01*
X86906006Y-124128287D01*
X86908539Y-124037289D01*
X86903377Y-123953968D01*
X86890042Y-123885944D01*
X86887802Y-123878971D01*
X86869255Y-123832615D01*
X86846171Y-123786443D01*
X86822075Y-123746333D01*
X86800489Y-123718162D01*
X86785184Y-123707800D01*
X86761694Y-123719193D01*
X86732177Y-123750821D01*
X86698739Y-123798855D01*
X86663487Y-123859467D01*
X86628525Y-123928829D01*
X86595961Y-124003112D01*
X86567900Y-124078489D01*
X86551131Y-124133239D01*
X86530973Y-124250713D01*
X86534414Y-124371625D01*
X86561545Y-124498611D01*
X86564366Y-124507900D01*
X86582014Y-124570186D01*
X86589465Y-124612004D01*
X86586664Y-124636172D01*
X86573553Y-124645511D01*
X86561644Y-124645308D01*
X86537930Y-124634685D01*
X86519208Y-124608559D01*
X86504422Y-124564183D01*
X86492518Y-124498805D01*
X86486419Y-124449262D01*
X86479289Y-124268084D01*
X86496471Y-124081299D01*
X86537795Y-123890084D01*
X86588686Y-123733200D01*
X86608258Y-123656248D01*
X86614579Y-123573030D01*
X86606974Y-123495567D01*
X86602994Y-123479144D01*
X86586895Y-123442247D01*
X86561477Y-123404576D01*
X86532541Y-123373020D01*
X86505889Y-123354469D01*
X86496102Y-123352200D01*
X86476465Y-123363900D01*
X86476465Y-123363900D01*
G37*
X86476465Y-123363900D02*
X86451868Y-123396704D01*
X86423877Y-123447170D01*
X86394055Y-123511853D01*
X86363967Y-123587309D01*
X86335175Y-123670096D01*
X86309245Y-123756768D01*
X86304726Y-123773559D01*
X86268617Y-123957521D01*
X86254215Y-124150553D01*
X86261252Y-124348985D01*
X86289460Y-124549150D01*
X86338572Y-124747377D01*
X86385761Y-124884354D01*
X86420981Y-124965703D01*
X86462345Y-125045594D01*
X86507415Y-125120651D01*
X86553758Y-125187494D01*
X86598937Y-125242746D01*
X86640517Y-125283029D01*
X86676062Y-125304965D01*
X86691216Y-125308000D01*
X86716876Y-125300472D01*
X86745148Y-125283243D01*
X86774378Y-125253820D01*
X86807534Y-125211064D01*
X86839108Y-125163229D01*
X86863593Y-125118568D01*
X86874802Y-125088908D01*
X86876166Y-125064250D01*
X86865748Y-125039329D01*
X86840105Y-125006595D01*
X86834251Y-125000008D01*
X86781647Y-124939900D01*
X86745561Y-124893114D01*
X86724575Y-124854987D01*
X86717270Y-124820857D01*
X86722226Y-124786062D01*
X86738025Y-124745941D01*
X86749678Y-124722167D01*
X86767548Y-124679420D01*
X86786533Y-124622046D01*
X86803300Y-124560429D01*
X86807623Y-124541648D01*
X86821831Y-124482706D01*
X86837701Y-124426406D01*
X86852493Y-124382208D01*
X86857002Y-124371135D01*
X86879761Y-124302831D01*
X86896255Y-124219341D01*
X86906006Y-124128287D01*
X86908539Y-124037289D01*
X86903377Y-123953968D01*
X86890042Y-123885944D01*
X86887802Y-123878971D01*
X86869255Y-123832615D01*
X86846171Y-123786443D01*
X86822075Y-123746333D01*
X86800489Y-123718162D01*
X86785184Y-123707800D01*
X86761694Y-123719193D01*
X86732177Y-123750821D01*
X86698739Y-123798855D01*
X86663487Y-123859467D01*
X86628525Y-123928829D01*
X86595961Y-124003112D01*
X86567900Y-124078489D01*
X86551131Y-124133239D01*
X86530973Y-124250713D01*
X86534414Y-124371625D01*
X86561545Y-124498611D01*
X86564366Y-124507900D01*
X86582014Y-124570186D01*
X86589465Y-124612004D01*
X86586664Y-124636172D01*
X86573553Y-124645511D01*
X86561644Y-124645308D01*
X86537930Y-124634685D01*
X86519208Y-124608559D01*
X86504422Y-124564183D01*
X86492518Y-124498805D01*
X86486419Y-124449262D01*
X86479289Y-124268084D01*
X86496471Y-124081299D01*
X86537795Y-123890084D01*
X86588686Y-123733200D01*
X86608258Y-123656248D01*
X86614579Y-123573030D01*
X86606974Y-123495567D01*
X86602994Y-123479144D01*
X86586895Y-123442247D01*
X86561477Y-123404576D01*
X86532541Y-123373020D01*
X86505889Y-123354469D01*
X86496102Y-123352200D01*
X86476465Y-123363900D01*
G36*
X87130307Y-124659349D02*
G01*
X87112063Y-124689553D01*
X87096887Y-124742268D01*
X87085131Y-124816555D01*
X87077145Y-124911477D01*
X87075997Y-124933592D01*
X87074575Y-125050607D01*
X87082027Y-125148303D01*
X87098122Y-125225306D01*
X87122632Y-125280241D01*
X87136802Y-125297855D01*
X87167274Y-125323934D01*
X87193497Y-125331374D01*
X87224735Y-125321037D01*
X87247325Y-125308139D01*
X87275315Y-125287614D01*
X87286454Y-125266044D01*
X87282276Y-125235896D01*
X87269132Y-125201007D01*
X87259975Y-125169079D01*
X87250496Y-125119330D01*
X87241976Y-125059293D01*
X87236994Y-125012131D01*
X87226039Y-124901276D01*
X87214884Y-124813875D01*
X87203176Y-124747984D01*
X87190557Y-124701658D01*
X87176675Y-124672952D01*
X87174599Y-124670214D01*
X87151269Y-124652590D01*
X87130307Y-124659349D01*
X87130307Y-124659349D01*
G37*
X87130307Y-124659349D02*
X87112063Y-124689553D01*
X87096887Y-124742268D01*
X87085131Y-124816555D01*
X87077145Y-124911477D01*
X87075997Y-124933592D01*
X87074575Y-125050607D01*
X87082027Y-125148303D01*
X87098122Y-125225306D01*
X87122632Y-125280241D01*
X87136802Y-125297855D01*
X87167274Y-125323934D01*
X87193497Y-125331374D01*
X87224735Y-125321037D01*
X87247325Y-125308139D01*
X87275315Y-125287614D01*
X87286454Y-125266044D01*
X87282276Y-125235896D01*
X87269132Y-125201007D01*
X87259975Y-125169079D01*
X87250496Y-125119330D01*
X87241976Y-125059293D01*
X87236994Y-125012131D01*
X87226039Y-124901276D01*
X87214884Y-124813875D01*
X87203176Y-124747984D01*
X87190557Y-124701658D01*
X87176675Y-124672952D01*
X87174599Y-124670214D01*
X87151269Y-124652590D01*
X87130307Y-124659349D01*
G36*
X92577636Y-124822120D02*
G01*
X92563247Y-124831398D01*
X92540875Y-124856407D01*
X92522133Y-124892245D01*
X92520169Y-124897770D01*
X92503411Y-124935944D01*
X92478107Y-124980542D01*
X92463491Y-125002506D01*
X92421945Y-125068351D01*
X92375616Y-125155224D01*
X92326238Y-125259603D01*
X92275547Y-125377967D01*
X92262273Y-125410834D01*
X92226677Y-125510224D01*
X92206917Y-125590645D01*
X92202879Y-125652898D01*
X92214447Y-125697782D01*
X92220148Y-125706911D01*
X92246694Y-125724766D01*
X92288494Y-125734267D01*
X92336563Y-125734648D01*
X92381914Y-125725143D01*
X92391027Y-125721473D01*
X92442650Y-125689370D01*
X92497905Y-125640550D01*
X92550476Y-125581663D01*
X92594046Y-125519363D01*
X92609155Y-125491739D01*
X92631976Y-125439158D01*
X92647518Y-125385760D01*
X92658365Y-125321554D01*
X92662481Y-125285726D01*
X92668110Y-125198255D01*
X92667694Y-125109625D01*
X92661800Y-125024885D01*
X92650995Y-124949086D01*
X92635844Y-124887278D01*
X92616915Y-124844510D01*
X92612257Y-124838105D01*
X92594335Y-124820437D01*
X92577636Y-124822120D01*
X92577636Y-124822120D01*
G37*
X92577636Y-124822120D02*
X92563247Y-124831398D01*
X92540875Y-124856407D01*
X92522133Y-124892245D01*
X92520169Y-124897770D01*
X92503411Y-124935944D01*
X92478107Y-124980542D01*
X92463491Y-125002506D01*
X92421945Y-125068351D01*
X92375616Y-125155224D01*
X92326238Y-125259603D01*
X92275547Y-125377967D01*
X92262273Y-125410834D01*
X92226677Y-125510224D01*
X92206917Y-125590645D01*
X92202879Y-125652898D01*
X92214447Y-125697782D01*
X92220148Y-125706911D01*
X92246694Y-125724766D01*
X92288494Y-125734267D01*
X92336563Y-125734648D01*
X92381914Y-125725143D01*
X92391027Y-125721473D01*
X92442650Y-125689370D01*
X92497905Y-125640550D01*
X92550476Y-125581663D01*
X92594046Y-125519363D01*
X92609155Y-125491739D01*
X92631976Y-125439158D01*
X92647518Y-125385760D01*
X92658365Y-125321554D01*
X92662481Y-125285726D01*
X92668110Y-125198255D01*
X92667694Y-125109625D01*
X92661800Y-125024885D01*
X92650995Y-124949086D01*
X92635844Y-124887278D01*
X92616915Y-124844510D01*
X92612257Y-124838105D01*
X92594335Y-124820437D01*
X92577636Y-124822120D01*
G36*
X92739806Y-124860056D02*
G01*
X92730509Y-124873025D01*
X92727499Y-124891640D01*
X92724006Y-124931783D01*
X92720263Y-124989592D01*
X92716505Y-125061206D01*
X92712965Y-125142763D01*
X92711083Y-125193700D01*
X92707479Y-125281642D01*
X92703048Y-125364085D01*
X92698110Y-125436625D01*
X92692983Y-125494861D01*
X92687987Y-125534391D01*
X92685550Y-125546078D01*
X92661553Y-125603196D01*
X92621989Y-125655688D01*
X92564713Y-125705249D01*
X92487585Y-125753574D01*
X92388460Y-125802355D01*
X92329355Y-125827705D01*
X92262370Y-125857970D01*
X92217068Y-125885445D01*
X92190323Y-125912775D01*
X92179007Y-125942610D01*
X92178100Y-125955752D01*
X92188596Y-125993255D01*
X92215852Y-126034610D01*
X92253519Y-126073588D01*
X92295248Y-126103956D01*
X92334692Y-126119484D01*
X92345745Y-126120302D01*
X92368334Y-126115076D01*
X92399799Y-126103172D01*
X92400350Y-126102928D01*
X92442960Y-126075372D01*
X92492814Y-126029119D01*
X92546461Y-125968514D01*
X92600451Y-125897897D01*
X92651334Y-125821613D01*
X92695657Y-125744003D01*
X92712282Y-125710363D01*
X92743746Y-125632700D01*
X92771984Y-125543031D01*
X92796469Y-125445405D01*
X92816673Y-125343872D01*
X92832071Y-125242483D01*
X92842135Y-125145288D01*
X92846339Y-125056337D01*
X92844154Y-124979681D01*
X92835056Y-124919368D01*
X92820074Y-124881719D01*
X92794903Y-124858703D01*
X92765211Y-124851197D01*
X92739806Y-124860056D01*
X92739806Y-124860056D01*
G37*
X92739806Y-124860056D02*
X92730509Y-124873025D01*
X92727499Y-124891640D01*
X92724006Y-124931783D01*
X92720263Y-124989592D01*
X92716505Y-125061206D01*
X92712965Y-125142763D01*
X92711083Y-125193700D01*
X92707479Y-125281642D01*
X92703048Y-125364085D01*
X92698110Y-125436625D01*
X92692983Y-125494861D01*
X92687987Y-125534391D01*
X92685550Y-125546078D01*
X92661553Y-125603196D01*
X92621989Y-125655688D01*
X92564713Y-125705249D01*
X92487585Y-125753574D01*
X92388460Y-125802355D01*
X92329355Y-125827705D01*
X92262370Y-125857970D01*
X92217068Y-125885445D01*
X92190323Y-125912775D01*
X92179007Y-125942610D01*
X92178100Y-125955752D01*
X92188596Y-125993255D01*
X92215852Y-126034610D01*
X92253519Y-126073588D01*
X92295248Y-126103956D01*
X92334692Y-126119484D01*
X92345745Y-126120302D01*
X92368334Y-126115076D01*
X92399799Y-126103172D01*
X92400350Y-126102928D01*
X92442960Y-126075372D01*
X92492814Y-126029119D01*
X92546461Y-125968514D01*
X92600451Y-125897897D01*
X92651334Y-125821613D01*
X92695657Y-125744003D01*
X92712282Y-125710363D01*
X92743746Y-125632700D01*
X92771984Y-125543031D01*
X92796469Y-125445405D01*
X92816673Y-125343872D01*
X92832071Y-125242483D01*
X92842135Y-125145288D01*
X92846339Y-125056337D01*
X92844154Y-124979681D01*
X92835056Y-124919368D01*
X92820074Y-124881719D01*
X92794903Y-124858703D01*
X92765211Y-124851197D01*
X92739806Y-124860056D01*
G36*
X92241041Y-124660599D02*
G01*
X92209763Y-124688286D01*
X92179954Y-124733780D01*
X92156190Y-124789677D01*
X92151406Y-124805587D01*
X92136795Y-124847985D01*
X92115999Y-124896239D01*
X92106980Y-124914418D01*
X92091720Y-124947119D01*
X92082808Y-124978488D01*
X92078916Y-125016728D01*
X92078713Y-125070040D01*
X92079082Y-125086631D01*
X92079736Y-125143507D01*
X92077148Y-125183930D01*
X92069620Y-125216801D01*
X92055453Y-125251022D01*
X92042882Y-125276250D01*
X92007693Y-125352728D01*
X91980142Y-125428132D01*
X91963047Y-125494291D01*
X91959644Y-125517550D01*
X91956207Y-125539620D01*
X91947132Y-125550432D01*
X91925669Y-125553244D01*
X91889205Y-125551569D01*
X91849645Y-125550298D01*
X91827748Y-125554483D01*
X91815934Y-125566768D01*
X91810581Y-125578997D01*
X91805949Y-125605739D01*
X91803950Y-125649824D01*
X91804837Y-125703306D01*
X91805951Y-125723953D01*
X91808195Y-125785265D01*
X91806418Y-125832188D01*
X91800837Y-125859561D01*
X91800201Y-125860807D01*
X91791745Y-125870867D01*
X91781367Y-125867918D01*
X91765421Y-125848959D01*
X91740911Y-125812007D01*
X91704955Y-125764138D01*
X91673183Y-125740727D01*
X91644200Y-125741454D01*
X91616610Y-125765998D01*
X91606461Y-125781075D01*
X91585856Y-125826615D01*
X91584282Y-125870204D01*
X91601748Y-125920485D01*
X91606600Y-125930300D01*
X91621354Y-125961808D01*
X91628871Y-125989018D01*
X91628765Y-126018241D01*
X91620650Y-126055783D01*
X91604140Y-126107955D01*
X91593900Y-126137793D01*
X91576914Y-126189397D01*
X91563829Y-126234063D01*
X91556611Y-126264852D01*
X91555800Y-126272201D01*
X91563860Y-126297677D01*
X91583570Y-126328564D01*
X91608232Y-126356511D01*
X91631145Y-126373167D01*
X91638111Y-126374800D01*
X91653970Y-126366009D01*
X91681382Y-126342664D01*
X91715151Y-126309304D01*
X91724728Y-126299122D01*
X91819838Y-126181798D01*
X91908350Y-126043606D01*
X91988083Y-125888690D01*
X92056857Y-125721196D01*
X92102443Y-125581197D01*
X92125158Y-125510214D01*
X92153473Y-125432589D01*
X92182503Y-125361427D01*
X92192930Y-125338332D01*
X92218490Y-125281524D01*
X92234168Y-125238795D01*
X92242147Y-125201874D01*
X92244611Y-125162489D01*
X92244521Y-125142900D01*
X92246877Y-125090062D01*
X92254327Y-125025176D01*
X92265369Y-124960722D01*
X92267793Y-124949359D01*
X92285435Y-124851141D01*
X92291738Y-124768310D01*
X92286573Y-124703748D01*
X92279821Y-124679665D01*
X92268022Y-124657144D01*
X92252816Y-124655154D01*
X92241041Y-124660599D01*
X92241041Y-124660599D01*
G37*
X92241041Y-124660599D02*
X92209763Y-124688286D01*
X92179954Y-124733780D01*
X92156190Y-124789677D01*
X92151406Y-124805587D01*
X92136795Y-124847985D01*
X92115999Y-124896239D01*
X92106980Y-124914418D01*
X92091720Y-124947119D01*
X92082808Y-124978488D01*
X92078916Y-125016728D01*
X92078713Y-125070040D01*
X92079082Y-125086631D01*
X92079736Y-125143507D01*
X92077148Y-125183930D01*
X92069620Y-125216801D01*
X92055453Y-125251022D01*
X92042882Y-125276250D01*
X92007693Y-125352728D01*
X91980142Y-125428132D01*
X91963047Y-125494291D01*
X91959644Y-125517550D01*
X91956207Y-125539620D01*
X91947132Y-125550432D01*
X91925669Y-125553244D01*
X91889205Y-125551569D01*
X91849645Y-125550298D01*
X91827748Y-125554483D01*
X91815934Y-125566768D01*
X91810581Y-125578997D01*
X91805949Y-125605739D01*
X91803950Y-125649824D01*
X91804837Y-125703306D01*
X91805951Y-125723953D01*
X91808195Y-125785265D01*
X91806418Y-125832188D01*
X91800837Y-125859561D01*
X91800201Y-125860807D01*
X91791745Y-125870867D01*
X91781367Y-125867918D01*
X91765421Y-125848959D01*
X91740911Y-125812007D01*
X91704955Y-125764138D01*
X91673183Y-125740727D01*
X91644200Y-125741454D01*
X91616610Y-125765998D01*
X91606461Y-125781075D01*
X91585856Y-125826615D01*
X91584282Y-125870204D01*
X91601748Y-125920485D01*
X91606600Y-125930300D01*
X91621354Y-125961808D01*
X91628871Y-125989018D01*
X91628765Y-126018241D01*
X91620650Y-126055783D01*
X91604140Y-126107955D01*
X91593900Y-126137793D01*
X91576914Y-126189397D01*
X91563829Y-126234063D01*
X91556611Y-126264852D01*
X91555800Y-126272201D01*
X91563860Y-126297677D01*
X91583570Y-126328564D01*
X91608232Y-126356511D01*
X91631145Y-126373167D01*
X91638111Y-126374800D01*
X91653970Y-126366009D01*
X91681382Y-126342664D01*
X91715151Y-126309304D01*
X91724728Y-126299122D01*
X91819838Y-126181798D01*
X91908350Y-126043606D01*
X91988083Y-125888690D01*
X92056857Y-125721196D01*
X92102443Y-125581197D01*
X92125158Y-125510214D01*
X92153473Y-125432589D01*
X92182503Y-125361427D01*
X92192930Y-125338332D01*
X92218490Y-125281524D01*
X92234168Y-125238795D01*
X92242147Y-125201874D01*
X92244611Y-125162489D01*
X92244521Y-125142900D01*
X92246877Y-125090062D01*
X92254327Y-125025176D01*
X92265369Y-124960722D01*
X92267793Y-124949359D01*
X92285435Y-124851141D01*
X92291738Y-124768310D01*
X92286573Y-124703748D01*
X92279821Y-124679665D01*
X92268022Y-124657144D01*
X92252816Y-124655154D01*
X92241041Y-124660599D01*
G36*
X92246796Y-121716479D02*
G01*
X92240970Y-121739436D01*
X92231038Y-121779410D01*
X92217454Y-121813543D01*
X92217377Y-121813686D01*
X92209477Y-121833720D01*
X92212208Y-121853212D01*
X92227788Y-121880299D01*
X92240425Y-121898312D01*
X92267506Y-121939990D01*
X92277671Y-121969458D01*
X92271625Y-121992804D01*
X92253655Y-122012933D01*
X92240685Y-122023354D01*
X92228796Y-122025782D01*
X92213542Y-122017671D01*
X92190477Y-121996474D01*
X92155157Y-121959643D01*
X92148720Y-121952818D01*
X92069831Y-121869131D01*
X91930291Y-121913050D01*
X91453461Y-122055776D01*
X90997000Y-122179063D01*
X90775394Y-122236791D01*
X90575177Y-122291442D01*
X90392705Y-122344233D01*
X90224332Y-122396376D01*
X90066414Y-122449087D01*
X89915305Y-122503581D01*
X89767361Y-122561072D01*
X89618936Y-122622774D01*
X89473463Y-122686714D01*
X89260703Y-122782428D01*
X89213096Y-122905389D01*
X89138720Y-123072412D01*
X89051056Y-123221025D01*
X88946672Y-123356232D01*
X88822135Y-123483032D01*
X88807620Y-123496178D01*
X88737094Y-123558428D01*
X88680192Y-123606075D01*
X88632488Y-123642384D01*
X88589555Y-123670623D01*
X88546966Y-123694056D01*
X88524766Y-123704828D01*
X88492994Y-123718960D01*
X88464796Y-123728605D01*
X88434235Y-123734584D01*
X88395372Y-123737718D01*
X88342266Y-123738827D01*
X88279200Y-123738783D01*
X88164977Y-123735274D01*
X88068753Y-123724990D01*
X87983723Y-123706616D01*
X87903080Y-123678833D01*
X87851932Y-123656132D01*
X87745324Y-123593190D01*
X87636723Y-123505275D01*
X87526474Y-123392704D01*
X87414922Y-123255797D01*
X87408900Y-123247761D01*
X87381220Y-123211266D01*
X87362030Y-123192434D01*
X87346316Y-123192198D01*
X87329066Y-123211489D01*
X87305266Y-123251239D01*
X87295183Y-123268895D01*
X87268741Y-123308895D01*
X87231584Y-123357388D01*
X87191004Y-123404949D01*
X87184113Y-123412453D01*
X87141365Y-123460883D01*
X87109621Y-123504808D01*
X87088626Y-123548049D01*
X87078125Y-123594426D01*
X87077861Y-123647761D01*
X87087580Y-123711874D01*
X87107027Y-123790588D01*
X87135946Y-123887722D01*
X87149490Y-123930647D01*
X87185883Y-124046775D01*
X87214636Y-124143190D01*
X87236817Y-124224039D01*
X87253493Y-124293470D01*
X87265731Y-124355631D01*
X87274600Y-124414668D01*
X87275094Y-124418567D01*
X87286176Y-124483588D01*
X87302797Y-124555320D01*
X87318933Y-124610553D01*
X87336851Y-124676132D01*
X87352104Y-124759114D01*
X87365270Y-124862867D01*
X87369674Y-124906633D01*
X87377003Y-124976181D01*
X87384792Y-125037094D01*
X87392343Y-125084746D01*
X87398955Y-125114511D01*
X87402210Y-125121889D01*
X87423002Y-125134870D01*
X87455069Y-125148016D01*
X87456866Y-125148605D01*
X87491411Y-125168129D01*
X87502084Y-125189575D01*
X87496241Y-125222223D01*
X87473548Y-125266683D01*
X87437130Y-125319081D01*
X87390112Y-125375540D01*
X87335621Y-125432185D01*
X87276781Y-125485140D01*
X87241024Y-125513283D01*
X87177002Y-125573072D01*
X87128195Y-125647448D01*
X87092581Y-125739906D01*
X87079482Y-125792177D01*
X87066181Y-125863420D01*
X87063382Y-125916874D01*
X87073444Y-125958807D01*
X87098723Y-125995488D01*
X87141577Y-126033185D01*
X87180905Y-126061857D01*
X87197946Y-126075550D01*
X87207769Y-126091251D01*
X87212105Y-126115660D01*
X87212689Y-126155475D01*
X87212134Y-126182507D01*
X87210747Y-126246536D01*
X87211219Y-126290159D01*
X87214960Y-126318367D01*
X87223378Y-126336151D01*
X87237881Y-126348501D01*
X87259880Y-126360407D01*
X87262776Y-126361883D01*
X87302088Y-126386090D01*
X87326120Y-126414509D01*
X87340948Y-126455797D01*
X87346207Y-126480716D01*
X87368733Y-126541484D01*
X87411179Y-126587348D01*
X87474404Y-126619164D01*
X87489725Y-126623947D01*
X87541385Y-126640526D01*
X87574727Y-126657342D01*
X87596412Y-126679227D01*
X87613104Y-126711015D01*
X87614588Y-126714525D01*
X87633119Y-126746448D01*
X87653904Y-126754242D01*
X87680413Y-126739147D01*
X87681300Y-126738381D01*
X87704202Y-126724933D01*
X87741817Y-126708846D01*
X87771200Y-126698484D01*
X87847026Y-126661934D01*
X87905922Y-126608439D01*
X87946141Y-126541415D01*
X87965941Y-126464278D01*
X87963576Y-126380443D01*
X87954364Y-126339875D01*
X87952008Y-126318798D01*
X87966510Y-126311737D01*
X87978549Y-126311300D01*
X88012572Y-126322373D01*
X88036106Y-126353028D01*
X88048469Y-126399412D01*
X88048975Y-126457675D01*
X88036940Y-126523966D01*
X88023674Y-126565300D01*
X88000941Y-126631558D01*
X87991284Y-126679611D01*
X87996368Y-126713948D01*
X88017859Y-126739056D01*
X88057423Y-126759425D01*
X88101400Y-126774751D01*
X88148294Y-126793888D01*
X88191216Y-126818329D01*
X88209350Y-126832379D01*
X88246959Y-126861633D01*
X88287942Y-126885810D01*
X88291900Y-126887646D01*
X88332786Y-126909503D01*
X88370326Y-126934960D01*
X88371428Y-126935843D01*
X88395499Y-126952747D01*
X88417441Y-126957891D01*
X88448380Y-126952850D01*
X88463685Y-126948893D01*
X88507592Y-126940755D01*
X88563311Y-126935208D01*
X88608196Y-126933600D01*
X88657595Y-126932309D01*
X88692206Y-126926348D01*
X88722597Y-126912581D01*
X88757239Y-126889376D01*
X88794618Y-126863008D01*
X88826427Y-126841292D01*
X88841175Y-126831779D01*
X88859932Y-126824696D01*
X88862459Y-126834879D01*
X88849380Y-126860590D01*
X88821322Y-126900092D01*
X88812600Y-126911215D01*
X88786164Y-126946940D01*
X88767792Y-126976587D01*
X88761800Y-126992167D01*
X88773081Y-127009940D01*
X88804862Y-127018084D01*
X88854050Y-127016378D01*
X88917552Y-127004600D01*
X88921755Y-127003567D01*
X88971850Y-126992448D01*
X89013527Y-126987769D01*
X89054947Y-126989945D01*
X89104274Y-126999394D01*
X89168200Y-127016121D01*
X89231119Y-127031756D01*
X89299204Y-127045740D01*
X89366331Y-127057132D01*
X89426378Y-127064989D01*
X89473222Y-127068369D01*
X89498379Y-127066954D01*
X89532223Y-127052042D01*
X89562519Y-127028191D01*
X89589536Y-127004605D01*
X89613704Y-126999720D01*
X89642186Y-127013890D01*
X89666234Y-127033337D01*
X89729625Y-127078355D01*
X89787602Y-127098565D01*
X89840187Y-127093972D01*
X89881260Y-127070061D01*
X89905782Y-127044097D01*
X89935786Y-127005221D01*
X89960477Y-126968525D01*
X89993191Y-126922468D01*
X90022086Y-126899696D01*
X90051814Y-126899547D01*
X90087027Y-126921357D01*
X90114641Y-126946584D01*
X90166692Y-126997669D01*
X90221493Y-126978334D01*
X90276558Y-126962698D01*
X90317690Y-126961458D01*
X90352088Y-126974917D01*
X90365466Y-126984400D01*
X90397097Y-127004023D01*
X90427255Y-127007554D01*
X90464102Y-126994784D01*
X90489327Y-126981225D01*
X90522990Y-126964154D01*
X90545307Y-126960549D01*
X90564868Y-126968525D01*
X90597314Y-126988577D01*
X90615290Y-126999711D01*
X90637967Y-127007948D01*
X90659393Y-126997265D01*
X90664768Y-126992589D01*
X90691363Y-126975088D01*
X90730610Y-126956227D01*
X90751204Y-126948205D01*
X90812850Y-126926254D01*
X90824411Y-126850552D01*
X90831128Y-126809690D01*
X90836854Y-126780321D01*
X90839832Y-126770012D01*
X90852500Y-126771860D01*
X90879496Y-126782342D01*
X90890270Y-126787277D01*
X90935790Y-126800614D01*
X90983776Y-126801996D01*
X91024342Y-126791834D01*
X91040354Y-126781034D01*
X91046877Y-126762371D01*
X91051705Y-126725109D01*
X91054046Y-126676032D01*
X91054150Y-126662861D01*
X91053284Y-126608863D01*
X91049228Y-126571320D01*
X91039802Y-126541311D01*
X91022822Y-126509910D01*
X91012875Y-126494101D01*
X90990938Y-126458591D01*
X90975969Y-126431882D01*
X90971600Y-126421313D01*
X90979578Y-126412411D01*
X91002996Y-126422631D01*
X91041087Y-126451542D01*
X91068740Y-126475917D01*
X91125948Y-126521134D01*
X91179933Y-126546671D01*
X91235032Y-126552588D01*
X91295583Y-126538948D01*
X91365923Y-126505813D01*
X91408041Y-126480752D01*
X91506255Y-126419250D01*
X91498939Y-126298600D01*
X91490813Y-126202080D01*
X91479418Y-126122889D01*
X91465232Y-126063257D01*
X91448735Y-126025414D01*
X91437964Y-126014118D01*
X91414478Y-126009763D01*
X91398223Y-126027873D01*
X91391069Y-126066089D01*
X91390895Y-126073582D01*
X91386199Y-126108400D01*
X91374703Y-126145824D01*
X91359791Y-126177614D01*
X91344843Y-126195531D01*
X91340234Y-126197000D01*
X91324557Y-126184878D01*
X91310315Y-126150828D01*
X91298725Y-126098317D01*
X91294285Y-126066050D01*
X91291259Y-126032537D01*
X91293343Y-126007605D01*
X91303430Y-125983854D01*
X91324414Y-125953885D01*
X91351415Y-125919933D01*
X91381782Y-125879614D01*
X91404501Y-125844383D01*
X91415605Y-125820544D01*
X91416100Y-125817136D01*
X91421586Y-125797451D01*
X91432964Y-125769314D01*
X90410105Y-125769314D01*
X90396371Y-125784405D01*
X90367202Y-125790600D01*
X90340189Y-125796304D01*
X90329386Y-125815442D01*
X90333943Y-125851050D01*
X90342593Y-125878487D01*
X90354540Y-125917776D01*
X90361376Y-125950774D01*
X90362000Y-125958937D01*
X90359913Y-125972880D01*
X90349728Y-125979361D01*
X90325562Y-125979714D01*
X90287134Y-125975910D01*
X90240933Y-125968994D01*
X90180267Y-125957608D01*
X90115241Y-125943715D01*
X90086044Y-125936876D01*
X90017996Y-125918736D01*
X89945680Y-125896791D01*
X89881387Y-125874848D01*
X89862130Y-125867506D01*
X89797724Y-125844282D01*
X89744548Y-125832395D01*
X89692781Y-125831175D01*
X89632602Y-125839954D01*
X89591264Y-125849061D01*
X89502490Y-125862483D01*
X89408974Y-125861148D01*
X89307236Y-125844477D01*
X89193796Y-125811891D01*
X89065173Y-125762811D01*
X89060227Y-125760734D01*
X89016691Y-125745229D01*
X88964163Y-125732368D01*
X88897486Y-125721145D01*
X88811503Y-125710552D01*
X88793527Y-125708629D01*
X88709490Y-125698591D01*
X88618209Y-125685695D01*
X88530229Y-125671542D01*
X88456100Y-125657734D01*
X88450650Y-125656601D01*
X88378471Y-125641593D01*
X88302976Y-125626160D01*
X88234413Y-125612384D01*
X88193833Y-125604416D01*
X88089415Y-125584254D01*
X87958008Y-125662027D01*
X87884184Y-125703431D01*
X87828747Y-125729511D01*
X87792042Y-125740264D01*
X87774415Y-125735686D01*
X87776210Y-125715774D01*
X87797774Y-125680524D01*
X87810948Y-125663450D01*
X87848195Y-125598512D01*
X87865393Y-125540369D01*
X87875139Y-125498155D01*
X87886036Y-125473920D01*
X87902671Y-125460477D01*
X87920905Y-125453405D01*
X87962871Y-125434659D01*
X87982984Y-125415129D01*
X87981004Y-125398080D01*
X87956690Y-125386775D01*
X87926026Y-125384026D01*
X87873744Y-125380475D01*
X87837921Y-125371033D01*
X87822584Y-125356859D01*
X87822301Y-125354143D01*
X87829161Y-125338115D01*
X87847424Y-125306365D01*
X87874016Y-125264046D01*
X87895326Y-125231800D01*
X87968050Y-125123850D01*
X88190300Y-125117044D01*
X88264288Y-125114227D01*
X88330530Y-125110672D01*
X88384389Y-125106710D01*
X88421226Y-125102669D01*
X88435365Y-125099584D01*
X88454109Y-125082552D01*
X88476522Y-125050982D01*
X88488211Y-125030190D01*
X88511958Y-124989723D01*
X88541630Y-124947414D01*
X88572729Y-124908749D01*
X88600752Y-124879218D01*
X88621199Y-124864307D01*
X88624914Y-124863500D01*
X88631988Y-124875540D01*
X88633057Y-124911832D01*
X88630256Y-124951639D01*
X88627550Y-124996267D01*
X88628202Y-125030033D01*
X88632057Y-125045924D01*
X88632317Y-125046114D01*
X88654683Y-125046329D01*
X88683764Y-125028691D01*
X88713981Y-124997575D01*
X88735749Y-124964976D01*
X88752962Y-124927677D01*
X88763825Y-124886285D01*
X88770177Y-124832345D01*
X88772284Y-124797048D01*
X88777607Y-124685700D01*
X88645131Y-124685700D01*
X88573942Y-124685288D01*
X88524639Y-124681498D01*
X88493714Y-124670498D01*
X88477657Y-124648453D01*
X88472959Y-124611531D01*
X88476112Y-124555899D01*
X88480867Y-124506276D01*
X88486543Y-124446471D01*
X88491145Y-124394812D01*
X88494161Y-124357234D01*
X88495100Y-124340478D01*
X88501225Y-124328439D01*
X88522693Y-124320621D01*
X88564153Y-124315494D01*
X88573007Y-124314817D01*
X88623917Y-124308480D01*
X88655012Y-124297417D01*
X88668257Y-124285463D01*
X88679717Y-124254937D01*
X88684978Y-124210051D01*
X88684110Y-124161017D01*
X88677181Y-124118046D01*
X88666954Y-124094402D01*
X88650310Y-124062259D01*
X88654404Y-124032333D01*
X88680353Y-123998705D01*
X88686062Y-123993107D01*
X88714209Y-123970922D01*
X88736852Y-123966831D01*
X88757190Y-123982660D01*
X88778417Y-124020237D01*
X88793008Y-124054222D01*
X88837235Y-124140731D01*
X88894688Y-124218896D01*
X88960761Y-124283710D01*
X89030846Y-124330167D01*
X89057902Y-124342090D01*
X89100761Y-124351256D01*
X89159692Y-124354945D01*
X89226011Y-124353368D01*
X89291035Y-124346738D01*
X89346081Y-124335266D01*
X89346870Y-124335033D01*
X89439754Y-124300886D01*
X89524006Y-124254494D01*
X89609048Y-124190616D01*
X89613993Y-124186443D01*
X89679901Y-124133345D01*
X89732541Y-124098504D01*
X89775350Y-124081046D01*
X89811768Y-124080095D01*
X89845236Y-124094777D01*
X89875115Y-124120074D01*
X89902650Y-124151288D01*
X89914441Y-124178180D01*
X89915171Y-124211528D01*
X89915120Y-124212149D01*
X89911150Y-124260250D01*
X89801904Y-124266600D01*
X89740150Y-124271674D01*
X89697917Y-124280254D01*
X89669338Y-124295182D01*
X89648541Y-124319302D01*
X89632920Y-124348478D01*
X89614197Y-124406817D01*
X89617703Y-124455074D01*
X89643328Y-124491982D01*
X89645806Y-124493997D01*
X89694899Y-124525606D01*
X89757782Y-124556604D01*
X89823229Y-124581992D01*
X89874545Y-124595823D01*
X89932217Y-124614989D01*
X89968357Y-124647153D01*
X89983135Y-124692702D01*
X89976718Y-124752024D01*
X89961775Y-124796872D01*
X89926981Y-124858131D01*
X89880555Y-124896918D01*
X89822060Y-124913560D01*
X89804766Y-124914300D01*
X89755956Y-124918787D01*
X89727427Y-124934104D01*
X89715369Y-124963030D01*
X89714300Y-124980340D01*
X89710645Y-125008323D01*
X89699485Y-125012676D01*
X89680533Y-124993274D01*
X89656674Y-124955575D01*
X89622521Y-124902269D01*
X89588573Y-124860078D01*
X89558587Y-124833162D01*
X89539127Y-124825400D01*
X89519112Y-124832838D01*
X89488809Y-124851712D01*
X89472570Y-124863841D01*
X89433610Y-124890422D01*
X89393867Y-124911173D01*
X89381842Y-124915730D01*
X89320783Y-124937570D01*
X89280641Y-124959526D01*
X89257290Y-124985956D01*
X89246606Y-125021219D01*
X89244400Y-125060947D01*
X89247319Y-125089969D01*
X89259039Y-125102813D01*
X89284002Y-125100751D01*
X89326655Y-125085054D01*
X89327453Y-125084721D01*
X89381568Y-125071631D01*
X89430567Y-125076815D01*
X89469476Y-125097996D01*
X89493324Y-125132893D01*
X89498400Y-125163063D01*
X89508423Y-125197200D01*
X89533492Y-125233425D01*
X89566115Y-125262120D01*
X89581954Y-125270281D01*
X89609607Y-125289053D01*
X89633120Y-125316958D01*
X89670393Y-125375745D01*
X89699334Y-125415856D01*
X89723251Y-125441189D01*
X89745451Y-125455644D01*
X89753508Y-125458883D01*
X89787929Y-125475224D01*
X89826340Y-125499355D01*
X89834099Y-125505061D01*
X89865096Y-125525627D01*
X89887027Y-125530376D01*
X89903373Y-125524663D01*
X89921031Y-125519293D01*
X89939542Y-125526025D01*
X89965396Y-125547985D01*
X89978222Y-125560694D01*
X90011922Y-125591045D01*
X90043951Y-125608127D01*
X90086159Y-125617606D01*
X90101646Y-125619698D01*
X90150806Y-125628728D01*
X90187528Y-125644877D01*
X90224750Y-125674105D01*
X90229891Y-125678799D01*
X90271768Y-125712118D01*
X90310296Y-125729008D01*
X90337536Y-125733535D01*
X90373805Y-125739327D01*
X90399268Y-125747832D01*
X90403394Y-125750713D01*
X90410105Y-125769314D01*
X91432964Y-125769314D01*
X91436524Y-125760511D01*
X91458638Y-125711592D01*
X91485651Y-125655968D01*
X91485835Y-125655601D01*
X91517789Y-125588482D01*
X91549152Y-125516483D01*
X91578024Y-125444652D01*
X91602502Y-125378038D01*
X91620686Y-125321689D01*
X91630674Y-125280655D01*
X91632000Y-125267517D01*
X91623144Y-125248806D01*
X91596834Y-125247947D01*
X91553458Y-125264717D01*
X91493404Y-125298889D01*
X91417059Y-125350238D01*
X91324811Y-125418538D01*
X91217047Y-125503564D01*
X91194161Y-125522153D01*
X91145286Y-125561072D01*
X91102604Y-125593293D01*
X91070348Y-125615744D01*
X91052751Y-125625353D01*
X91051733Y-125625500D01*
X91031970Y-125614039D01*
X91016819Y-125584567D01*
X91009827Y-125544452D01*
X91009700Y-125538202D01*
X91016464Y-125505353D01*
X91034847Y-125457203D01*
X91061985Y-125399317D01*
X91095017Y-125337261D01*
X91131079Y-125276601D01*
X91167308Y-125222902D01*
X91181449Y-125204310D01*
X91226189Y-125154700D01*
X91275334Y-125111012D01*
X91323449Y-125077268D01*
X91365096Y-125057490D01*
X91384633Y-125054000D01*
X91437466Y-125044821D01*
X91488829Y-125015805D01*
X91542486Y-124964731D01*
X91549378Y-124956876D01*
X91593410Y-124913020D01*
X91654494Y-124862390D01*
X91726968Y-124809577D01*
X91751364Y-124793148D01*
X91807397Y-124755141D01*
X91858517Y-124718642D01*
X91899408Y-124687566D01*
X91924753Y-124665833D01*
X91926273Y-124664277D01*
X91945417Y-124638420D01*
X91960760Y-124603631D01*
X91972811Y-124556931D01*
X91982081Y-124495341D01*
X91989078Y-124415884D01*
X91994313Y-124315580D01*
X91996518Y-124253900D01*
X91998829Y-124170817D01*
X91999594Y-124108723D01*
X91998572Y-124063241D01*
X91995525Y-124029993D01*
X91990214Y-124004602D01*
X91982400Y-123982691D01*
X91981613Y-123980850D01*
X91959504Y-123926618D01*
X91948078Y-123886683D01*
X91946567Y-123852665D01*
X91954204Y-123816188D01*
X91963827Y-123786854D01*
X91975024Y-123751225D01*
X91981731Y-123717542D01*
X91981731Y-123717534D01*
X91713375Y-123717534D01*
X91701546Y-123788225D01*
X91674928Y-123863291D01*
X91635604Y-123936467D01*
X91598952Y-123986427D01*
X91572782Y-124012951D01*
X91549179Y-124022317D01*
X91525223Y-124020652D01*
X91499957Y-124018035D01*
X91454277Y-124014951D01*
X91393158Y-124011674D01*
X91321575Y-124008472D01*
X91257350Y-124006052D01*
X91108643Y-123998699D01*
X90983672Y-123987599D01*
X90881023Y-123972543D01*
X90799280Y-123953325D01*
X90737029Y-123929737D01*
X90736842Y-123929646D01*
X90673150Y-123898520D01*
X90723950Y-123904640D01*
X90810577Y-123914377D01*
X90874428Y-123919850D01*
X90917749Y-123921144D01*
X90942791Y-123918347D01*
X90951061Y-123913410D01*
X90947560Y-123897572D01*
X90926842Y-123876173D01*
X90895013Y-123853712D01*
X90858178Y-123834686D01*
X90831900Y-123825619D01*
X90800990Y-123814125D01*
X90787231Y-123795357D01*
X90783503Y-123774173D01*
X90781844Y-123757320D01*
X90778054Y-123745387D01*
X90768054Y-123736761D01*
X90747765Y-123729826D01*
X90713106Y-123722968D01*
X90659999Y-123714572D01*
X90616000Y-123707884D01*
X90572427Y-123701421D01*
X90539285Y-123696844D01*
X90524367Y-123695195D01*
X90510224Y-123687437D01*
X90484723Y-123667874D01*
X90470270Y-123655576D01*
X90443196Y-123634624D01*
X90414763Y-123620973D01*
X90376928Y-123611844D01*
X90322541Y-123604561D01*
X90263340Y-123596119D01*
X90216009Y-123585852D01*
X90184518Y-123574931D01*
X90172836Y-123564526D01*
X90174470Y-123560897D01*
X90191840Y-123554288D01*
X90229413Y-123546069D01*
X90282099Y-123536933D01*
X90344805Y-123527578D01*
X90412442Y-123518697D01*
X90479917Y-123510988D01*
X90542139Y-123505145D01*
X90594017Y-123501865D01*
X90609650Y-123501439D01*
X90678901Y-123501970D01*
X90734761Y-123506764D01*
X90789105Y-123517497D01*
X90853812Y-123535847D01*
X90854213Y-123535971D01*
X90905343Y-123550631D01*
X90947115Y-123560592D01*
X90973844Y-123564604D01*
X90980288Y-123563646D01*
X90979388Y-123548795D01*
X90960836Y-123525911D01*
X90929340Y-123499013D01*
X90889606Y-123472121D01*
X90846342Y-123449253D01*
X90846272Y-123449222D01*
X90712400Y-123402079D01*
X90576289Y-123379175D01*
X90440461Y-123380703D01*
X90307437Y-123406856D01*
X90304139Y-123407836D01*
X90256318Y-123420995D01*
X90217645Y-123429464D01*
X90194613Y-123431895D01*
X90191641Y-123431199D01*
X90187182Y-123418831D01*
X90203533Y-123401889D01*
X90236859Y-123381939D01*
X90283322Y-123360547D01*
X90339087Y-123339278D01*
X90400317Y-123319698D01*
X90463176Y-123303372D01*
X90523827Y-123291868D01*
X90537610Y-123290000D01*
X90615039Y-123283997D01*
X90686684Y-123287116D01*
X90757132Y-123300752D01*
X90830969Y-123326302D01*
X90912781Y-123365160D01*
X91007156Y-123418723D01*
X91053079Y-123446833D01*
X91102993Y-123476294D01*
X91147559Y-123499708D01*
X91180881Y-123514130D01*
X91194241Y-123517300D01*
X91228571Y-123508003D01*
X91261364Y-123485040D01*
X91283967Y-123455799D01*
X91289100Y-123436314D01*
X91282470Y-123409501D01*
X91265562Y-123372601D01*
X91253183Y-123351336D01*
X91190649Y-123273585D01*
X91108535Y-123202832D01*
X91012328Y-123141973D01*
X90907515Y-123093902D01*
X90799582Y-123061515D01*
X90694015Y-123047708D01*
X90677261Y-123047416D01*
X90572440Y-123055348D01*
X90454399Y-123077902D01*
X90329287Y-123113269D01*
X90203255Y-123159639D01*
X90082450Y-123215201D01*
X90051290Y-123231673D01*
X89974355Y-123269203D01*
X89910335Y-123291262D01*
X89883584Y-123296136D01*
X89839388Y-123299167D01*
X89812561Y-123295140D01*
X89802541Y-123281196D01*
X89808767Y-123254472D01*
X89830677Y-123212108D01*
X89858153Y-123166592D01*
X89903230Y-123096968D01*
X89941687Y-123046082D01*
X89977844Y-123009752D01*
X90016025Y-122983794D01*
X90060551Y-122964024D01*
X90071427Y-122960159D01*
X90123473Y-122941043D01*
X90169505Y-122920731D01*
X90216984Y-122895385D01*
X90273371Y-122861171D01*
X90312030Y-122836442D01*
X90418122Y-122773034D01*
X90509532Y-122729532D01*
X90585995Y-122706048D01*
X90628510Y-122701569D01*
X90654353Y-122703326D01*
X90684396Y-122709329D01*
X90721371Y-122720674D01*
X90768009Y-122738458D01*
X90827043Y-122763777D01*
X90901203Y-122797727D01*
X90993222Y-122841404D01*
X91073200Y-122880041D01*
X91191771Y-122949521D01*
X91292895Y-123033503D01*
X91374849Y-123129852D01*
X91435905Y-123236437D01*
X91474340Y-123351123D01*
X91480739Y-123383950D01*
X91490889Y-123438653D01*
X91501511Y-123473422D01*
X91515789Y-123493579D01*
X91536907Y-123504445D01*
X91555587Y-123509002D01*
X91598343Y-123527433D01*
X91642768Y-123561996D01*
X91681167Y-123605212D01*
X91705846Y-123649602D01*
X91708331Y-123657485D01*
X91713375Y-123717534D01*
X91981731Y-123717534D01*
X91984485Y-123678813D01*
X91983827Y-123628042D01*
X91980789Y-123566749D01*
X91972313Y-123419349D01*
X92017618Y-123316306D01*
X92034059Y-123275248D01*
X92053300Y-123221611D01*
X92073500Y-123161262D01*
X92092821Y-123100066D01*
X92109421Y-123043889D01*
X92121461Y-122998596D01*
X92127101Y-122970055D01*
X92127300Y-122966653D01*
X92134522Y-122954935D01*
X92152953Y-122930182D01*
X92166749Y-122912621D01*
X92187964Y-122884048D01*
X92199127Y-122859700D01*
X92202607Y-122830134D01*
X92200776Y-122785910D01*
X92200299Y-122778991D01*
X92200156Y-122706550D01*
X92212260Y-122653730D01*
X92237911Y-122617232D01*
X92272330Y-122596157D01*
X92323621Y-122585575D01*
X92367646Y-122599082D01*
X92398539Y-122629568D01*
X92412014Y-122658532D01*
X92403550Y-122675109D01*
X92381910Y-122679100D01*
X92356543Y-122689634D01*
X92344445Y-122721319D01*
X92345620Y-122774280D01*
X92360071Y-122848641D01*
X92387800Y-122944526D01*
X92388462Y-122946578D01*
X92409850Y-123016968D01*
X92423506Y-123070994D01*
X92429410Y-123107222D01*
X92427540Y-123124218D01*
X92417875Y-123120546D01*
X92400393Y-123094772D01*
X92390411Y-123076431D01*
X92357595Y-123023571D01*
X92327243Y-122995876D01*
X92299229Y-122993245D01*
X92292402Y-122996599D01*
X92287109Y-123004596D01*
X92286695Y-123021430D01*
X92291858Y-123050274D01*
X92303293Y-123094298D01*
X92321695Y-123156676D01*
X92341655Y-123221137D01*
X92372171Y-123318014D01*
X92396445Y-123393545D01*
X92415594Y-123450698D01*
X92430734Y-123492437D01*
X92442980Y-123521729D01*
X92453449Y-123541541D01*
X92463257Y-123554838D01*
X92469627Y-123561231D01*
X92488220Y-123574047D01*
X92503305Y-123567326D01*
X92511541Y-123558677D01*
X92522283Y-123537697D01*
X92536121Y-123497813D01*
X92551162Y-123445027D01*
X92563704Y-123393486D01*
X92582088Y-123314875D01*
X92597968Y-123257360D01*
X92613405Y-123217052D01*
X92630462Y-123190060D01*
X92651201Y-123172495D01*
X92677686Y-123160466D01*
X92689275Y-123156664D01*
X92701457Y-123148465D01*
X92708333Y-123129550D01*
X92711264Y-123094265D01*
X92711695Y-123063673D01*
X92714907Y-123003963D01*
X92723292Y-122964713D01*
X92735441Y-122946958D01*
X92749947Y-122951736D01*
X92765403Y-122980082D01*
X92776418Y-123016019D01*
X92793071Y-123063236D01*
X92813204Y-123089759D01*
X92835027Y-123093457D01*
X92839563Y-123091193D01*
X92845836Y-123074390D01*
X92848546Y-123037216D01*
X92847998Y-122984403D01*
X92844493Y-122920686D01*
X92838334Y-122850797D01*
X92829824Y-122779470D01*
X92819265Y-122711437D01*
X92813255Y-122679852D01*
X92785060Y-122569403D01*
X92750601Y-122483124D01*
X92709643Y-122420511D01*
X92681419Y-122393761D01*
X92641593Y-122370562D01*
X92599550Y-122363707D01*
X92546638Y-122372119D01*
X92534329Y-122375442D01*
X92516742Y-122367576D01*
X92494265Y-122336847D01*
X92483529Y-122317150D01*
X92450079Y-122265865D01*
X92412412Y-122236641D01*
X92409875Y-122235483D01*
X92377989Y-122216054D01*
X92370979Y-122198069D01*
X92388734Y-122183399D01*
X92413395Y-122176547D01*
X92452610Y-122163676D01*
X92472018Y-122141573D01*
X92472498Y-122107194D01*
X92454931Y-122057496D01*
X92450543Y-122048001D01*
X92429800Y-121997080D01*
X92422449Y-121957038D01*
X92424255Y-121929939D01*
X92421682Y-121881701D01*
X92403215Y-121825926D01*
X92372724Y-121771035D01*
X92334074Y-121725451D01*
X92327820Y-121719942D01*
X92290769Y-121695690D01*
X92264012Y-121694479D01*
X92246796Y-121716479D01*
X92246796Y-121716479D01*
G37*
X92246796Y-121716479D02*
X92240970Y-121739436D01*
X92231038Y-121779410D01*
X92217454Y-121813543D01*
X92217377Y-121813686D01*
X92209477Y-121833720D01*
X92212208Y-121853212D01*
X92227788Y-121880299D01*
X92240425Y-121898312D01*
X92267506Y-121939990D01*
X92277671Y-121969458D01*
X92271625Y-121992804D01*
X92253655Y-122012933D01*
X92240685Y-122023354D01*
X92228796Y-122025782D01*
X92213542Y-122017671D01*
X92190477Y-121996474D01*
X92155157Y-121959643D01*
X92148720Y-121952818D01*
X92069831Y-121869131D01*
X91930291Y-121913050D01*
X91453461Y-122055776D01*
X90997000Y-122179063D01*
X90775394Y-122236791D01*
X90575177Y-122291442D01*
X90392705Y-122344233D01*
X90224332Y-122396376D01*
X90066414Y-122449087D01*
X89915305Y-122503581D01*
X89767361Y-122561072D01*
X89618936Y-122622774D01*
X89473463Y-122686714D01*
X89260703Y-122782428D01*
X89213096Y-122905389D01*
X89138720Y-123072412D01*
X89051056Y-123221025D01*
X88946672Y-123356232D01*
X88822135Y-123483032D01*
X88807620Y-123496178D01*
X88737094Y-123558428D01*
X88680192Y-123606075D01*
X88632488Y-123642384D01*
X88589555Y-123670623D01*
X88546966Y-123694056D01*
X88524766Y-123704828D01*
X88492994Y-123718960D01*
X88464796Y-123728605D01*
X88434235Y-123734584D01*
X88395372Y-123737718D01*
X88342266Y-123738827D01*
X88279200Y-123738783D01*
X88164977Y-123735274D01*
X88068753Y-123724990D01*
X87983723Y-123706616D01*
X87903080Y-123678833D01*
X87851932Y-123656132D01*
X87745324Y-123593190D01*
X87636723Y-123505275D01*
X87526474Y-123392704D01*
X87414922Y-123255797D01*
X87408900Y-123247761D01*
X87381220Y-123211266D01*
X87362030Y-123192434D01*
X87346316Y-123192198D01*
X87329066Y-123211489D01*
X87305266Y-123251239D01*
X87295183Y-123268895D01*
X87268741Y-123308895D01*
X87231584Y-123357388D01*
X87191004Y-123404949D01*
X87184113Y-123412453D01*
X87141365Y-123460883D01*
X87109621Y-123504808D01*
X87088626Y-123548049D01*
X87078125Y-123594426D01*
X87077861Y-123647761D01*
X87087580Y-123711874D01*
X87107027Y-123790588D01*
X87135946Y-123887722D01*
X87149490Y-123930647D01*
X87185883Y-124046775D01*
X87214636Y-124143190D01*
X87236817Y-124224039D01*
X87253493Y-124293470D01*
X87265731Y-124355631D01*
X87274600Y-124414668D01*
X87275094Y-124418567D01*
X87286176Y-124483588D01*
X87302797Y-124555320D01*
X87318933Y-124610553D01*
X87336851Y-124676132D01*
X87352104Y-124759114D01*
X87365270Y-124862867D01*
X87369674Y-124906633D01*
X87377003Y-124976181D01*
X87384792Y-125037094D01*
X87392343Y-125084746D01*
X87398955Y-125114511D01*
X87402210Y-125121889D01*
X87423002Y-125134870D01*
X87455069Y-125148016D01*
X87456866Y-125148605D01*
X87491411Y-125168129D01*
X87502084Y-125189575D01*
X87496241Y-125222223D01*
X87473548Y-125266683D01*
X87437130Y-125319081D01*
X87390112Y-125375540D01*
X87335621Y-125432185D01*
X87276781Y-125485140D01*
X87241024Y-125513283D01*
X87177002Y-125573072D01*
X87128195Y-125647448D01*
X87092581Y-125739906D01*
X87079482Y-125792177D01*
X87066181Y-125863420D01*
X87063382Y-125916874D01*
X87073444Y-125958807D01*
X87098723Y-125995488D01*
X87141577Y-126033185D01*
X87180905Y-126061857D01*
X87197946Y-126075550D01*
X87207769Y-126091251D01*
X87212105Y-126115660D01*
X87212689Y-126155475D01*
X87212134Y-126182507D01*
X87210747Y-126246536D01*
X87211219Y-126290159D01*
X87214960Y-126318367D01*
X87223378Y-126336151D01*
X87237881Y-126348501D01*
X87259880Y-126360407D01*
X87262776Y-126361883D01*
X87302088Y-126386090D01*
X87326120Y-126414509D01*
X87340948Y-126455797D01*
X87346207Y-126480716D01*
X87368733Y-126541484D01*
X87411179Y-126587348D01*
X87474404Y-126619164D01*
X87489725Y-126623947D01*
X87541385Y-126640526D01*
X87574727Y-126657342D01*
X87596412Y-126679227D01*
X87613104Y-126711015D01*
X87614588Y-126714525D01*
X87633119Y-126746448D01*
X87653904Y-126754242D01*
X87680413Y-126739147D01*
X87681300Y-126738381D01*
X87704202Y-126724933D01*
X87741817Y-126708846D01*
X87771200Y-126698484D01*
X87847026Y-126661934D01*
X87905922Y-126608439D01*
X87946141Y-126541415D01*
X87965941Y-126464278D01*
X87963576Y-126380443D01*
X87954364Y-126339875D01*
X87952008Y-126318798D01*
X87966510Y-126311737D01*
X87978549Y-126311300D01*
X88012572Y-126322373D01*
X88036106Y-126353028D01*
X88048469Y-126399412D01*
X88048975Y-126457675D01*
X88036940Y-126523966D01*
X88023674Y-126565300D01*
X88000941Y-126631558D01*
X87991284Y-126679611D01*
X87996368Y-126713948D01*
X88017859Y-126739056D01*
X88057423Y-126759425D01*
X88101400Y-126774751D01*
X88148294Y-126793888D01*
X88191216Y-126818329D01*
X88209350Y-126832379D01*
X88246959Y-126861633D01*
X88287942Y-126885810D01*
X88291900Y-126887646D01*
X88332786Y-126909503D01*
X88370326Y-126934960D01*
X88371428Y-126935843D01*
X88395499Y-126952747D01*
X88417441Y-126957891D01*
X88448380Y-126952850D01*
X88463685Y-126948893D01*
X88507592Y-126940755D01*
X88563311Y-126935208D01*
X88608196Y-126933600D01*
X88657595Y-126932309D01*
X88692206Y-126926348D01*
X88722597Y-126912581D01*
X88757239Y-126889376D01*
X88794618Y-126863008D01*
X88826427Y-126841292D01*
X88841175Y-126831779D01*
X88859932Y-126824696D01*
X88862459Y-126834879D01*
X88849380Y-126860590D01*
X88821322Y-126900092D01*
X88812600Y-126911215D01*
X88786164Y-126946940D01*
X88767792Y-126976587D01*
X88761800Y-126992167D01*
X88773081Y-127009940D01*
X88804862Y-127018084D01*
X88854050Y-127016378D01*
X88917552Y-127004600D01*
X88921755Y-127003567D01*
X88971850Y-126992448D01*
X89013527Y-126987769D01*
X89054947Y-126989945D01*
X89104274Y-126999394D01*
X89168200Y-127016121D01*
X89231119Y-127031756D01*
X89299204Y-127045740D01*
X89366331Y-127057132D01*
X89426378Y-127064989D01*
X89473222Y-127068369D01*
X89498379Y-127066954D01*
X89532223Y-127052042D01*
X89562519Y-127028191D01*
X89589536Y-127004605D01*
X89613704Y-126999720D01*
X89642186Y-127013890D01*
X89666234Y-127033337D01*
X89729625Y-127078355D01*
X89787602Y-127098565D01*
X89840187Y-127093972D01*
X89881260Y-127070061D01*
X89905782Y-127044097D01*
X89935786Y-127005221D01*
X89960477Y-126968525D01*
X89993191Y-126922468D01*
X90022086Y-126899696D01*
X90051814Y-126899547D01*
X90087027Y-126921357D01*
X90114641Y-126946584D01*
X90166692Y-126997669D01*
X90221493Y-126978334D01*
X90276558Y-126962698D01*
X90317690Y-126961458D01*
X90352088Y-126974917D01*
X90365466Y-126984400D01*
X90397097Y-127004023D01*
X90427255Y-127007554D01*
X90464102Y-126994784D01*
X90489327Y-126981225D01*
X90522990Y-126964154D01*
X90545307Y-126960549D01*
X90564868Y-126968525D01*
X90597314Y-126988577D01*
X90615290Y-126999711D01*
X90637967Y-127007948D01*
X90659393Y-126997265D01*
X90664768Y-126992589D01*
X90691363Y-126975088D01*
X90730610Y-126956227D01*
X90751204Y-126948205D01*
X90812850Y-126926254D01*
X90824411Y-126850552D01*
X90831128Y-126809690D01*
X90836854Y-126780321D01*
X90839832Y-126770012D01*
X90852500Y-126771860D01*
X90879496Y-126782342D01*
X90890270Y-126787277D01*
X90935790Y-126800614D01*
X90983776Y-126801996D01*
X91024342Y-126791834D01*
X91040354Y-126781034D01*
X91046877Y-126762371D01*
X91051705Y-126725109D01*
X91054046Y-126676032D01*
X91054150Y-126662861D01*
X91053284Y-126608863D01*
X91049228Y-126571320D01*
X91039802Y-126541311D01*
X91022822Y-126509910D01*
X91012875Y-126494101D01*
X90990938Y-126458591D01*
X90975969Y-126431882D01*
X90971600Y-126421313D01*
X90979578Y-126412411D01*
X91002996Y-126422631D01*
X91041087Y-126451542D01*
X91068740Y-126475917D01*
X91125948Y-126521134D01*
X91179933Y-126546671D01*
X91235032Y-126552588D01*
X91295583Y-126538948D01*
X91365923Y-126505813D01*
X91408041Y-126480752D01*
X91506255Y-126419250D01*
X91498939Y-126298600D01*
X91490813Y-126202080D01*
X91479418Y-126122889D01*
X91465232Y-126063257D01*
X91448735Y-126025414D01*
X91437964Y-126014118D01*
X91414478Y-126009763D01*
X91398223Y-126027873D01*
X91391069Y-126066089D01*
X91390895Y-126073582D01*
X91386199Y-126108400D01*
X91374703Y-126145824D01*
X91359791Y-126177614D01*
X91344843Y-126195531D01*
X91340234Y-126197000D01*
X91324557Y-126184878D01*
X91310315Y-126150828D01*
X91298725Y-126098317D01*
X91294285Y-126066050D01*
X91291259Y-126032537D01*
X91293343Y-126007605D01*
X91303430Y-125983854D01*
X91324414Y-125953885D01*
X91351415Y-125919933D01*
X91381782Y-125879614D01*
X91404501Y-125844383D01*
X91415605Y-125820544D01*
X91416100Y-125817136D01*
X91421586Y-125797451D01*
X91432964Y-125769314D01*
X90410105Y-125769314D01*
X90396371Y-125784405D01*
X90367202Y-125790600D01*
X90340189Y-125796304D01*
X90329386Y-125815442D01*
X90333943Y-125851050D01*
X90342593Y-125878487D01*
X90354540Y-125917776D01*
X90361376Y-125950774D01*
X90362000Y-125958937D01*
X90359913Y-125972880D01*
X90349728Y-125979361D01*
X90325562Y-125979714D01*
X90287134Y-125975910D01*
X90240933Y-125968994D01*
X90180267Y-125957608D01*
X90115241Y-125943715D01*
X90086044Y-125936876D01*
X90017996Y-125918736D01*
X89945680Y-125896791D01*
X89881387Y-125874848D01*
X89862130Y-125867506D01*
X89797724Y-125844282D01*
X89744548Y-125832395D01*
X89692781Y-125831175D01*
X89632602Y-125839954D01*
X89591264Y-125849061D01*
X89502490Y-125862483D01*
X89408974Y-125861148D01*
X89307236Y-125844477D01*
X89193796Y-125811891D01*
X89065173Y-125762811D01*
X89060227Y-125760734D01*
X89016691Y-125745229D01*
X88964163Y-125732368D01*
X88897486Y-125721145D01*
X88811503Y-125710552D01*
X88793527Y-125708629D01*
X88709490Y-125698591D01*
X88618209Y-125685695D01*
X88530229Y-125671542D01*
X88456100Y-125657734D01*
X88450650Y-125656601D01*
X88378471Y-125641593D01*
X88302976Y-125626160D01*
X88234413Y-125612384D01*
X88193833Y-125604416D01*
X88089415Y-125584254D01*
X87958008Y-125662027D01*
X87884184Y-125703431D01*
X87828747Y-125729511D01*
X87792042Y-125740264D01*
X87774415Y-125735686D01*
X87776210Y-125715774D01*
X87797774Y-125680524D01*
X87810948Y-125663450D01*
X87848195Y-125598512D01*
X87865393Y-125540369D01*
X87875139Y-125498155D01*
X87886036Y-125473920D01*
X87902671Y-125460477D01*
X87920905Y-125453405D01*
X87962871Y-125434659D01*
X87982984Y-125415129D01*
X87981004Y-125398080D01*
X87956690Y-125386775D01*
X87926026Y-125384026D01*
X87873744Y-125380475D01*
X87837921Y-125371033D01*
X87822584Y-125356859D01*
X87822301Y-125354143D01*
X87829161Y-125338115D01*
X87847424Y-125306365D01*
X87874016Y-125264046D01*
X87895326Y-125231800D01*
X87968050Y-125123850D01*
X88190300Y-125117044D01*
X88264288Y-125114227D01*
X88330530Y-125110672D01*
X88384389Y-125106710D01*
X88421226Y-125102669D01*
X88435365Y-125099584D01*
X88454109Y-125082552D01*
X88476522Y-125050982D01*
X88488211Y-125030190D01*
X88511958Y-124989723D01*
X88541630Y-124947414D01*
X88572729Y-124908749D01*
X88600752Y-124879218D01*
X88621199Y-124864307D01*
X88624914Y-124863500D01*
X88631988Y-124875540D01*
X88633057Y-124911832D01*
X88630256Y-124951639D01*
X88627550Y-124996267D01*
X88628202Y-125030033D01*
X88632057Y-125045924D01*
X88632317Y-125046114D01*
X88654683Y-125046329D01*
X88683764Y-125028691D01*
X88713981Y-124997575D01*
X88735749Y-124964976D01*
X88752962Y-124927677D01*
X88763825Y-124886285D01*
X88770177Y-124832345D01*
X88772284Y-124797048D01*
X88777607Y-124685700D01*
X88645131Y-124685700D01*
X88573942Y-124685288D01*
X88524639Y-124681498D01*
X88493714Y-124670498D01*
X88477657Y-124648453D01*
X88472959Y-124611531D01*
X88476112Y-124555899D01*
X88480867Y-124506276D01*
X88486543Y-124446471D01*
X88491145Y-124394812D01*
X88494161Y-124357234D01*
X88495100Y-124340478D01*
X88501225Y-124328439D01*
X88522693Y-124320621D01*
X88564153Y-124315494D01*
X88573007Y-124314817D01*
X88623917Y-124308480D01*
X88655012Y-124297417D01*
X88668257Y-124285463D01*
X88679717Y-124254937D01*
X88684978Y-124210051D01*
X88684110Y-124161017D01*
X88677181Y-124118046D01*
X88666954Y-124094402D01*
X88650310Y-124062259D01*
X88654404Y-124032333D01*
X88680353Y-123998705D01*
X88686062Y-123993107D01*
X88714209Y-123970922D01*
X88736852Y-123966831D01*
X88757190Y-123982660D01*
X88778417Y-124020237D01*
X88793008Y-124054222D01*
X88837235Y-124140731D01*
X88894688Y-124218896D01*
X88960761Y-124283710D01*
X89030846Y-124330167D01*
X89057902Y-124342090D01*
X89100761Y-124351256D01*
X89159692Y-124354945D01*
X89226011Y-124353368D01*
X89291035Y-124346738D01*
X89346081Y-124335266D01*
X89346870Y-124335033D01*
X89439754Y-124300886D01*
X89524006Y-124254494D01*
X89609048Y-124190616D01*
X89613993Y-124186443D01*
X89679901Y-124133345D01*
X89732541Y-124098504D01*
X89775350Y-124081046D01*
X89811768Y-124080095D01*
X89845236Y-124094777D01*
X89875115Y-124120074D01*
X89902650Y-124151288D01*
X89914441Y-124178180D01*
X89915171Y-124211528D01*
X89915120Y-124212149D01*
X89911150Y-124260250D01*
X89801904Y-124266600D01*
X89740150Y-124271674D01*
X89697917Y-124280254D01*
X89669338Y-124295182D01*
X89648541Y-124319302D01*
X89632920Y-124348478D01*
X89614197Y-124406817D01*
X89617703Y-124455074D01*
X89643328Y-124491982D01*
X89645806Y-124493997D01*
X89694899Y-124525606D01*
X89757782Y-124556604D01*
X89823229Y-124581992D01*
X89874545Y-124595823D01*
X89932217Y-124614989D01*
X89968357Y-124647153D01*
X89983135Y-124692702D01*
X89976718Y-124752024D01*
X89961775Y-124796872D01*
X89926981Y-124858131D01*
X89880555Y-124896918D01*
X89822060Y-124913560D01*
X89804766Y-124914300D01*
X89755956Y-124918787D01*
X89727427Y-124934104D01*
X89715369Y-124963030D01*
X89714300Y-124980340D01*
X89710645Y-125008323D01*
X89699485Y-125012676D01*
X89680533Y-124993274D01*
X89656674Y-124955575D01*
X89622521Y-124902269D01*
X89588573Y-124860078D01*
X89558587Y-124833162D01*
X89539127Y-124825400D01*
X89519112Y-124832838D01*
X89488809Y-124851712D01*
X89472570Y-124863841D01*
X89433610Y-124890422D01*
X89393867Y-124911173D01*
X89381842Y-124915730D01*
X89320783Y-124937570D01*
X89280641Y-124959526D01*
X89257290Y-124985956D01*
X89246606Y-125021219D01*
X89244400Y-125060947D01*
X89247319Y-125089969D01*
X89259039Y-125102813D01*
X89284002Y-125100751D01*
X89326655Y-125085054D01*
X89327453Y-125084721D01*
X89381568Y-125071631D01*
X89430567Y-125076815D01*
X89469476Y-125097996D01*
X89493324Y-125132893D01*
X89498400Y-125163063D01*
X89508423Y-125197200D01*
X89533492Y-125233425D01*
X89566115Y-125262120D01*
X89581954Y-125270281D01*
X89609607Y-125289053D01*
X89633120Y-125316958D01*
X89670393Y-125375745D01*
X89699334Y-125415856D01*
X89723251Y-125441189D01*
X89745451Y-125455644D01*
X89753508Y-125458883D01*
X89787929Y-125475224D01*
X89826340Y-125499355D01*
X89834099Y-125505061D01*
X89865096Y-125525627D01*
X89887027Y-125530376D01*
X89903373Y-125524663D01*
X89921031Y-125519293D01*
X89939542Y-125526025D01*
X89965396Y-125547985D01*
X89978222Y-125560694D01*
X90011922Y-125591045D01*
X90043951Y-125608127D01*
X90086159Y-125617606D01*
X90101646Y-125619698D01*
X90150806Y-125628728D01*
X90187528Y-125644877D01*
X90224750Y-125674105D01*
X90229891Y-125678799D01*
X90271768Y-125712118D01*
X90310296Y-125729008D01*
X90337536Y-125733535D01*
X90373805Y-125739327D01*
X90399268Y-125747832D01*
X90403394Y-125750713D01*
X90410105Y-125769314D01*
X91432964Y-125769314D01*
X91436524Y-125760511D01*
X91458638Y-125711592D01*
X91485651Y-125655968D01*
X91485835Y-125655601D01*
X91517789Y-125588482D01*
X91549152Y-125516483D01*
X91578024Y-125444652D01*
X91602502Y-125378038D01*
X91620686Y-125321689D01*
X91630674Y-125280655D01*
X91632000Y-125267517D01*
X91623144Y-125248806D01*
X91596834Y-125247947D01*
X91553458Y-125264717D01*
X91493404Y-125298889D01*
X91417059Y-125350238D01*
X91324811Y-125418538D01*
X91217047Y-125503564D01*
X91194161Y-125522153D01*
X91145286Y-125561072D01*
X91102604Y-125593293D01*
X91070348Y-125615744D01*
X91052751Y-125625353D01*
X91051733Y-125625500D01*
X91031970Y-125614039D01*
X91016819Y-125584567D01*
X91009827Y-125544452D01*
X91009700Y-125538202D01*
X91016464Y-125505353D01*
X91034847Y-125457203D01*
X91061985Y-125399317D01*
X91095017Y-125337261D01*
X91131079Y-125276601D01*
X91167308Y-125222902D01*
X91181449Y-125204310D01*
X91226189Y-125154700D01*
X91275334Y-125111012D01*
X91323449Y-125077268D01*
X91365096Y-125057490D01*
X91384633Y-125054000D01*
X91437466Y-125044821D01*
X91488829Y-125015805D01*
X91542486Y-124964731D01*
X91549378Y-124956876D01*
X91593410Y-124913020D01*
X91654494Y-124862390D01*
X91726968Y-124809577D01*
X91751364Y-124793148D01*
X91807397Y-124755141D01*
X91858517Y-124718642D01*
X91899408Y-124687566D01*
X91924753Y-124665833D01*
X91926273Y-124664277D01*
X91945417Y-124638420D01*
X91960760Y-124603631D01*
X91972811Y-124556931D01*
X91982081Y-124495341D01*
X91989078Y-124415884D01*
X91994313Y-124315580D01*
X91996518Y-124253900D01*
X91998829Y-124170817D01*
X91999594Y-124108723D01*
X91998572Y-124063241D01*
X91995525Y-124029993D01*
X91990214Y-124004602D01*
X91982400Y-123982691D01*
X91981613Y-123980850D01*
X91959504Y-123926618D01*
X91948078Y-123886683D01*
X91946567Y-123852665D01*
X91954204Y-123816188D01*
X91963827Y-123786854D01*
X91975024Y-123751225D01*
X91981731Y-123717542D01*
X91981731Y-123717534D01*
X91713375Y-123717534D01*
X91701546Y-123788225D01*
X91674928Y-123863291D01*
X91635604Y-123936467D01*
X91598952Y-123986427D01*
X91572782Y-124012951D01*
X91549179Y-124022317D01*
X91525223Y-124020652D01*
X91499957Y-124018035D01*
X91454277Y-124014951D01*
X91393158Y-124011674D01*
X91321575Y-124008472D01*
X91257350Y-124006052D01*
X91108643Y-123998699D01*
X90983672Y-123987599D01*
X90881023Y-123972543D01*
X90799280Y-123953325D01*
X90737029Y-123929737D01*
X90736842Y-123929646D01*
X90673150Y-123898520D01*
X90723950Y-123904640D01*
X90810577Y-123914377D01*
X90874428Y-123919850D01*
X90917749Y-123921144D01*
X90942791Y-123918347D01*
X90951061Y-123913410D01*
X90947560Y-123897572D01*
X90926842Y-123876173D01*
X90895013Y-123853712D01*
X90858178Y-123834686D01*
X90831900Y-123825619D01*
X90800990Y-123814125D01*
X90787231Y-123795357D01*
X90783503Y-123774173D01*
X90781844Y-123757320D01*
X90778054Y-123745387D01*
X90768054Y-123736761D01*
X90747765Y-123729826D01*
X90713106Y-123722968D01*
X90659999Y-123714572D01*
X90616000Y-123707884D01*
X90572427Y-123701421D01*
X90539285Y-123696844D01*
X90524367Y-123695195D01*
X90510224Y-123687437D01*
X90484723Y-123667874D01*
X90470270Y-123655576D01*
X90443196Y-123634624D01*
X90414763Y-123620973D01*
X90376928Y-123611844D01*
X90322541Y-123604561D01*
X90263340Y-123596119D01*
X90216009Y-123585852D01*
X90184518Y-123574931D01*
X90172836Y-123564526D01*
X90174470Y-123560897D01*
X90191840Y-123554288D01*
X90229413Y-123546069D01*
X90282099Y-123536933D01*
X90344805Y-123527578D01*
X90412442Y-123518697D01*
X90479917Y-123510988D01*
X90542139Y-123505145D01*
X90594017Y-123501865D01*
X90609650Y-123501439D01*
X90678901Y-123501970D01*
X90734761Y-123506764D01*
X90789105Y-123517497D01*
X90853812Y-123535847D01*
X90854213Y-123535971D01*
X90905343Y-123550631D01*
X90947115Y-123560592D01*
X90973844Y-123564604D01*
X90980288Y-123563646D01*
X90979388Y-123548795D01*
X90960836Y-123525911D01*
X90929340Y-123499013D01*
X90889606Y-123472121D01*
X90846342Y-123449253D01*
X90846272Y-123449222D01*
X90712400Y-123402079D01*
X90576289Y-123379175D01*
X90440461Y-123380703D01*
X90307437Y-123406856D01*
X90304139Y-123407836D01*
X90256318Y-123420995D01*
X90217645Y-123429464D01*
X90194613Y-123431895D01*
X90191641Y-123431199D01*
X90187182Y-123418831D01*
X90203533Y-123401889D01*
X90236859Y-123381939D01*
X90283322Y-123360547D01*
X90339087Y-123339278D01*
X90400317Y-123319698D01*
X90463176Y-123303372D01*
X90523827Y-123291868D01*
X90537610Y-123290000D01*
X90615039Y-123283997D01*
X90686684Y-123287116D01*
X90757132Y-123300752D01*
X90830969Y-123326302D01*
X90912781Y-123365160D01*
X91007156Y-123418723D01*
X91053079Y-123446833D01*
X91102993Y-123476294D01*
X91147559Y-123499708D01*
X91180881Y-123514130D01*
X91194241Y-123517300D01*
X91228571Y-123508003D01*
X91261364Y-123485040D01*
X91283967Y-123455799D01*
X91289100Y-123436314D01*
X91282470Y-123409501D01*
X91265562Y-123372601D01*
X91253183Y-123351336D01*
X91190649Y-123273585D01*
X91108535Y-123202832D01*
X91012328Y-123141973D01*
X90907515Y-123093902D01*
X90799582Y-123061515D01*
X90694015Y-123047708D01*
X90677261Y-123047416D01*
X90572440Y-123055348D01*
X90454399Y-123077902D01*
X90329287Y-123113269D01*
X90203255Y-123159639D01*
X90082450Y-123215201D01*
X90051290Y-123231673D01*
X89974355Y-123269203D01*
X89910335Y-123291262D01*
X89883584Y-123296136D01*
X89839388Y-123299167D01*
X89812561Y-123295140D01*
X89802541Y-123281196D01*
X89808767Y-123254472D01*
X89830677Y-123212108D01*
X89858153Y-123166592D01*
X89903230Y-123096968D01*
X89941687Y-123046082D01*
X89977844Y-123009752D01*
X90016025Y-122983794D01*
X90060551Y-122964024D01*
X90071427Y-122960159D01*
X90123473Y-122941043D01*
X90169505Y-122920731D01*
X90216984Y-122895385D01*
X90273371Y-122861171D01*
X90312030Y-122836442D01*
X90418122Y-122773034D01*
X90509532Y-122729532D01*
X90585995Y-122706048D01*
X90628510Y-122701569D01*
X90654353Y-122703326D01*
X90684396Y-122709329D01*
X90721371Y-122720674D01*
X90768009Y-122738458D01*
X90827043Y-122763777D01*
X90901203Y-122797727D01*
X90993222Y-122841404D01*
X91073200Y-122880041D01*
X91191771Y-122949521D01*
X91292895Y-123033503D01*
X91374849Y-123129852D01*
X91435905Y-123236437D01*
X91474340Y-123351123D01*
X91480739Y-123383950D01*
X91490889Y-123438653D01*
X91501511Y-123473422D01*
X91515789Y-123493579D01*
X91536907Y-123504445D01*
X91555587Y-123509002D01*
X91598343Y-123527433D01*
X91642768Y-123561996D01*
X91681167Y-123605212D01*
X91705846Y-123649602D01*
X91708331Y-123657485D01*
X91713375Y-123717534D01*
X91981731Y-123717534D01*
X91984485Y-123678813D01*
X91983827Y-123628042D01*
X91980789Y-123566749D01*
X91972313Y-123419349D01*
X92017618Y-123316306D01*
X92034059Y-123275248D01*
X92053300Y-123221611D01*
X92073500Y-123161262D01*
X92092821Y-123100066D01*
X92109421Y-123043889D01*
X92121461Y-122998596D01*
X92127101Y-122970055D01*
X92127300Y-122966653D01*
X92134522Y-122954935D01*
X92152953Y-122930182D01*
X92166749Y-122912621D01*
X92187964Y-122884048D01*
X92199127Y-122859700D01*
X92202607Y-122830134D01*
X92200776Y-122785910D01*
X92200299Y-122778991D01*
X92200156Y-122706550D01*
X92212260Y-122653730D01*
X92237911Y-122617232D01*
X92272330Y-122596157D01*
X92323621Y-122585575D01*
X92367646Y-122599082D01*
X92398539Y-122629568D01*
X92412014Y-122658532D01*
X92403550Y-122675109D01*
X92381910Y-122679100D01*
X92356543Y-122689634D01*
X92344445Y-122721319D01*
X92345620Y-122774280D01*
X92360071Y-122848641D01*
X92387800Y-122944526D01*
X92388462Y-122946578D01*
X92409850Y-123016968D01*
X92423506Y-123070994D01*
X92429410Y-123107222D01*
X92427540Y-123124218D01*
X92417875Y-123120546D01*
X92400393Y-123094772D01*
X92390411Y-123076431D01*
X92357595Y-123023571D01*
X92327243Y-122995876D01*
X92299229Y-122993245D01*
X92292402Y-122996599D01*
X92287109Y-123004596D01*
X92286695Y-123021430D01*
X92291858Y-123050274D01*
X92303293Y-123094298D01*
X92321695Y-123156676D01*
X92341655Y-123221137D01*
X92372171Y-123318014D01*
X92396445Y-123393545D01*
X92415594Y-123450698D01*
X92430734Y-123492437D01*
X92442980Y-123521729D01*
X92453449Y-123541541D01*
X92463257Y-123554838D01*
X92469627Y-123561231D01*
X92488220Y-123574047D01*
X92503305Y-123567326D01*
X92511541Y-123558677D01*
X92522283Y-123537697D01*
X92536121Y-123497813D01*
X92551162Y-123445027D01*
X92563704Y-123393486D01*
X92582088Y-123314875D01*
X92597968Y-123257360D01*
X92613405Y-123217052D01*
X92630462Y-123190060D01*
X92651201Y-123172495D01*
X92677686Y-123160466D01*
X92689275Y-123156664D01*
X92701457Y-123148465D01*
X92708333Y-123129550D01*
X92711264Y-123094265D01*
X92711695Y-123063673D01*
X92714907Y-123003963D01*
X92723292Y-122964713D01*
X92735441Y-122946958D01*
X92749947Y-122951736D01*
X92765403Y-122980082D01*
X92776418Y-123016019D01*
X92793071Y-123063236D01*
X92813204Y-123089759D01*
X92835027Y-123093457D01*
X92839563Y-123091193D01*
X92845836Y-123074390D01*
X92848546Y-123037216D01*
X92847998Y-122984403D01*
X92844493Y-122920686D01*
X92838334Y-122850797D01*
X92829824Y-122779470D01*
X92819265Y-122711437D01*
X92813255Y-122679852D01*
X92785060Y-122569403D01*
X92750601Y-122483124D01*
X92709643Y-122420511D01*
X92681419Y-122393761D01*
X92641593Y-122370562D01*
X92599550Y-122363707D01*
X92546638Y-122372119D01*
X92534329Y-122375442D01*
X92516742Y-122367576D01*
X92494265Y-122336847D01*
X92483529Y-122317150D01*
X92450079Y-122265865D01*
X92412412Y-122236641D01*
X92409875Y-122235483D01*
X92377989Y-122216054D01*
X92370979Y-122198069D01*
X92388734Y-122183399D01*
X92413395Y-122176547D01*
X92452610Y-122163676D01*
X92472018Y-122141573D01*
X92472498Y-122107194D01*
X92454931Y-122057496D01*
X92450543Y-122048001D01*
X92429800Y-121997080D01*
X92422449Y-121957038D01*
X92424255Y-121929939D01*
X92421682Y-121881701D01*
X92403215Y-121825926D01*
X92372724Y-121771035D01*
X92334074Y-121725451D01*
X92327820Y-121719942D01*
X92290769Y-121695690D01*
X92264012Y-121694479D01*
X92246796Y-121716479D01*
D11*
X86431000Y-107155857D02*
X86395285Y-107084428D01*
X86395285Y-106977285D01*
X86431000Y-106870142D01*
X86502428Y-106798714D01*
X86573857Y-106763000D01*
X86716714Y-106727285D01*
X86823857Y-106727285D01*
X86966714Y-106763000D01*
X87038142Y-106798714D01*
X87109571Y-106870142D01*
X87145285Y-106977285D01*
X87145285Y-107048714D01*
X87109571Y-107155857D01*
X87073857Y-107191571D01*
X86823857Y-107191571D01*
X86823857Y-107048714D01*
X87145285Y-107513000D02*
X86395285Y-107513000D01*
X86395285Y-107798714D01*
X86431000Y-107870142D01*
X86466714Y-107905857D01*
X86538142Y-107941571D01*
X86645285Y-107941571D01*
X86716714Y-107905857D01*
X86752428Y-107870142D01*
X86788142Y-107798714D01*
X86788142Y-107513000D01*
X87145285Y-108263000D02*
X86395285Y-108263000D01*
X86395285Y-108763000D02*
X86395285Y-108905857D01*
X86431000Y-108977285D01*
X86502428Y-109048714D01*
X86645285Y-109084428D01*
X86895285Y-109084428D01*
X87038142Y-109048714D01*
X87109571Y-108977285D01*
X87145285Y-108905857D01*
X87145285Y-108763000D01*
X87109571Y-108691571D01*
X87038142Y-108620142D01*
X86895285Y-108584428D01*
X86645285Y-108584428D01*
X86502428Y-108620142D01*
X86431000Y-108691571D01*
X86395285Y-108763000D01*
X87145285Y-109798714D02*
X87145285Y-109370142D01*
X87145285Y-109584428D02*
X86395285Y-109584428D01*
X86502428Y-109513000D01*
X86573857Y-109441571D01*
X86609571Y-109370142D01*
X92273000Y-107155857D02*
X92237285Y-107084428D01*
X92237285Y-106977285D01*
X92273000Y-106870142D01*
X92344428Y-106798714D01*
X92415857Y-106763000D01*
X92558714Y-106727285D01*
X92665857Y-106727285D01*
X92808714Y-106763000D01*
X92880142Y-106798714D01*
X92951571Y-106870142D01*
X92987285Y-106977285D01*
X92987285Y-107048714D01*
X92951571Y-107155857D01*
X92915857Y-107191571D01*
X92665857Y-107191571D01*
X92665857Y-107048714D01*
X92987285Y-107513000D02*
X92237285Y-107513000D01*
X92237285Y-107798714D01*
X92273000Y-107870142D01*
X92308714Y-107905857D01*
X92380142Y-107941571D01*
X92487285Y-107941571D01*
X92558714Y-107905857D01*
X92594428Y-107870142D01*
X92630142Y-107798714D01*
X92630142Y-107513000D01*
X92987285Y-108263000D02*
X92237285Y-108263000D01*
X92237285Y-108763000D02*
X92237285Y-108905857D01*
X92273000Y-108977285D01*
X92344428Y-109048714D01*
X92487285Y-109084428D01*
X92737285Y-109084428D01*
X92880142Y-109048714D01*
X92951571Y-108977285D01*
X92987285Y-108905857D01*
X92987285Y-108763000D01*
X92951571Y-108691571D01*
X92880142Y-108620142D01*
X92737285Y-108584428D01*
X92487285Y-108584428D01*
X92344428Y-108620142D01*
X92273000Y-108691571D01*
X92237285Y-108763000D01*
X92308714Y-109370142D02*
X92273000Y-109405857D01*
X92237285Y-109477285D01*
X92237285Y-109655857D01*
X92273000Y-109727285D01*
X92308714Y-109763000D01*
X92380142Y-109798714D01*
X92451571Y-109798714D01*
X92558714Y-109763000D01*
X92987285Y-109334428D01*
X92987285Y-109798714D01*
X92951571Y-111307142D02*
X92987285Y-111414285D01*
X92987285Y-111592857D01*
X92951571Y-111664285D01*
X92915857Y-111700000D01*
X92844428Y-111735714D01*
X92773000Y-111735714D01*
X92701571Y-111700000D01*
X92665857Y-111664285D01*
X92630142Y-111592857D01*
X92594428Y-111450000D01*
X92558714Y-111378571D01*
X92523000Y-111342857D01*
X92451571Y-111307142D01*
X92380142Y-111307142D01*
X92308714Y-111342857D01*
X92273000Y-111378571D01*
X92237285Y-111450000D01*
X92237285Y-111628571D01*
X92273000Y-111735714D01*
X92915857Y-112485714D02*
X92951571Y-112450000D01*
X92987285Y-112342857D01*
X92987285Y-112271428D01*
X92951571Y-112164285D01*
X92880142Y-112092857D01*
X92808714Y-112057142D01*
X92665857Y-112021428D01*
X92558714Y-112021428D01*
X92415857Y-112057142D01*
X92344428Y-112092857D01*
X92273000Y-112164285D01*
X92237285Y-112271428D01*
X92237285Y-112342857D01*
X92273000Y-112450000D01*
X92308714Y-112485714D01*
X92987285Y-113164285D02*
X92987285Y-112807142D01*
X92237285Y-112807142D01*
X87109571Y-111289285D02*
X87145285Y-111396428D01*
X87145285Y-111575000D01*
X87109571Y-111646428D01*
X87073857Y-111682142D01*
X87002428Y-111717857D01*
X86931000Y-111717857D01*
X86859571Y-111682142D01*
X86823857Y-111646428D01*
X86788142Y-111575000D01*
X86752428Y-111432142D01*
X86716714Y-111360714D01*
X86681000Y-111325000D01*
X86609571Y-111289285D01*
X86538142Y-111289285D01*
X86466714Y-111325000D01*
X86431000Y-111360714D01*
X86395285Y-111432142D01*
X86395285Y-111610714D01*
X86431000Y-111717857D01*
X87145285Y-112039285D02*
X86395285Y-112039285D01*
X86395285Y-112217857D01*
X86431000Y-112325000D01*
X86502428Y-112396428D01*
X86573857Y-112432142D01*
X86716714Y-112467857D01*
X86823857Y-112467857D01*
X86966714Y-112432142D01*
X87038142Y-112396428D01*
X87109571Y-112325000D01*
X87145285Y-112217857D01*
X87145285Y-112039285D01*
X86931000Y-112753571D02*
X86931000Y-113110714D01*
X87145285Y-112682142D02*
X86395285Y-112932142D01*
X87145285Y-113182142D01*
X92273000Y-114168571D02*
X92237285Y-114097142D01*
X92237285Y-113990000D01*
X92273000Y-113882857D01*
X92344428Y-113811428D01*
X92415857Y-113775714D01*
X92558714Y-113740000D01*
X92665857Y-113740000D01*
X92808714Y-113775714D01*
X92880142Y-113811428D01*
X92951571Y-113882857D01*
X92987285Y-113990000D01*
X92987285Y-114061428D01*
X92951571Y-114168571D01*
X92915857Y-114204285D01*
X92665857Y-114204285D01*
X92665857Y-114061428D01*
X92987285Y-114525714D02*
X92237285Y-114525714D01*
X92987285Y-114954285D01*
X92237285Y-114954285D01*
X92987285Y-115311428D02*
X92237285Y-115311428D01*
X92237285Y-115490000D01*
X92273000Y-115597142D01*
X92344428Y-115668571D01*
X92415857Y-115704285D01*
X92558714Y-115740000D01*
X92665857Y-115740000D01*
X92808714Y-115704285D01*
X92880142Y-115668571D01*
X92951571Y-115597142D01*
X92987285Y-115490000D01*
X92987285Y-115311428D01*
X86395285Y-113740000D02*
X87145285Y-113990000D01*
X86395285Y-114240000D01*
X87073857Y-114918571D02*
X87109571Y-114882857D01*
X87145285Y-114775714D01*
X87145285Y-114704285D01*
X87109571Y-114597142D01*
X87038142Y-114525714D01*
X86966714Y-114490000D01*
X86823857Y-114454285D01*
X86716714Y-114454285D01*
X86573857Y-114490000D01*
X86502428Y-114525714D01*
X86431000Y-114597142D01*
X86395285Y-114704285D01*
X86395285Y-114775714D01*
X86431000Y-114882857D01*
X86466714Y-114918571D01*
X87073857Y-115668571D02*
X87109571Y-115632857D01*
X87145285Y-115525714D01*
X87145285Y-115454285D01*
X87109571Y-115347142D01*
X87038142Y-115275714D01*
X86966714Y-115240000D01*
X86823857Y-115204285D01*
X86716714Y-115204285D01*
X86573857Y-115240000D01*
X86502428Y-115275714D01*
X86431000Y-115347142D01*
X86395285Y-115454285D01*
X86395285Y-115525714D01*
X86431000Y-115632857D01*
X86466714Y-115668571D01*
M02*
