G04 #@! TF.GenerationSoftware,KiCad,Pcbnew,(5.1.4)-1*
G04 #@! TF.CreationDate,2020-08-24T20:29:47-05:00*
G04 #@! TF.ProjectId,NiteLite,4e697465-4c69-4746-952e-6b696361645f,rev?*
G04 #@! TF.SameCoordinates,Original*
G04 #@! TF.FileFunction,Soldermask,Top*
G04 #@! TF.FilePolarity,Negative*
%FSLAX46Y46*%
G04 Gerber Fmt 4.6, Leading zero omitted, Abs format (unit mm)*
G04 Created by KiCad (PCBNEW (5.1.4)-1) date 2020-08-24 20:29:47*
%MOMM*%
%LPD*%
G04 APERTURE LIST*
%ADD10C,0.100000*%
G04 APERTURE END LIST*
D10*
G36*
X131613062Y-126478181D02*
G01*
X131647981Y-126488774D01*
X131680163Y-126505976D01*
X131708373Y-126529127D01*
X131731524Y-126557337D01*
X131748726Y-126589519D01*
X131759319Y-126624438D01*
X131763500Y-126666895D01*
X131763500Y-128133105D01*
X131759319Y-128175562D01*
X131748726Y-128210481D01*
X131731524Y-128242663D01*
X131708373Y-128270873D01*
X131680163Y-128294024D01*
X131647981Y-128311226D01*
X131613062Y-128321819D01*
X131570605Y-128326000D01*
X130429395Y-128326000D01*
X130386938Y-128321819D01*
X130352019Y-128311226D01*
X130319837Y-128294024D01*
X130291627Y-128270873D01*
X130268476Y-128242663D01*
X130251274Y-128210481D01*
X130240681Y-128175562D01*
X130236500Y-128133105D01*
X130236500Y-126666895D01*
X130240681Y-126624438D01*
X130251274Y-126589519D01*
X130268476Y-126557337D01*
X130291627Y-126529127D01*
X130319837Y-126505976D01*
X130352019Y-126488774D01*
X130386938Y-126478181D01*
X130429395Y-126474000D01*
X131570605Y-126474000D01*
X131613062Y-126478181D01*
X131613062Y-126478181D01*
G37*
G36*
X128638062Y-126478181D02*
G01*
X128672981Y-126488774D01*
X128705163Y-126505976D01*
X128733373Y-126529127D01*
X128756524Y-126557337D01*
X128773726Y-126589519D01*
X128784319Y-126624438D01*
X128788500Y-126666895D01*
X128788500Y-128133105D01*
X128784319Y-128175562D01*
X128773726Y-128210481D01*
X128756524Y-128242663D01*
X128733373Y-128270873D01*
X128705163Y-128294024D01*
X128672981Y-128311226D01*
X128638062Y-128321819D01*
X128595605Y-128326000D01*
X127454395Y-128326000D01*
X127411938Y-128321819D01*
X127377019Y-128311226D01*
X127344837Y-128294024D01*
X127316627Y-128270873D01*
X127293476Y-128242663D01*
X127276274Y-128210481D01*
X127265681Y-128175562D01*
X127261500Y-128133105D01*
X127261500Y-126666895D01*
X127265681Y-126624438D01*
X127276274Y-126589519D01*
X127293476Y-126557337D01*
X127316627Y-126529127D01*
X127344837Y-126505976D01*
X127377019Y-126488774D01*
X127411938Y-126478181D01*
X127454395Y-126474000D01*
X128595605Y-126474000D01*
X128638062Y-126478181D01*
X128638062Y-126478181D01*
G37*
G36*
X153647714Y-125808058D02*
G01*
X153765721Y-125843855D01*
X153874468Y-125901981D01*
X153969790Y-125980210D01*
X154048019Y-126075532D01*
X154106145Y-126184278D01*
X154141942Y-126302285D01*
X154151000Y-126394254D01*
X154151000Y-127105746D01*
X154141942Y-127197715D01*
X154106145Y-127315722D01*
X154048019Y-127424468D01*
X153969790Y-127519790D01*
X153874468Y-127598019D01*
X153765722Y-127656145D01*
X153647715Y-127691942D01*
X153525000Y-127704028D01*
X153402286Y-127691942D01*
X153284279Y-127656145D01*
X153175533Y-127598019D01*
X153080211Y-127519790D01*
X153001982Y-127424468D01*
X152943855Y-127315721D01*
X152908058Y-127197715D01*
X152899000Y-127105746D01*
X152899000Y-126394255D01*
X152908058Y-126302286D01*
X152943855Y-126184279D01*
X153001981Y-126075532D01*
X153080210Y-125980210D01*
X153175532Y-125901981D01*
X153284278Y-125843855D01*
X153402285Y-125808058D01*
X153525000Y-125795972D01*
X153647714Y-125808058D01*
X153647714Y-125808058D01*
G37*
G36*
X161397714Y-125808058D02*
G01*
X161515721Y-125843855D01*
X161624468Y-125901981D01*
X161719790Y-125980210D01*
X161798019Y-126075532D01*
X161856145Y-126184278D01*
X161891942Y-126302285D01*
X161901000Y-126394254D01*
X161901000Y-127105746D01*
X161891942Y-127197715D01*
X161856145Y-127315722D01*
X161798019Y-127424468D01*
X161719790Y-127519790D01*
X161624468Y-127598019D01*
X161515722Y-127656145D01*
X161397715Y-127691942D01*
X161275000Y-127704028D01*
X161152286Y-127691942D01*
X161034279Y-127656145D01*
X160925533Y-127598019D01*
X160830211Y-127519790D01*
X160751982Y-127424468D01*
X160693855Y-127315721D01*
X160658058Y-127197715D01*
X160649000Y-127105746D01*
X160649000Y-126394255D01*
X160658058Y-126302286D01*
X160693855Y-126184279D01*
X160751981Y-126075532D01*
X160830210Y-125980210D01*
X160925532Y-125901981D01*
X161034278Y-125843855D01*
X161152285Y-125808058D01*
X161275000Y-125795972D01*
X161397714Y-125808058D01*
X161397714Y-125808058D01*
G37*
G36*
X161277120Y-121910228D02*
G01*
X161423401Y-121954602D01*
X161558206Y-122026657D01*
X161676367Y-122123628D01*
X161773345Y-122241796D01*
X161845398Y-122376598D01*
X161889772Y-122522879D01*
X161901000Y-122636882D01*
X161901000Y-123263118D01*
X161889772Y-123377121D01*
X161845398Y-123523402D01*
X161773345Y-123658204D01*
X161773343Y-123658206D01*
X161773342Y-123658208D01*
X161676369Y-123776369D01*
X161615195Y-123826574D01*
X161558204Y-123873345D01*
X161423402Y-123945398D01*
X161277121Y-123989772D01*
X161125000Y-124004754D01*
X160972880Y-123989772D01*
X160826599Y-123945398D01*
X160691797Y-123873345D01*
X160573628Y-123776366D01*
X160543695Y-123739893D01*
X160526368Y-123722566D01*
X160505993Y-123708952D01*
X160483354Y-123699575D01*
X160459321Y-123694795D01*
X160434817Y-123694795D01*
X160410784Y-123699576D01*
X160388145Y-123708953D01*
X160367771Y-123722567D01*
X160350444Y-123739894D01*
X160336830Y-123760269D01*
X160327453Y-123782908D01*
X160322673Y-123806941D01*
X160322673Y-123831445D01*
X160327454Y-123855478D01*
X160344475Y-123911587D01*
X160353182Y-124000000D01*
X160344475Y-124088410D01*
X160318686Y-124173426D01*
X160276807Y-124251775D01*
X160220449Y-124320449D01*
X160151775Y-124376807D01*
X160073426Y-124418686D01*
X159988410Y-124444475D01*
X159922158Y-124451000D01*
X159877842Y-124451000D01*
X159811590Y-124444475D01*
X159726574Y-124418686D01*
X159648225Y-124376807D01*
X159579551Y-124320449D01*
X159523193Y-124251775D01*
X159481314Y-124173426D01*
X159455525Y-124088410D01*
X159446818Y-124000000D01*
X159455525Y-123911590D01*
X159481314Y-123826574D01*
X159523193Y-123748225D01*
X159579551Y-123679551D01*
X159648225Y-123623193D01*
X159726574Y-123581314D01*
X159811590Y-123555525D01*
X159877842Y-123549000D01*
X159922158Y-123549000D01*
X159988410Y-123555525D01*
X160073426Y-123581314D01*
X160151775Y-123623193D01*
X160211428Y-123672149D01*
X160231802Y-123685762D01*
X160254441Y-123695140D01*
X160278474Y-123699920D01*
X160302978Y-123699920D01*
X160327012Y-123695139D01*
X160349650Y-123685762D01*
X160370025Y-123672148D01*
X160387352Y-123654821D01*
X160400965Y-123634447D01*
X160410343Y-123611808D01*
X160415123Y-123587775D01*
X160415123Y-123563271D01*
X160410342Y-123539237D01*
X160406841Y-123530784D01*
X160360228Y-123377121D01*
X160349000Y-123263118D01*
X160349000Y-122636883D01*
X160360228Y-122522880D01*
X160404602Y-122376599D01*
X160476657Y-122241794D01*
X160573628Y-122123633D01*
X160691796Y-122026655D01*
X160826598Y-121954602D01*
X160972879Y-121910228D01*
X161125000Y-121895246D01*
X161277120Y-121910228D01*
X161277120Y-121910228D01*
G37*
G36*
X153827120Y-121910228D02*
G01*
X153973401Y-121954602D01*
X154108206Y-122026657D01*
X154226367Y-122123628D01*
X154323345Y-122241796D01*
X154395398Y-122376598D01*
X154439772Y-122522879D01*
X154451000Y-122636882D01*
X154451000Y-123263118D01*
X154439772Y-123377121D01*
X154393157Y-123530790D01*
X154389654Y-123539249D01*
X154384876Y-123563283D01*
X154384878Y-123587787D01*
X154389661Y-123611820D01*
X154399041Y-123634458D01*
X154412656Y-123654831D01*
X154429985Y-123672156D01*
X154450361Y-123685768D01*
X154473000Y-123695143D01*
X154497034Y-123699921D01*
X154521538Y-123699919D01*
X154545571Y-123695136D01*
X154568209Y-123685756D01*
X154588572Y-123672149D01*
X154648225Y-123623193D01*
X154726574Y-123581314D01*
X154811590Y-123555525D01*
X154877842Y-123549000D01*
X154922158Y-123549000D01*
X154988410Y-123555525D01*
X155073426Y-123581314D01*
X155151775Y-123623193D01*
X155220449Y-123679551D01*
X155276807Y-123748225D01*
X155318686Y-123826574D01*
X155344475Y-123911590D01*
X155353182Y-124000000D01*
X155344475Y-124088410D01*
X155318686Y-124173426D01*
X155276807Y-124251775D01*
X155220449Y-124320449D01*
X155151775Y-124376807D01*
X155073426Y-124418686D01*
X154988410Y-124444475D01*
X154922158Y-124451000D01*
X154877842Y-124451000D01*
X154811590Y-124444475D01*
X154726574Y-124418686D01*
X154648225Y-124376807D01*
X154579551Y-124320449D01*
X154523193Y-124251775D01*
X154481314Y-124173426D01*
X154455525Y-124088410D01*
X154446818Y-124000000D01*
X154455525Y-123911588D01*
X154472546Y-123855477D01*
X154477326Y-123831444D01*
X154477326Y-123806940D01*
X154472545Y-123782907D01*
X154463168Y-123760268D01*
X154449554Y-123739894D01*
X154432227Y-123722567D01*
X154411852Y-123708953D01*
X154389213Y-123699576D01*
X154365180Y-123694796D01*
X154340676Y-123694796D01*
X154316643Y-123699577D01*
X154294004Y-123708954D01*
X154273630Y-123722568D01*
X154256303Y-123739895D01*
X154226372Y-123776366D01*
X154226369Y-123776369D01*
X154165193Y-123826575D01*
X154108204Y-123873345D01*
X153973402Y-123945398D01*
X153827121Y-123989772D01*
X153675000Y-124004754D01*
X153522880Y-123989772D01*
X153376599Y-123945398D01*
X153241797Y-123873345D01*
X153184807Y-123826574D01*
X153123632Y-123776369D01*
X153093698Y-123739895D01*
X153026657Y-123658206D01*
X152954601Y-123523400D01*
X152910228Y-123377121D01*
X152899000Y-123263118D01*
X152899000Y-122636883D01*
X152910228Y-122522880D01*
X152954602Y-122376599D01*
X153026657Y-122241794D01*
X153123628Y-122123633D01*
X153241796Y-122026655D01*
X153376598Y-121954602D01*
X153522879Y-121910228D01*
X153675000Y-121895246D01*
X153827120Y-121910228D01*
X153827120Y-121910228D01*
G37*
G36*
X158976000Y-123601000D02*
G01*
X155824000Y-123601000D01*
X155824000Y-122199000D01*
X158976000Y-122199000D01*
X158976000Y-123601000D01*
X158976000Y-123601000D01*
G37*
G36*
X136991000Y-121211000D02*
G01*
X134689000Y-121211000D01*
X134689000Y-119609000D01*
X136991000Y-119609000D01*
X136991000Y-121211000D01*
X136991000Y-121211000D01*
G37*
G36*
X153788674Y-118978465D02*
G01*
X153826367Y-118989899D01*
X153861103Y-119008466D01*
X153891548Y-119033452D01*
X153916534Y-119063897D01*
X153935101Y-119098633D01*
X153946535Y-119136326D01*
X153951000Y-119181661D01*
X153951000Y-120018339D01*
X153946535Y-120063674D01*
X153935101Y-120101367D01*
X153916534Y-120136103D01*
X153891548Y-120166548D01*
X153861103Y-120191534D01*
X153826367Y-120210101D01*
X153788674Y-120221535D01*
X153743339Y-120226000D01*
X152656661Y-120226000D01*
X152611326Y-120221535D01*
X152573633Y-120210101D01*
X152538897Y-120191534D01*
X152508452Y-120166548D01*
X152483466Y-120136103D01*
X152464899Y-120101367D01*
X152453465Y-120063674D01*
X152449000Y-120018339D01*
X152449000Y-119181661D01*
X152453465Y-119136326D01*
X152464899Y-119098633D01*
X152483466Y-119063897D01*
X152508452Y-119033452D01*
X152538897Y-119008466D01*
X152573633Y-118989899D01*
X152611326Y-118978465D01*
X152656661Y-118974000D01*
X153743339Y-118974000D01*
X153788674Y-118978465D01*
X153788674Y-118978465D01*
G37*
G36*
X130691000Y-120061000D02*
G01*
X128389000Y-120061000D01*
X128389000Y-116159000D01*
X130691000Y-116159000D01*
X130691000Y-120061000D01*
X130691000Y-120061000D01*
G37*
G36*
X136991000Y-118911000D02*
G01*
X134689000Y-118911000D01*
X134689000Y-117309000D01*
X136991000Y-117309000D01*
X136991000Y-118911000D01*
X136991000Y-118911000D01*
G37*
G36*
X114651000Y-118631000D02*
G01*
X106549000Y-118631000D01*
X106549000Y-112969000D01*
X114651000Y-112969000D01*
X114651000Y-118631000D01*
X114651000Y-118631000D01*
G37*
G36*
X123856000Y-118631000D02*
G01*
X121154000Y-118631000D01*
X121154000Y-112969000D01*
X123856000Y-112969000D01*
X123856000Y-118631000D01*
X123856000Y-118631000D01*
G37*
G36*
X100046000Y-118631000D02*
G01*
X97344000Y-118631000D01*
X97344000Y-112969000D01*
X100046000Y-112969000D01*
X100046000Y-118631000D01*
X100046000Y-118631000D01*
G37*
G36*
X160466228Y-116473483D02*
G01*
X160654922Y-116530723D01*
X160828815Y-116623671D01*
X160981239Y-116748761D01*
X161106329Y-116901185D01*
X161199277Y-117075078D01*
X161256517Y-117263772D01*
X161275843Y-117460000D01*
X161256517Y-117656228D01*
X161199277Y-117844922D01*
X161106329Y-118018815D01*
X160981239Y-118171239D01*
X160828815Y-118296329D01*
X160654922Y-118389277D01*
X160466228Y-118446517D01*
X160319175Y-118461000D01*
X158620825Y-118461000D01*
X158473772Y-118446517D01*
X158285078Y-118389277D01*
X158111185Y-118296329D01*
X157958761Y-118171239D01*
X157833671Y-118018815D01*
X157740723Y-117844922D01*
X157683483Y-117656228D01*
X157664157Y-117460000D01*
X157683483Y-117263772D01*
X157740723Y-117075078D01*
X157833671Y-116901185D01*
X157958761Y-116748761D01*
X158111185Y-116623671D01*
X158285078Y-116530723D01*
X158473772Y-116473483D01*
X158620825Y-116459000D01*
X160319175Y-116459000D01*
X160466228Y-116473483D01*
X160466228Y-116473483D01*
G37*
G36*
X153788674Y-116928465D02*
G01*
X153826367Y-116939899D01*
X153861103Y-116958466D01*
X153891548Y-116983452D01*
X153916534Y-117013897D01*
X153935101Y-117048633D01*
X153946535Y-117086326D01*
X153951000Y-117131661D01*
X153951000Y-117968339D01*
X153946535Y-118013674D01*
X153935101Y-118051367D01*
X153916534Y-118086103D01*
X153891548Y-118116548D01*
X153861103Y-118141534D01*
X153826367Y-118160101D01*
X153788674Y-118171535D01*
X153743339Y-118176000D01*
X152656661Y-118176000D01*
X152611326Y-118171535D01*
X152573633Y-118160101D01*
X152538897Y-118141534D01*
X152508452Y-118116548D01*
X152483466Y-118086103D01*
X152464899Y-118051367D01*
X152453465Y-118013674D01*
X152449000Y-117968339D01*
X152449000Y-117131661D01*
X152453465Y-117086326D01*
X152464899Y-117048633D01*
X152483466Y-117013897D01*
X152508452Y-116983452D01*
X152538897Y-116958466D01*
X152573633Y-116939899D01*
X152611326Y-116928465D01*
X152656661Y-116924000D01*
X153743339Y-116924000D01*
X153788674Y-116928465D01*
X153788674Y-116928465D01*
G37*
G36*
X150448674Y-115973465D02*
G01*
X150486367Y-115984899D01*
X150521103Y-116003466D01*
X150551548Y-116028452D01*
X150576534Y-116058897D01*
X150595101Y-116093633D01*
X150606535Y-116131326D01*
X150611000Y-116176661D01*
X150611000Y-117013339D01*
X150606535Y-117058674D01*
X150595101Y-117096367D01*
X150576534Y-117131103D01*
X150551548Y-117161548D01*
X150521103Y-117186534D01*
X150486367Y-117205101D01*
X150448674Y-117216535D01*
X150403339Y-117221000D01*
X149316661Y-117221000D01*
X149271326Y-117216535D01*
X149233633Y-117205101D01*
X149198897Y-117186534D01*
X149168452Y-117161548D01*
X149143466Y-117131103D01*
X149124899Y-117096367D01*
X149113465Y-117058674D01*
X149109000Y-117013339D01*
X149109000Y-116176661D01*
X149113465Y-116131326D01*
X149124899Y-116093633D01*
X149143466Y-116058897D01*
X149168452Y-116028452D01*
X149198897Y-116003466D01*
X149233633Y-115984899D01*
X149271326Y-115973465D01*
X149316661Y-115969000D01*
X150403339Y-115969000D01*
X150448674Y-115973465D01*
X150448674Y-115973465D01*
G37*
G36*
X136991000Y-116611000D02*
G01*
X134689000Y-116611000D01*
X134689000Y-115009000D01*
X136991000Y-115009000D01*
X136991000Y-116611000D01*
X136991000Y-116611000D01*
G37*
G36*
X158021000Y-115861000D02*
G01*
X155419000Y-115861000D01*
X155419000Y-114659000D01*
X158021000Y-114659000D01*
X158021000Y-115861000D01*
X158021000Y-115861000D01*
G37*
G36*
X88529294Y-113778633D02*
G01*
X88701695Y-113830931D01*
X88860583Y-113915858D01*
X88999849Y-114030151D01*
X89114142Y-114169417D01*
X89199069Y-114328305D01*
X89251367Y-114500706D01*
X89269025Y-114680000D01*
X89251367Y-114859294D01*
X89199069Y-115031695D01*
X89114142Y-115190583D01*
X88999849Y-115329849D01*
X88860583Y-115444142D01*
X88701695Y-115529069D01*
X88529294Y-115581367D01*
X88394931Y-115594600D01*
X88305069Y-115594600D01*
X88170706Y-115581367D01*
X87998305Y-115529069D01*
X87839417Y-115444142D01*
X87700151Y-115329849D01*
X87585858Y-115190583D01*
X87500931Y-115031695D01*
X87448633Y-114859294D01*
X87430975Y-114680000D01*
X87448633Y-114500706D01*
X87500931Y-114328305D01*
X87585858Y-114169417D01*
X87700151Y-114030151D01*
X87839417Y-113915858D01*
X87998305Y-113830931D01*
X88170706Y-113778633D01*
X88305069Y-113765400D01*
X88394931Y-113765400D01*
X88529294Y-113778633D01*
X88529294Y-113778633D01*
G37*
G36*
X91804600Y-115594600D02*
G01*
X89975400Y-115594600D01*
X89975400Y-113765400D01*
X91804600Y-113765400D01*
X91804600Y-115594600D01*
X91804600Y-115594600D01*
G37*
G36*
X150448674Y-113923465D02*
G01*
X150486367Y-113934899D01*
X150521103Y-113953466D01*
X150551548Y-113978452D01*
X150576534Y-114008897D01*
X150595101Y-114043633D01*
X150606535Y-114081326D01*
X150611000Y-114126661D01*
X150611000Y-114963339D01*
X150606535Y-115008674D01*
X150595101Y-115046367D01*
X150576534Y-115081103D01*
X150551548Y-115111548D01*
X150521103Y-115136534D01*
X150486367Y-115155101D01*
X150448674Y-115166535D01*
X150403339Y-115171000D01*
X149316661Y-115171000D01*
X149271326Y-115166535D01*
X149233633Y-115155101D01*
X149198897Y-115136534D01*
X149168452Y-115111548D01*
X149143466Y-115081103D01*
X149124899Y-115046367D01*
X149113465Y-115008674D01*
X149109000Y-114963339D01*
X149109000Y-114126661D01*
X149113465Y-114081326D01*
X149124899Y-114043633D01*
X149143466Y-114008897D01*
X149168452Y-113978452D01*
X149198897Y-113953466D01*
X149233633Y-113934899D01*
X149271326Y-113923465D01*
X149316661Y-113919000D01*
X150403339Y-113919000D01*
X150448674Y-113923465D01*
X150448674Y-113923465D01*
G37*
G36*
X159606601Y-113474397D02*
G01*
X159645305Y-113482096D01*
X159677340Y-113495365D01*
X159754680Y-113527400D01*
X159853115Y-113593173D01*
X159936827Y-113676885D01*
X160002600Y-113775320D01*
X160047904Y-113884696D01*
X160071000Y-114000805D01*
X160071000Y-114119195D01*
X160061010Y-114169417D01*
X160050587Y-114221819D01*
X160047904Y-114235304D01*
X160002600Y-114344680D01*
X159936827Y-114443115D01*
X159853115Y-114526827D01*
X159754680Y-114592600D01*
X159677340Y-114624635D01*
X159645305Y-114637904D01*
X159606601Y-114645603D01*
X159529195Y-114661000D01*
X159410805Y-114661000D01*
X159333399Y-114645603D01*
X159294695Y-114637904D01*
X159262660Y-114624635D01*
X159185320Y-114592600D01*
X159086885Y-114526827D01*
X159003173Y-114443115D01*
X158937400Y-114344680D01*
X158892096Y-114235304D01*
X158889414Y-114221819D01*
X158878990Y-114169417D01*
X158869000Y-114119195D01*
X158869000Y-114000805D01*
X158892096Y-113884696D01*
X158937400Y-113775320D01*
X159003173Y-113676885D01*
X159086885Y-113593173D01*
X159185320Y-113527400D01*
X159262660Y-113495365D01*
X159294695Y-113482096D01*
X159333399Y-113474397D01*
X159410805Y-113459000D01*
X159529195Y-113459000D01*
X159606601Y-113474397D01*
X159606601Y-113474397D01*
G37*
G36*
X141365562Y-112378181D02*
G01*
X141400481Y-112388774D01*
X141432663Y-112405976D01*
X141460873Y-112429127D01*
X141484024Y-112457337D01*
X141501226Y-112489519D01*
X141511819Y-112524438D01*
X141516000Y-112566895D01*
X141516000Y-114033105D01*
X141511819Y-114075562D01*
X141501226Y-114110481D01*
X141484024Y-114142663D01*
X141460873Y-114170873D01*
X141432663Y-114194024D01*
X141400481Y-114211226D01*
X141365562Y-114221819D01*
X141323105Y-114226000D01*
X140181895Y-114226000D01*
X140139438Y-114221819D01*
X140104519Y-114211226D01*
X140072337Y-114194024D01*
X140044127Y-114170873D01*
X140020976Y-114142663D01*
X140003774Y-114110481D01*
X139993181Y-114075562D01*
X139989000Y-114033105D01*
X139989000Y-112566895D01*
X139993181Y-112524438D01*
X140003774Y-112489519D01*
X140020976Y-112457337D01*
X140044127Y-112429127D01*
X140072337Y-112405976D01*
X140104519Y-112388774D01*
X140139438Y-112378181D01*
X140181895Y-112374000D01*
X141323105Y-112374000D01*
X141365562Y-112378181D01*
X141365562Y-112378181D01*
G37*
G36*
X144340562Y-112378181D02*
G01*
X144375481Y-112388774D01*
X144407663Y-112405976D01*
X144435873Y-112429127D01*
X144459024Y-112457337D01*
X144476226Y-112489519D01*
X144486819Y-112524438D01*
X144491000Y-112566895D01*
X144491000Y-114033105D01*
X144486819Y-114075562D01*
X144476226Y-114110481D01*
X144459024Y-114142663D01*
X144435873Y-114170873D01*
X144407663Y-114194024D01*
X144375481Y-114211226D01*
X144340562Y-114221819D01*
X144298105Y-114226000D01*
X143156895Y-114226000D01*
X143114438Y-114221819D01*
X143079519Y-114211226D01*
X143047337Y-114194024D01*
X143019127Y-114170873D01*
X142995976Y-114142663D01*
X142978774Y-114110481D01*
X142968181Y-114075562D01*
X142964000Y-114033105D01*
X142964000Y-112566895D01*
X142968181Y-112524438D01*
X142978774Y-112489519D01*
X142995976Y-112457337D01*
X143019127Y-112429127D01*
X143047337Y-112405976D01*
X143079519Y-112388774D01*
X143114438Y-112378181D01*
X143156895Y-112374000D01*
X144298105Y-112374000D01*
X144340562Y-112378181D01*
X144340562Y-112378181D01*
G37*
G36*
X158021000Y-113361000D02*
G01*
X155419000Y-113361000D01*
X155419000Y-112159000D01*
X158021000Y-112159000D01*
X158021000Y-113361000D01*
X158021000Y-113361000D01*
G37*
G36*
X88529294Y-111238633D02*
G01*
X88701695Y-111290931D01*
X88860583Y-111375858D01*
X88999849Y-111490151D01*
X89114142Y-111629417D01*
X89199069Y-111788305D01*
X89251367Y-111960706D01*
X89269025Y-112140000D01*
X89251367Y-112319294D01*
X89199069Y-112491695D01*
X89114142Y-112650583D01*
X88999849Y-112789849D01*
X88860583Y-112904142D01*
X88701695Y-112989069D01*
X88529294Y-113041367D01*
X88394931Y-113054600D01*
X88305069Y-113054600D01*
X88170706Y-113041367D01*
X87998305Y-112989069D01*
X87839417Y-112904142D01*
X87700151Y-112789849D01*
X87585858Y-112650583D01*
X87500931Y-112491695D01*
X87448633Y-112319294D01*
X87430975Y-112140000D01*
X87448633Y-111960706D01*
X87500931Y-111788305D01*
X87585858Y-111629417D01*
X87700151Y-111490151D01*
X87839417Y-111375858D01*
X87998305Y-111290931D01*
X88170706Y-111238633D01*
X88305069Y-111225400D01*
X88394931Y-111225400D01*
X88529294Y-111238633D01*
X88529294Y-111238633D01*
G37*
G36*
X91069294Y-111238633D02*
G01*
X91241695Y-111290931D01*
X91400583Y-111375858D01*
X91539849Y-111490151D01*
X91654142Y-111629417D01*
X91739069Y-111788305D01*
X91791367Y-111960706D01*
X91809025Y-112140000D01*
X91791367Y-112319294D01*
X91739069Y-112491695D01*
X91654142Y-112650583D01*
X91539849Y-112789849D01*
X91400583Y-112904142D01*
X91241695Y-112989069D01*
X91069294Y-113041367D01*
X90934931Y-113054600D01*
X90845069Y-113054600D01*
X90710706Y-113041367D01*
X90538305Y-112989069D01*
X90379417Y-112904142D01*
X90240151Y-112789849D01*
X90125858Y-112650583D01*
X90040931Y-112491695D01*
X89988633Y-112319294D01*
X89970975Y-112140000D01*
X89988633Y-111960706D01*
X90040931Y-111788305D01*
X90125858Y-111629417D01*
X90240151Y-111490151D01*
X90379417Y-111375858D01*
X90538305Y-111290931D01*
X90710706Y-111238633D01*
X90845069Y-111225400D01*
X90934931Y-111225400D01*
X91069294Y-111238633D01*
X91069294Y-111238633D01*
G37*
G36*
X128944928Y-110776764D02*
G01*
X128966009Y-110783160D01*
X128985445Y-110793548D01*
X129002476Y-110807524D01*
X129016452Y-110824555D01*
X129026840Y-110843991D01*
X129033236Y-110865072D01*
X129036000Y-110893140D01*
X129036000Y-111356860D01*
X129033236Y-111384928D01*
X129026840Y-111406009D01*
X129016452Y-111425445D01*
X129002476Y-111442476D01*
X128985445Y-111456452D01*
X128966009Y-111466840D01*
X128944928Y-111473236D01*
X128916860Y-111476000D01*
X127428140Y-111476000D01*
X127400072Y-111473236D01*
X127378991Y-111466840D01*
X127359555Y-111456452D01*
X127342524Y-111442476D01*
X127328548Y-111425445D01*
X127318160Y-111406009D01*
X127311764Y-111384928D01*
X127309000Y-111356860D01*
X127309000Y-110893140D01*
X127311764Y-110865072D01*
X127318160Y-110843991D01*
X127328548Y-110824555D01*
X127342524Y-110807524D01*
X127359555Y-110793548D01*
X127378991Y-110783160D01*
X127400072Y-110776764D01*
X127428140Y-110774000D01*
X128916860Y-110774000D01*
X128944928Y-110776764D01*
X128944928Y-110776764D01*
G37*
G36*
X134219928Y-110776764D02*
G01*
X134241009Y-110783160D01*
X134260445Y-110793548D01*
X134277476Y-110807524D01*
X134291452Y-110824555D01*
X134301840Y-110843991D01*
X134308236Y-110865072D01*
X134311000Y-110893140D01*
X134311000Y-111356860D01*
X134308236Y-111384928D01*
X134301840Y-111406009D01*
X134291452Y-111425445D01*
X134277476Y-111442476D01*
X134260445Y-111456452D01*
X134241009Y-111466840D01*
X134219928Y-111473236D01*
X134191860Y-111476000D01*
X132703140Y-111476000D01*
X132675072Y-111473236D01*
X132653991Y-111466840D01*
X132634555Y-111456452D01*
X132617524Y-111442476D01*
X132603548Y-111425445D01*
X132593160Y-111406009D01*
X132586764Y-111384928D01*
X132584000Y-111356860D01*
X132584000Y-110893140D01*
X132586764Y-110865072D01*
X132593160Y-110843991D01*
X132603548Y-110824555D01*
X132617524Y-110807524D01*
X132634555Y-110793548D01*
X132653991Y-110783160D01*
X132675072Y-110776764D01*
X132703140Y-110774000D01*
X134191860Y-110774000D01*
X134219928Y-110776764D01*
X134219928Y-110776764D01*
G37*
G36*
X144340562Y-109568181D02*
G01*
X144375481Y-109578774D01*
X144407663Y-109595976D01*
X144435873Y-109619127D01*
X144459024Y-109647337D01*
X144476226Y-109679519D01*
X144486819Y-109714438D01*
X144491000Y-109756895D01*
X144491000Y-111223105D01*
X144486819Y-111265562D01*
X144476226Y-111300481D01*
X144459024Y-111332663D01*
X144435873Y-111360873D01*
X144407663Y-111384024D01*
X144375481Y-111401226D01*
X144340562Y-111411819D01*
X144298105Y-111416000D01*
X143156895Y-111416000D01*
X143114438Y-111411819D01*
X143079519Y-111401226D01*
X143047337Y-111384024D01*
X143019127Y-111360873D01*
X142995976Y-111332663D01*
X142978774Y-111300481D01*
X142968181Y-111265562D01*
X142964000Y-111223105D01*
X142964000Y-109756895D01*
X142968181Y-109714438D01*
X142978774Y-109679519D01*
X142995976Y-109647337D01*
X143019127Y-109619127D01*
X143047337Y-109595976D01*
X143079519Y-109578774D01*
X143114438Y-109568181D01*
X143156895Y-109564000D01*
X144298105Y-109564000D01*
X144340562Y-109568181D01*
X144340562Y-109568181D01*
G37*
G36*
X141365562Y-109568181D02*
G01*
X141400481Y-109578774D01*
X141432663Y-109595976D01*
X141460873Y-109619127D01*
X141484024Y-109647337D01*
X141501226Y-109679519D01*
X141511819Y-109714438D01*
X141516000Y-109756895D01*
X141516000Y-111223105D01*
X141511819Y-111265562D01*
X141501226Y-111300481D01*
X141484024Y-111332663D01*
X141460873Y-111360873D01*
X141432663Y-111384024D01*
X141400481Y-111401226D01*
X141365562Y-111411819D01*
X141323105Y-111416000D01*
X140181895Y-111416000D01*
X140139438Y-111411819D01*
X140104519Y-111401226D01*
X140072337Y-111384024D01*
X140044127Y-111360873D01*
X140020976Y-111332663D01*
X140003774Y-111300481D01*
X139993181Y-111265562D01*
X139989000Y-111223105D01*
X139989000Y-109756895D01*
X139993181Y-109714438D01*
X140003774Y-109679519D01*
X140020976Y-109647337D01*
X140044127Y-109619127D01*
X140072337Y-109595976D01*
X140104519Y-109578774D01*
X140139438Y-109568181D01*
X140181895Y-109564000D01*
X141323105Y-109564000D01*
X141365562Y-109568181D01*
X141365562Y-109568181D01*
G37*
G36*
X158021000Y-111361000D02*
G01*
X155419000Y-111361000D01*
X155419000Y-110159000D01*
X158021000Y-110159000D01*
X158021000Y-111361000D01*
X158021000Y-111361000D01*
G37*
G36*
X150448674Y-109623465D02*
G01*
X150486367Y-109634899D01*
X150521103Y-109653466D01*
X150551548Y-109678452D01*
X150576534Y-109708897D01*
X150595101Y-109743633D01*
X150606535Y-109781326D01*
X150611000Y-109826661D01*
X150611000Y-110663339D01*
X150606535Y-110708674D01*
X150595101Y-110746367D01*
X150576534Y-110781103D01*
X150551548Y-110811548D01*
X150521103Y-110836534D01*
X150486367Y-110855101D01*
X150448674Y-110866535D01*
X150403339Y-110871000D01*
X149316661Y-110871000D01*
X149271326Y-110866535D01*
X149233633Y-110855101D01*
X149198897Y-110836534D01*
X149168452Y-110811548D01*
X149143466Y-110781103D01*
X149124899Y-110746367D01*
X149113465Y-110708674D01*
X149109000Y-110663339D01*
X149109000Y-109826661D01*
X149113465Y-109781326D01*
X149124899Y-109743633D01*
X149143466Y-109708897D01*
X149168452Y-109678452D01*
X149198897Y-109653466D01*
X149233633Y-109634899D01*
X149271326Y-109623465D01*
X149316661Y-109619000D01*
X150403339Y-109619000D01*
X150448674Y-109623465D01*
X150448674Y-109623465D01*
G37*
G36*
X131989094Y-107572667D02*
G01*
X132018995Y-107581738D01*
X132046552Y-107596468D01*
X132070708Y-107616292D01*
X132090532Y-107640448D01*
X132105262Y-107668005D01*
X132114333Y-107697906D01*
X132118000Y-107735144D01*
X132118000Y-110704856D01*
X132114333Y-110742094D01*
X132105262Y-110771995D01*
X132090532Y-110799552D01*
X132070708Y-110823708D01*
X132046552Y-110843532D01*
X132018995Y-110858262D01*
X131989094Y-110867333D01*
X131951856Y-110871000D01*
X129668144Y-110871000D01*
X129630906Y-110867333D01*
X129601005Y-110858262D01*
X129573448Y-110843532D01*
X129549292Y-110823708D01*
X129529468Y-110799552D01*
X129514738Y-110771995D01*
X129505667Y-110742094D01*
X129502000Y-110704856D01*
X129502000Y-107735144D01*
X129505667Y-107697906D01*
X129514738Y-107668005D01*
X129529468Y-107640448D01*
X129549292Y-107616292D01*
X129573448Y-107596468D01*
X129601005Y-107581738D01*
X129630906Y-107572667D01*
X129668144Y-107569000D01*
X131951856Y-107569000D01*
X131989094Y-107572667D01*
X131989094Y-107572667D01*
G37*
G36*
X91156778Y-108720547D02*
G01*
X91323224Y-108789491D01*
X91473022Y-108889583D01*
X91600417Y-109016978D01*
X91700509Y-109166776D01*
X91769453Y-109333222D01*
X91804600Y-109509918D01*
X91804600Y-109690082D01*
X91769453Y-109866778D01*
X91700509Y-110033224D01*
X91600417Y-110183022D01*
X91473022Y-110310417D01*
X91323224Y-110410509D01*
X91156778Y-110479453D01*
X90980082Y-110514600D01*
X90799918Y-110514600D01*
X90623222Y-110479453D01*
X90456776Y-110410509D01*
X90306978Y-110310417D01*
X90179583Y-110183022D01*
X90079491Y-110033224D01*
X90010547Y-109866778D01*
X89975400Y-109690082D01*
X89975400Y-109509918D01*
X90010547Y-109333222D01*
X90079491Y-109166776D01*
X90179583Y-109016978D01*
X90306978Y-108889583D01*
X90456776Y-108789491D01*
X90623222Y-108720547D01*
X90799918Y-108685400D01*
X90980082Y-108685400D01*
X91156778Y-108720547D01*
X91156778Y-108720547D01*
G37*
G36*
X88616778Y-108720547D02*
G01*
X88783224Y-108789491D01*
X88933022Y-108889583D01*
X89060417Y-109016978D01*
X89160509Y-109166776D01*
X89229453Y-109333222D01*
X89264600Y-109509918D01*
X89264600Y-109690082D01*
X89229453Y-109866778D01*
X89160509Y-110033224D01*
X89060417Y-110183022D01*
X88933022Y-110310417D01*
X88783224Y-110410509D01*
X88616778Y-110479453D01*
X88440082Y-110514600D01*
X88259918Y-110514600D01*
X88083222Y-110479453D01*
X87916776Y-110410509D01*
X87766978Y-110310417D01*
X87639583Y-110183022D01*
X87539491Y-110033224D01*
X87470547Y-109866778D01*
X87435400Y-109690082D01*
X87435400Y-109509918D01*
X87470547Y-109333222D01*
X87539491Y-109166776D01*
X87639583Y-109016978D01*
X87766978Y-108889583D01*
X87916776Y-108789491D01*
X88083222Y-108720547D01*
X88259918Y-108685400D01*
X88440082Y-108685400D01*
X88616778Y-108720547D01*
X88616778Y-108720547D01*
G37*
G36*
X134219928Y-109506764D02*
G01*
X134241009Y-109513160D01*
X134260445Y-109523548D01*
X134277476Y-109537524D01*
X134291452Y-109554555D01*
X134301840Y-109573991D01*
X134308236Y-109595072D01*
X134311000Y-109623140D01*
X134311000Y-110086860D01*
X134308236Y-110114928D01*
X134301840Y-110136009D01*
X134291452Y-110155445D01*
X134277476Y-110172476D01*
X134260445Y-110186452D01*
X134241009Y-110196840D01*
X134219928Y-110203236D01*
X134191860Y-110206000D01*
X132703140Y-110206000D01*
X132675072Y-110203236D01*
X132653991Y-110196840D01*
X132634555Y-110186452D01*
X132617524Y-110172476D01*
X132603548Y-110155445D01*
X132593160Y-110136009D01*
X132586764Y-110114928D01*
X132584000Y-110086860D01*
X132584000Y-109623140D01*
X132586764Y-109595072D01*
X132593160Y-109573991D01*
X132603548Y-109554555D01*
X132617524Y-109537524D01*
X132634555Y-109523548D01*
X132653991Y-109513160D01*
X132675072Y-109506764D01*
X132703140Y-109504000D01*
X134191860Y-109504000D01*
X134219928Y-109506764D01*
X134219928Y-109506764D01*
G37*
G36*
X128944928Y-109506764D02*
G01*
X128966009Y-109513160D01*
X128985445Y-109523548D01*
X129002476Y-109537524D01*
X129016452Y-109554555D01*
X129026840Y-109573991D01*
X129033236Y-109595072D01*
X129036000Y-109623140D01*
X129036000Y-110086860D01*
X129033236Y-110114928D01*
X129026840Y-110136009D01*
X129016452Y-110155445D01*
X129002476Y-110172476D01*
X128985445Y-110186452D01*
X128966009Y-110196840D01*
X128944928Y-110203236D01*
X128916860Y-110206000D01*
X127428140Y-110206000D01*
X127400072Y-110203236D01*
X127378991Y-110196840D01*
X127359555Y-110186452D01*
X127342524Y-110172476D01*
X127328548Y-110155445D01*
X127318160Y-110136009D01*
X127311764Y-110114928D01*
X127309000Y-110086860D01*
X127309000Y-109623140D01*
X127311764Y-109595072D01*
X127318160Y-109573991D01*
X127328548Y-109554555D01*
X127342524Y-109537524D01*
X127359555Y-109523548D01*
X127378991Y-109513160D01*
X127400072Y-109506764D01*
X127428140Y-109504000D01*
X128916860Y-109504000D01*
X128944928Y-109506764D01*
X128944928Y-109506764D01*
G37*
G36*
X159606601Y-108874397D02*
G01*
X159645305Y-108882096D01*
X159663380Y-108889583D01*
X159754680Y-108927400D01*
X159853115Y-108993173D01*
X159936827Y-109076885D01*
X160002600Y-109175320D01*
X160047904Y-109284696D01*
X160071000Y-109400805D01*
X160071000Y-109519195D01*
X160060100Y-109573991D01*
X160047904Y-109635305D01*
X160042920Y-109647337D01*
X160002600Y-109744680D01*
X159936827Y-109843115D01*
X159853115Y-109926827D01*
X159754680Y-109992600D01*
X159677340Y-110024635D01*
X159645305Y-110037904D01*
X159606601Y-110045603D01*
X159529195Y-110061000D01*
X159410805Y-110061000D01*
X159333399Y-110045603D01*
X159294695Y-110037904D01*
X159262660Y-110024635D01*
X159185320Y-109992600D01*
X159086885Y-109926827D01*
X159003173Y-109843115D01*
X158937400Y-109744680D01*
X158897080Y-109647337D01*
X158892096Y-109635305D01*
X158879900Y-109573991D01*
X158869000Y-109519195D01*
X158869000Y-109400805D01*
X158892096Y-109284696D01*
X158937400Y-109175320D01*
X159003173Y-109076885D01*
X159086885Y-108993173D01*
X159185320Y-108927400D01*
X159276620Y-108889583D01*
X159294695Y-108882096D01*
X159333399Y-108874397D01*
X159410805Y-108859000D01*
X159529195Y-108859000D01*
X159606601Y-108874397D01*
X159606601Y-108874397D01*
G37*
G36*
X134219928Y-108236764D02*
G01*
X134241009Y-108243160D01*
X134260445Y-108253548D01*
X134277476Y-108267524D01*
X134291452Y-108284555D01*
X134301840Y-108303991D01*
X134308236Y-108325072D01*
X134311000Y-108353140D01*
X134311000Y-108816860D01*
X134308236Y-108844928D01*
X134301840Y-108866009D01*
X134291452Y-108885445D01*
X134277476Y-108902476D01*
X134260445Y-108916452D01*
X134241009Y-108926840D01*
X134219928Y-108933236D01*
X134191860Y-108936000D01*
X132703140Y-108936000D01*
X132675072Y-108933236D01*
X132653991Y-108926840D01*
X132634555Y-108916452D01*
X132617524Y-108902476D01*
X132603548Y-108885445D01*
X132593160Y-108866009D01*
X132586764Y-108844928D01*
X132584000Y-108816860D01*
X132584000Y-108353140D01*
X132586764Y-108325072D01*
X132593160Y-108303991D01*
X132603548Y-108284555D01*
X132617524Y-108267524D01*
X132634555Y-108253548D01*
X132653991Y-108243160D01*
X132675072Y-108236764D01*
X132703140Y-108234000D01*
X134191860Y-108234000D01*
X134219928Y-108236764D01*
X134219928Y-108236764D01*
G37*
G36*
X128944928Y-108236764D02*
G01*
X128966009Y-108243160D01*
X128985445Y-108253548D01*
X129002476Y-108267524D01*
X129016452Y-108284555D01*
X129026840Y-108303991D01*
X129033236Y-108325072D01*
X129036000Y-108353140D01*
X129036000Y-108816860D01*
X129033236Y-108844928D01*
X129026840Y-108866009D01*
X129016452Y-108885445D01*
X129002476Y-108902476D01*
X128985445Y-108916452D01*
X128966009Y-108926840D01*
X128944928Y-108933236D01*
X128916860Y-108936000D01*
X127428140Y-108936000D01*
X127400072Y-108933236D01*
X127378991Y-108926840D01*
X127359555Y-108916452D01*
X127342524Y-108902476D01*
X127328548Y-108885445D01*
X127318160Y-108866009D01*
X127311764Y-108844928D01*
X127309000Y-108816860D01*
X127309000Y-108353140D01*
X127311764Y-108325072D01*
X127318160Y-108303991D01*
X127328548Y-108284555D01*
X127342524Y-108267524D01*
X127359555Y-108253548D01*
X127378991Y-108243160D01*
X127400072Y-108236764D01*
X127428140Y-108234000D01*
X128916860Y-108234000D01*
X128944928Y-108236764D01*
X128944928Y-108236764D01*
G37*
G36*
X158021000Y-108861000D02*
G01*
X155419000Y-108861000D01*
X155419000Y-107659000D01*
X158021000Y-107659000D01*
X158021000Y-108861000D01*
X158021000Y-108861000D01*
G37*
G36*
X150448674Y-107573465D02*
G01*
X150486367Y-107584899D01*
X150521103Y-107603466D01*
X150551548Y-107628452D01*
X150576534Y-107658897D01*
X150595101Y-107693633D01*
X150606535Y-107731326D01*
X150611000Y-107776661D01*
X150611000Y-108613339D01*
X150606535Y-108658674D01*
X150595101Y-108696367D01*
X150576534Y-108731103D01*
X150551548Y-108761548D01*
X150521103Y-108786534D01*
X150486367Y-108805101D01*
X150448674Y-108816535D01*
X150403339Y-108821000D01*
X149316661Y-108821000D01*
X149271326Y-108816535D01*
X149233633Y-108805101D01*
X149198897Y-108786534D01*
X149168452Y-108761548D01*
X149143466Y-108731103D01*
X149124899Y-108696367D01*
X149113465Y-108658674D01*
X149109000Y-108613339D01*
X149109000Y-107776661D01*
X149113465Y-107731326D01*
X149124899Y-107693633D01*
X149143466Y-107658897D01*
X149168452Y-107628452D01*
X149198897Y-107603466D01*
X149233633Y-107584899D01*
X149271326Y-107573465D01*
X149316661Y-107569000D01*
X150403339Y-107569000D01*
X150448674Y-107573465D01*
X150448674Y-107573465D01*
G37*
G36*
X141365562Y-106778181D02*
G01*
X141400481Y-106788774D01*
X141432663Y-106805976D01*
X141460873Y-106829127D01*
X141484024Y-106857337D01*
X141501226Y-106889519D01*
X141511819Y-106924438D01*
X141516000Y-106966895D01*
X141516000Y-108433105D01*
X141511819Y-108475562D01*
X141501226Y-108510481D01*
X141484024Y-108542663D01*
X141460873Y-108570873D01*
X141432663Y-108594024D01*
X141400481Y-108611226D01*
X141365562Y-108621819D01*
X141323105Y-108626000D01*
X140181895Y-108626000D01*
X140139438Y-108621819D01*
X140104519Y-108611226D01*
X140072337Y-108594024D01*
X140044127Y-108570873D01*
X140020976Y-108542663D01*
X140003774Y-108510481D01*
X139993181Y-108475562D01*
X139989000Y-108433105D01*
X139989000Y-106966895D01*
X139993181Y-106924438D01*
X140003774Y-106889519D01*
X140020976Y-106857337D01*
X140044127Y-106829127D01*
X140072337Y-106805976D01*
X140104519Y-106788774D01*
X140139438Y-106778181D01*
X140181895Y-106774000D01*
X141323105Y-106774000D01*
X141365562Y-106778181D01*
X141365562Y-106778181D01*
G37*
G36*
X144340562Y-106778181D02*
G01*
X144375481Y-106788774D01*
X144407663Y-106805976D01*
X144435873Y-106829127D01*
X144459024Y-106857337D01*
X144476226Y-106889519D01*
X144486819Y-106924438D01*
X144491000Y-106966895D01*
X144491000Y-108433105D01*
X144486819Y-108475562D01*
X144476226Y-108510481D01*
X144459024Y-108542663D01*
X144435873Y-108570873D01*
X144407663Y-108594024D01*
X144375481Y-108611226D01*
X144340562Y-108621819D01*
X144298105Y-108626000D01*
X143156895Y-108626000D01*
X143114438Y-108621819D01*
X143079519Y-108611226D01*
X143047337Y-108594024D01*
X143019127Y-108570873D01*
X142995976Y-108542663D01*
X142978774Y-108510481D01*
X142968181Y-108475562D01*
X142964000Y-108433105D01*
X142964000Y-106966895D01*
X142968181Y-106924438D01*
X142978774Y-106889519D01*
X142995976Y-106857337D01*
X143019127Y-106829127D01*
X143047337Y-106805976D01*
X143079519Y-106788774D01*
X143114438Y-106778181D01*
X143156895Y-106774000D01*
X144298105Y-106774000D01*
X144340562Y-106778181D01*
X144340562Y-106778181D01*
G37*
G36*
X134219928Y-106966764D02*
G01*
X134241009Y-106973160D01*
X134260445Y-106983548D01*
X134277476Y-106997524D01*
X134291452Y-107014555D01*
X134301840Y-107033991D01*
X134308236Y-107055072D01*
X134311000Y-107083140D01*
X134311000Y-107546860D01*
X134308236Y-107574928D01*
X134301840Y-107596009D01*
X134291452Y-107615445D01*
X134277476Y-107632476D01*
X134260445Y-107646452D01*
X134241009Y-107656840D01*
X134219928Y-107663236D01*
X134191860Y-107666000D01*
X132703140Y-107666000D01*
X132675072Y-107663236D01*
X132653991Y-107656840D01*
X132634555Y-107646452D01*
X132617524Y-107632476D01*
X132603548Y-107615445D01*
X132593160Y-107596009D01*
X132586764Y-107574928D01*
X132584000Y-107546860D01*
X132584000Y-107083140D01*
X132586764Y-107055072D01*
X132593160Y-107033991D01*
X132603548Y-107014555D01*
X132617524Y-106997524D01*
X132634555Y-106983548D01*
X132653991Y-106973160D01*
X132675072Y-106966764D01*
X132703140Y-106964000D01*
X134191860Y-106964000D01*
X134219928Y-106966764D01*
X134219928Y-106966764D01*
G37*
G36*
X128944928Y-106966764D02*
G01*
X128966009Y-106973160D01*
X128985445Y-106983548D01*
X129002476Y-106997524D01*
X129016452Y-107014555D01*
X129026840Y-107033991D01*
X129033236Y-107055072D01*
X129036000Y-107083140D01*
X129036000Y-107546860D01*
X129033236Y-107574928D01*
X129026840Y-107596009D01*
X129016452Y-107615445D01*
X129002476Y-107632476D01*
X128985445Y-107646452D01*
X128966009Y-107656840D01*
X128944928Y-107663236D01*
X128916860Y-107666000D01*
X127428140Y-107666000D01*
X127400072Y-107663236D01*
X127378991Y-107656840D01*
X127359555Y-107646452D01*
X127342524Y-107632476D01*
X127328548Y-107615445D01*
X127318160Y-107596009D01*
X127311764Y-107574928D01*
X127309000Y-107546860D01*
X127309000Y-107083140D01*
X127311764Y-107055072D01*
X127318160Y-107033991D01*
X127328548Y-107014555D01*
X127342524Y-106997524D01*
X127359555Y-106983548D01*
X127378991Y-106973160D01*
X127400072Y-106966764D01*
X127428140Y-106964000D01*
X128916860Y-106964000D01*
X128944928Y-106966764D01*
X128944928Y-106966764D01*
G37*
G36*
X160466228Y-105073483D02*
G01*
X160654922Y-105130723D01*
X160828815Y-105223671D01*
X160981239Y-105348761D01*
X161106329Y-105501185D01*
X161199277Y-105675078D01*
X161256517Y-105863772D01*
X161275843Y-106060000D01*
X161256517Y-106256228D01*
X161199277Y-106444922D01*
X161106329Y-106618815D01*
X160981239Y-106771239D01*
X160828815Y-106896329D01*
X160654922Y-106989277D01*
X160466228Y-107046517D01*
X160319175Y-107061000D01*
X158620825Y-107061000D01*
X158473772Y-107046517D01*
X158285078Y-106989277D01*
X158111185Y-106896329D01*
X157958761Y-106771239D01*
X157833671Y-106618815D01*
X157740723Y-106444922D01*
X157683483Y-106256228D01*
X157664157Y-106060000D01*
X157683483Y-105863772D01*
X157740723Y-105675078D01*
X157833671Y-105501185D01*
X157958761Y-105348761D01*
X158111185Y-105223671D01*
X158285078Y-105130723D01*
X158473772Y-105073483D01*
X158620825Y-105059000D01*
X160319175Y-105059000D01*
X160466228Y-105073483D01*
X160466228Y-105073483D01*
G37*
M02*
