G04 #@! TF.GenerationSoftware,KiCad,Pcbnew,(5.1.4)-1*
G04 #@! TF.CreationDate,2020-08-24T20:29:47-05:00*
G04 #@! TF.ProjectId,NiteLite,4e697465-4c69-4746-952e-6b696361645f,rev?*
G04 #@! TF.SameCoordinates,Original*
G04 #@! TF.FileFunction,Copper,L1,Top*
G04 #@! TF.FilePolarity,Positive*
%FSLAX46Y46*%
G04 Gerber Fmt 4.6, Leading zero omitted, Abs format (unit mm)*
G04 Created by KiCad (PCBNEW (5.1.4)-1) date 2020-08-24 20:29:47*
%MOMM*%
%LPD*%
G04 APERTURE LIST*
%ADD10R,1.727200X1.727200*%
%ADD11O,1.727200X1.727200*%
%ADD12C,1.727200*%
%ADD13C,0.100000*%
%ADD14C,1.150000*%
%ADD15R,2.200000X3.800000*%
%ADD16R,2.200000X1.500000*%
%ADD17O,3.500000X1.900000*%
%ADD18R,2.500000X1.100000*%
%ADD19C,0.600000*%
%ADD20C,2.514000*%
%ADD21C,1.425000*%
%ADD22R,0.450000X1.300000*%
%ADD23O,1.450000X2.000000*%
%ADD24O,1.150000X1.800000*%
%ADD25R,8.000000X5.560000*%
%ADD26R,2.600000X5.560000*%
%ADD27C,0.800000*%
%ADD28C,0.250000*%
G04 APERTURE END LIST*
D10*
X90890000Y-114680000D03*
D11*
X88350000Y-114680000D03*
X90890000Y-112140000D03*
X88350000Y-112140000D03*
D12*
X90890000Y-109600000D03*
X88350000Y-109600000D03*
D13*
G36*
X153674505Y-116976204D02*
G01*
X153698773Y-116979804D01*
X153722572Y-116985765D01*
X153745671Y-116994030D01*
X153767850Y-117004520D01*
X153788893Y-117017132D01*
X153808599Y-117031747D01*
X153826777Y-117048223D01*
X153843253Y-117066401D01*
X153857868Y-117086107D01*
X153870480Y-117107150D01*
X153880970Y-117129329D01*
X153889235Y-117152428D01*
X153895196Y-117176227D01*
X153898796Y-117200495D01*
X153900000Y-117224999D01*
X153900000Y-117875001D01*
X153898796Y-117899505D01*
X153895196Y-117923773D01*
X153889235Y-117947572D01*
X153880970Y-117970671D01*
X153870480Y-117992850D01*
X153857868Y-118013893D01*
X153843253Y-118033599D01*
X153826777Y-118051777D01*
X153808599Y-118068253D01*
X153788893Y-118082868D01*
X153767850Y-118095480D01*
X153745671Y-118105970D01*
X153722572Y-118114235D01*
X153698773Y-118120196D01*
X153674505Y-118123796D01*
X153650001Y-118125000D01*
X152749999Y-118125000D01*
X152725495Y-118123796D01*
X152701227Y-118120196D01*
X152677428Y-118114235D01*
X152654329Y-118105970D01*
X152632150Y-118095480D01*
X152611107Y-118082868D01*
X152591401Y-118068253D01*
X152573223Y-118051777D01*
X152556747Y-118033599D01*
X152542132Y-118013893D01*
X152529520Y-117992850D01*
X152519030Y-117970671D01*
X152510765Y-117947572D01*
X152504804Y-117923773D01*
X152501204Y-117899505D01*
X152500000Y-117875001D01*
X152500000Y-117224999D01*
X152501204Y-117200495D01*
X152504804Y-117176227D01*
X152510765Y-117152428D01*
X152519030Y-117129329D01*
X152529520Y-117107150D01*
X152542132Y-117086107D01*
X152556747Y-117066401D01*
X152573223Y-117048223D01*
X152591401Y-117031747D01*
X152611107Y-117017132D01*
X152632150Y-117004520D01*
X152654329Y-116994030D01*
X152677428Y-116985765D01*
X152701227Y-116979804D01*
X152725495Y-116976204D01*
X152749999Y-116975000D01*
X153650001Y-116975000D01*
X153674505Y-116976204D01*
X153674505Y-116976204D01*
G37*
D14*
X153200000Y-117550000D03*
D13*
G36*
X153674505Y-119026204D02*
G01*
X153698773Y-119029804D01*
X153722572Y-119035765D01*
X153745671Y-119044030D01*
X153767850Y-119054520D01*
X153788893Y-119067132D01*
X153808599Y-119081747D01*
X153826777Y-119098223D01*
X153843253Y-119116401D01*
X153857868Y-119136107D01*
X153870480Y-119157150D01*
X153880970Y-119179329D01*
X153889235Y-119202428D01*
X153895196Y-119226227D01*
X153898796Y-119250495D01*
X153900000Y-119274999D01*
X153900000Y-119925001D01*
X153898796Y-119949505D01*
X153895196Y-119973773D01*
X153889235Y-119997572D01*
X153880970Y-120020671D01*
X153870480Y-120042850D01*
X153857868Y-120063893D01*
X153843253Y-120083599D01*
X153826777Y-120101777D01*
X153808599Y-120118253D01*
X153788893Y-120132868D01*
X153767850Y-120145480D01*
X153745671Y-120155970D01*
X153722572Y-120164235D01*
X153698773Y-120170196D01*
X153674505Y-120173796D01*
X153650001Y-120175000D01*
X152749999Y-120175000D01*
X152725495Y-120173796D01*
X152701227Y-120170196D01*
X152677428Y-120164235D01*
X152654329Y-120155970D01*
X152632150Y-120145480D01*
X152611107Y-120132868D01*
X152591401Y-120118253D01*
X152573223Y-120101777D01*
X152556747Y-120083599D01*
X152542132Y-120063893D01*
X152529520Y-120042850D01*
X152519030Y-120020671D01*
X152510765Y-119997572D01*
X152504804Y-119973773D01*
X152501204Y-119949505D01*
X152500000Y-119925001D01*
X152500000Y-119274999D01*
X152501204Y-119250495D01*
X152504804Y-119226227D01*
X152510765Y-119202428D01*
X152519030Y-119179329D01*
X152529520Y-119157150D01*
X152542132Y-119136107D01*
X152556747Y-119116401D01*
X152573223Y-119098223D01*
X152591401Y-119081747D01*
X152611107Y-119067132D01*
X152632150Y-119054520D01*
X152654329Y-119044030D01*
X152677428Y-119035765D01*
X152701227Y-119029804D01*
X152725495Y-119026204D01*
X152749999Y-119025000D01*
X153650001Y-119025000D01*
X153674505Y-119026204D01*
X153674505Y-119026204D01*
G37*
D14*
X153200000Y-119600000D03*
D15*
X129540000Y-118110000D03*
D16*
X135840000Y-120410000D03*
X135840000Y-118110000D03*
X135840000Y-115810000D03*
D17*
X159470000Y-117460000D03*
X159470000Y-106060000D03*
D18*
X156720000Y-115260000D03*
X156720000Y-108260000D03*
X156720000Y-112760000D03*
X156720000Y-110760000D03*
D13*
G36*
X150334505Y-113971204D02*
G01*
X150358773Y-113974804D01*
X150382572Y-113980765D01*
X150405671Y-113989030D01*
X150427850Y-113999520D01*
X150448893Y-114012132D01*
X150468599Y-114026747D01*
X150486777Y-114043223D01*
X150503253Y-114061401D01*
X150517868Y-114081107D01*
X150530480Y-114102150D01*
X150540970Y-114124329D01*
X150549235Y-114147428D01*
X150555196Y-114171227D01*
X150558796Y-114195495D01*
X150560000Y-114219999D01*
X150560000Y-114870001D01*
X150558796Y-114894505D01*
X150555196Y-114918773D01*
X150549235Y-114942572D01*
X150540970Y-114965671D01*
X150530480Y-114987850D01*
X150517868Y-115008893D01*
X150503253Y-115028599D01*
X150486777Y-115046777D01*
X150468599Y-115063253D01*
X150448893Y-115077868D01*
X150427850Y-115090480D01*
X150405671Y-115100970D01*
X150382572Y-115109235D01*
X150358773Y-115115196D01*
X150334505Y-115118796D01*
X150310001Y-115120000D01*
X149409999Y-115120000D01*
X149385495Y-115118796D01*
X149361227Y-115115196D01*
X149337428Y-115109235D01*
X149314329Y-115100970D01*
X149292150Y-115090480D01*
X149271107Y-115077868D01*
X149251401Y-115063253D01*
X149233223Y-115046777D01*
X149216747Y-115028599D01*
X149202132Y-115008893D01*
X149189520Y-114987850D01*
X149179030Y-114965671D01*
X149170765Y-114942572D01*
X149164804Y-114918773D01*
X149161204Y-114894505D01*
X149160000Y-114870001D01*
X149160000Y-114219999D01*
X149161204Y-114195495D01*
X149164804Y-114171227D01*
X149170765Y-114147428D01*
X149179030Y-114124329D01*
X149189520Y-114102150D01*
X149202132Y-114081107D01*
X149216747Y-114061401D01*
X149233223Y-114043223D01*
X149251401Y-114026747D01*
X149271107Y-114012132D01*
X149292150Y-113999520D01*
X149314329Y-113989030D01*
X149337428Y-113980765D01*
X149361227Y-113974804D01*
X149385495Y-113971204D01*
X149409999Y-113970000D01*
X150310001Y-113970000D01*
X150334505Y-113971204D01*
X150334505Y-113971204D01*
G37*
D14*
X149860000Y-114545000D03*
D13*
G36*
X150334505Y-116021204D02*
G01*
X150358773Y-116024804D01*
X150382572Y-116030765D01*
X150405671Y-116039030D01*
X150427850Y-116049520D01*
X150448893Y-116062132D01*
X150468599Y-116076747D01*
X150486777Y-116093223D01*
X150503253Y-116111401D01*
X150517868Y-116131107D01*
X150530480Y-116152150D01*
X150540970Y-116174329D01*
X150549235Y-116197428D01*
X150555196Y-116221227D01*
X150558796Y-116245495D01*
X150560000Y-116269999D01*
X150560000Y-116920001D01*
X150558796Y-116944505D01*
X150555196Y-116968773D01*
X150549235Y-116992572D01*
X150540970Y-117015671D01*
X150530480Y-117037850D01*
X150517868Y-117058893D01*
X150503253Y-117078599D01*
X150486777Y-117096777D01*
X150468599Y-117113253D01*
X150448893Y-117127868D01*
X150427850Y-117140480D01*
X150405671Y-117150970D01*
X150382572Y-117159235D01*
X150358773Y-117165196D01*
X150334505Y-117168796D01*
X150310001Y-117170000D01*
X149409999Y-117170000D01*
X149385495Y-117168796D01*
X149361227Y-117165196D01*
X149337428Y-117159235D01*
X149314329Y-117150970D01*
X149292150Y-117140480D01*
X149271107Y-117127868D01*
X149251401Y-117113253D01*
X149233223Y-117096777D01*
X149216747Y-117078599D01*
X149202132Y-117058893D01*
X149189520Y-117037850D01*
X149179030Y-117015671D01*
X149170765Y-116992572D01*
X149164804Y-116968773D01*
X149161204Y-116944505D01*
X149160000Y-116920001D01*
X149160000Y-116269999D01*
X149161204Y-116245495D01*
X149164804Y-116221227D01*
X149170765Y-116197428D01*
X149179030Y-116174329D01*
X149189520Y-116152150D01*
X149202132Y-116131107D01*
X149216747Y-116111401D01*
X149233223Y-116093223D01*
X149251401Y-116076747D01*
X149271107Y-116062132D01*
X149292150Y-116049520D01*
X149314329Y-116039030D01*
X149337428Y-116030765D01*
X149361227Y-116024804D01*
X149385495Y-116021204D01*
X149409999Y-116020000D01*
X150310001Y-116020000D01*
X150334505Y-116021204D01*
X150334505Y-116021204D01*
G37*
D14*
X149860000Y-116595000D03*
D13*
G36*
X134124703Y-107015722D02*
G01*
X134139264Y-107017882D01*
X134153543Y-107021459D01*
X134167403Y-107026418D01*
X134180710Y-107032712D01*
X134193336Y-107040280D01*
X134205159Y-107049048D01*
X134216066Y-107058934D01*
X134225952Y-107069841D01*
X134234720Y-107081664D01*
X134242288Y-107094290D01*
X134248582Y-107107597D01*
X134253541Y-107121457D01*
X134257118Y-107135736D01*
X134259278Y-107150297D01*
X134260000Y-107165000D01*
X134260000Y-107465000D01*
X134259278Y-107479703D01*
X134257118Y-107494264D01*
X134253541Y-107508543D01*
X134248582Y-107522403D01*
X134242288Y-107535710D01*
X134234720Y-107548336D01*
X134225952Y-107560159D01*
X134216066Y-107571066D01*
X134205159Y-107580952D01*
X134193336Y-107589720D01*
X134180710Y-107597288D01*
X134167403Y-107603582D01*
X134153543Y-107608541D01*
X134139264Y-107612118D01*
X134124703Y-107614278D01*
X134110000Y-107615000D01*
X132785000Y-107615000D01*
X132770297Y-107614278D01*
X132755736Y-107612118D01*
X132741457Y-107608541D01*
X132727597Y-107603582D01*
X132714290Y-107597288D01*
X132701664Y-107589720D01*
X132689841Y-107580952D01*
X132678934Y-107571066D01*
X132669048Y-107560159D01*
X132660280Y-107548336D01*
X132652712Y-107535710D01*
X132646418Y-107522403D01*
X132641459Y-107508543D01*
X132637882Y-107494264D01*
X132635722Y-107479703D01*
X132635000Y-107465000D01*
X132635000Y-107165000D01*
X132635722Y-107150297D01*
X132637882Y-107135736D01*
X132641459Y-107121457D01*
X132646418Y-107107597D01*
X132652712Y-107094290D01*
X132660280Y-107081664D01*
X132669048Y-107069841D01*
X132678934Y-107058934D01*
X132689841Y-107049048D01*
X132701664Y-107040280D01*
X132714290Y-107032712D01*
X132727597Y-107026418D01*
X132741457Y-107021459D01*
X132755736Y-107017882D01*
X132770297Y-107015722D01*
X132785000Y-107015000D01*
X134110000Y-107015000D01*
X134124703Y-107015722D01*
X134124703Y-107015722D01*
G37*
D19*
X133447500Y-107315000D03*
D13*
G36*
X134124703Y-108285722D02*
G01*
X134139264Y-108287882D01*
X134153543Y-108291459D01*
X134167403Y-108296418D01*
X134180710Y-108302712D01*
X134193336Y-108310280D01*
X134205159Y-108319048D01*
X134216066Y-108328934D01*
X134225952Y-108339841D01*
X134234720Y-108351664D01*
X134242288Y-108364290D01*
X134248582Y-108377597D01*
X134253541Y-108391457D01*
X134257118Y-108405736D01*
X134259278Y-108420297D01*
X134260000Y-108435000D01*
X134260000Y-108735000D01*
X134259278Y-108749703D01*
X134257118Y-108764264D01*
X134253541Y-108778543D01*
X134248582Y-108792403D01*
X134242288Y-108805710D01*
X134234720Y-108818336D01*
X134225952Y-108830159D01*
X134216066Y-108841066D01*
X134205159Y-108850952D01*
X134193336Y-108859720D01*
X134180710Y-108867288D01*
X134167403Y-108873582D01*
X134153543Y-108878541D01*
X134139264Y-108882118D01*
X134124703Y-108884278D01*
X134110000Y-108885000D01*
X132785000Y-108885000D01*
X132770297Y-108884278D01*
X132755736Y-108882118D01*
X132741457Y-108878541D01*
X132727597Y-108873582D01*
X132714290Y-108867288D01*
X132701664Y-108859720D01*
X132689841Y-108850952D01*
X132678934Y-108841066D01*
X132669048Y-108830159D01*
X132660280Y-108818336D01*
X132652712Y-108805710D01*
X132646418Y-108792403D01*
X132641459Y-108778543D01*
X132637882Y-108764264D01*
X132635722Y-108749703D01*
X132635000Y-108735000D01*
X132635000Y-108435000D01*
X132635722Y-108420297D01*
X132637882Y-108405736D01*
X132641459Y-108391457D01*
X132646418Y-108377597D01*
X132652712Y-108364290D01*
X132660280Y-108351664D01*
X132669048Y-108339841D01*
X132678934Y-108328934D01*
X132689841Y-108319048D01*
X132701664Y-108310280D01*
X132714290Y-108302712D01*
X132727597Y-108296418D01*
X132741457Y-108291459D01*
X132755736Y-108287882D01*
X132770297Y-108285722D01*
X132785000Y-108285000D01*
X134110000Y-108285000D01*
X134124703Y-108285722D01*
X134124703Y-108285722D01*
G37*
D19*
X133447500Y-108585000D03*
D13*
G36*
X134124703Y-109555722D02*
G01*
X134139264Y-109557882D01*
X134153543Y-109561459D01*
X134167403Y-109566418D01*
X134180710Y-109572712D01*
X134193336Y-109580280D01*
X134205159Y-109589048D01*
X134216066Y-109598934D01*
X134225952Y-109609841D01*
X134234720Y-109621664D01*
X134242288Y-109634290D01*
X134248582Y-109647597D01*
X134253541Y-109661457D01*
X134257118Y-109675736D01*
X134259278Y-109690297D01*
X134260000Y-109705000D01*
X134260000Y-110005000D01*
X134259278Y-110019703D01*
X134257118Y-110034264D01*
X134253541Y-110048543D01*
X134248582Y-110062403D01*
X134242288Y-110075710D01*
X134234720Y-110088336D01*
X134225952Y-110100159D01*
X134216066Y-110111066D01*
X134205159Y-110120952D01*
X134193336Y-110129720D01*
X134180710Y-110137288D01*
X134167403Y-110143582D01*
X134153543Y-110148541D01*
X134139264Y-110152118D01*
X134124703Y-110154278D01*
X134110000Y-110155000D01*
X132785000Y-110155000D01*
X132770297Y-110154278D01*
X132755736Y-110152118D01*
X132741457Y-110148541D01*
X132727597Y-110143582D01*
X132714290Y-110137288D01*
X132701664Y-110129720D01*
X132689841Y-110120952D01*
X132678934Y-110111066D01*
X132669048Y-110100159D01*
X132660280Y-110088336D01*
X132652712Y-110075710D01*
X132646418Y-110062403D01*
X132641459Y-110048543D01*
X132637882Y-110034264D01*
X132635722Y-110019703D01*
X132635000Y-110005000D01*
X132635000Y-109705000D01*
X132635722Y-109690297D01*
X132637882Y-109675736D01*
X132641459Y-109661457D01*
X132646418Y-109647597D01*
X132652712Y-109634290D01*
X132660280Y-109621664D01*
X132669048Y-109609841D01*
X132678934Y-109598934D01*
X132689841Y-109589048D01*
X132701664Y-109580280D01*
X132714290Y-109572712D01*
X132727597Y-109566418D01*
X132741457Y-109561459D01*
X132755736Y-109557882D01*
X132770297Y-109555722D01*
X132785000Y-109555000D01*
X134110000Y-109555000D01*
X134124703Y-109555722D01*
X134124703Y-109555722D01*
G37*
D19*
X133447500Y-109855000D03*
D13*
G36*
X134124703Y-110825722D02*
G01*
X134139264Y-110827882D01*
X134153543Y-110831459D01*
X134167403Y-110836418D01*
X134180710Y-110842712D01*
X134193336Y-110850280D01*
X134205159Y-110859048D01*
X134216066Y-110868934D01*
X134225952Y-110879841D01*
X134234720Y-110891664D01*
X134242288Y-110904290D01*
X134248582Y-110917597D01*
X134253541Y-110931457D01*
X134257118Y-110945736D01*
X134259278Y-110960297D01*
X134260000Y-110975000D01*
X134260000Y-111275000D01*
X134259278Y-111289703D01*
X134257118Y-111304264D01*
X134253541Y-111318543D01*
X134248582Y-111332403D01*
X134242288Y-111345710D01*
X134234720Y-111358336D01*
X134225952Y-111370159D01*
X134216066Y-111381066D01*
X134205159Y-111390952D01*
X134193336Y-111399720D01*
X134180710Y-111407288D01*
X134167403Y-111413582D01*
X134153543Y-111418541D01*
X134139264Y-111422118D01*
X134124703Y-111424278D01*
X134110000Y-111425000D01*
X132785000Y-111425000D01*
X132770297Y-111424278D01*
X132755736Y-111422118D01*
X132741457Y-111418541D01*
X132727597Y-111413582D01*
X132714290Y-111407288D01*
X132701664Y-111399720D01*
X132689841Y-111390952D01*
X132678934Y-111381066D01*
X132669048Y-111370159D01*
X132660280Y-111358336D01*
X132652712Y-111345710D01*
X132646418Y-111332403D01*
X132641459Y-111318543D01*
X132637882Y-111304264D01*
X132635722Y-111289703D01*
X132635000Y-111275000D01*
X132635000Y-110975000D01*
X132635722Y-110960297D01*
X132637882Y-110945736D01*
X132641459Y-110931457D01*
X132646418Y-110917597D01*
X132652712Y-110904290D01*
X132660280Y-110891664D01*
X132669048Y-110879841D01*
X132678934Y-110868934D01*
X132689841Y-110859048D01*
X132701664Y-110850280D01*
X132714290Y-110842712D01*
X132727597Y-110836418D01*
X132741457Y-110831459D01*
X132755736Y-110827882D01*
X132770297Y-110825722D01*
X132785000Y-110825000D01*
X134110000Y-110825000D01*
X134124703Y-110825722D01*
X134124703Y-110825722D01*
G37*
D19*
X133447500Y-111125000D03*
D13*
G36*
X128849703Y-110825722D02*
G01*
X128864264Y-110827882D01*
X128878543Y-110831459D01*
X128892403Y-110836418D01*
X128905710Y-110842712D01*
X128918336Y-110850280D01*
X128930159Y-110859048D01*
X128941066Y-110868934D01*
X128950952Y-110879841D01*
X128959720Y-110891664D01*
X128967288Y-110904290D01*
X128973582Y-110917597D01*
X128978541Y-110931457D01*
X128982118Y-110945736D01*
X128984278Y-110960297D01*
X128985000Y-110975000D01*
X128985000Y-111275000D01*
X128984278Y-111289703D01*
X128982118Y-111304264D01*
X128978541Y-111318543D01*
X128973582Y-111332403D01*
X128967288Y-111345710D01*
X128959720Y-111358336D01*
X128950952Y-111370159D01*
X128941066Y-111381066D01*
X128930159Y-111390952D01*
X128918336Y-111399720D01*
X128905710Y-111407288D01*
X128892403Y-111413582D01*
X128878543Y-111418541D01*
X128864264Y-111422118D01*
X128849703Y-111424278D01*
X128835000Y-111425000D01*
X127510000Y-111425000D01*
X127495297Y-111424278D01*
X127480736Y-111422118D01*
X127466457Y-111418541D01*
X127452597Y-111413582D01*
X127439290Y-111407288D01*
X127426664Y-111399720D01*
X127414841Y-111390952D01*
X127403934Y-111381066D01*
X127394048Y-111370159D01*
X127385280Y-111358336D01*
X127377712Y-111345710D01*
X127371418Y-111332403D01*
X127366459Y-111318543D01*
X127362882Y-111304264D01*
X127360722Y-111289703D01*
X127360000Y-111275000D01*
X127360000Y-110975000D01*
X127360722Y-110960297D01*
X127362882Y-110945736D01*
X127366459Y-110931457D01*
X127371418Y-110917597D01*
X127377712Y-110904290D01*
X127385280Y-110891664D01*
X127394048Y-110879841D01*
X127403934Y-110868934D01*
X127414841Y-110859048D01*
X127426664Y-110850280D01*
X127439290Y-110842712D01*
X127452597Y-110836418D01*
X127466457Y-110831459D01*
X127480736Y-110827882D01*
X127495297Y-110825722D01*
X127510000Y-110825000D01*
X128835000Y-110825000D01*
X128849703Y-110825722D01*
X128849703Y-110825722D01*
G37*
D19*
X128172500Y-111125000D03*
D13*
G36*
X128849703Y-109555722D02*
G01*
X128864264Y-109557882D01*
X128878543Y-109561459D01*
X128892403Y-109566418D01*
X128905710Y-109572712D01*
X128918336Y-109580280D01*
X128930159Y-109589048D01*
X128941066Y-109598934D01*
X128950952Y-109609841D01*
X128959720Y-109621664D01*
X128967288Y-109634290D01*
X128973582Y-109647597D01*
X128978541Y-109661457D01*
X128982118Y-109675736D01*
X128984278Y-109690297D01*
X128985000Y-109705000D01*
X128985000Y-110005000D01*
X128984278Y-110019703D01*
X128982118Y-110034264D01*
X128978541Y-110048543D01*
X128973582Y-110062403D01*
X128967288Y-110075710D01*
X128959720Y-110088336D01*
X128950952Y-110100159D01*
X128941066Y-110111066D01*
X128930159Y-110120952D01*
X128918336Y-110129720D01*
X128905710Y-110137288D01*
X128892403Y-110143582D01*
X128878543Y-110148541D01*
X128864264Y-110152118D01*
X128849703Y-110154278D01*
X128835000Y-110155000D01*
X127510000Y-110155000D01*
X127495297Y-110154278D01*
X127480736Y-110152118D01*
X127466457Y-110148541D01*
X127452597Y-110143582D01*
X127439290Y-110137288D01*
X127426664Y-110129720D01*
X127414841Y-110120952D01*
X127403934Y-110111066D01*
X127394048Y-110100159D01*
X127385280Y-110088336D01*
X127377712Y-110075710D01*
X127371418Y-110062403D01*
X127366459Y-110048543D01*
X127362882Y-110034264D01*
X127360722Y-110019703D01*
X127360000Y-110005000D01*
X127360000Y-109705000D01*
X127360722Y-109690297D01*
X127362882Y-109675736D01*
X127366459Y-109661457D01*
X127371418Y-109647597D01*
X127377712Y-109634290D01*
X127385280Y-109621664D01*
X127394048Y-109609841D01*
X127403934Y-109598934D01*
X127414841Y-109589048D01*
X127426664Y-109580280D01*
X127439290Y-109572712D01*
X127452597Y-109566418D01*
X127466457Y-109561459D01*
X127480736Y-109557882D01*
X127495297Y-109555722D01*
X127510000Y-109555000D01*
X128835000Y-109555000D01*
X128849703Y-109555722D01*
X128849703Y-109555722D01*
G37*
D19*
X128172500Y-109855000D03*
D13*
G36*
X128849703Y-108285722D02*
G01*
X128864264Y-108287882D01*
X128878543Y-108291459D01*
X128892403Y-108296418D01*
X128905710Y-108302712D01*
X128918336Y-108310280D01*
X128930159Y-108319048D01*
X128941066Y-108328934D01*
X128950952Y-108339841D01*
X128959720Y-108351664D01*
X128967288Y-108364290D01*
X128973582Y-108377597D01*
X128978541Y-108391457D01*
X128982118Y-108405736D01*
X128984278Y-108420297D01*
X128985000Y-108435000D01*
X128985000Y-108735000D01*
X128984278Y-108749703D01*
X128982118Y-108764264D01*
X128978541Y-108778543D01*
X128973582Y-108792403D01*
X128967288Y-108805710D01*
X128959720Y-108818336D01*
X128950952Y-108830159D01*
X128941066Y-108841066D01*
X128930159Y-108850952D01*
X128918336Y-108859720D01*
X128905710Y-108867288D01*
X128892403Y-108873582D01*
X128878543Y-108878541D01*
X128864264Y-108882118D01*
X128849703Y-108884278D01*
X128835000Y-108885000D01*
X127510000Y-108885000D01*
X127495297Y-108884278D01*
X127480736Y-108882118D01*
X127466457Y-108878541D01*
X127452597Y-108873582D01*
X127439290Y-108867288D01*
X127426664Y-108859720D01*
X127414841Y-108850952D01*
X127403934Y-108841066D01*
X127394048Y-108830159D01*
X127385280Y-108818336D01*
X127377712Y-108805710D01*
X127371418Y-108792403D01*
X127366459Y-108778543D01*
X127362882Y-108764264D01*
X127360722Y-108749703D01*
X127360000Y-108735000D01*
X127360000Y-108435000D01*
X127360722Y-108420297D01*
X127362882Y-108405736D01*
X127366459Y-108391457D01*
X127371418Y-108377597D01*
X127377712Y-108364290D01*
X127385280Y-108351664D01*
X127394048Y-108339841D01*
X127403934Y-108328934D01*
X127414841Y-108319048D01*
X127426664Y-108310280D01*
X127439290Y-108302712D01*
X127452597Y-108296418D01*
X127466457Y-108291459D01*
X127480736Y-108287882D01*
X127495297Y-108285722D01*
X127510000Y-108285000D01*
X128835000Y-108285000D01*
X128849703Y-108285722D01*
X128849703Y-108285722D01*
G37*
D19*
X128172500Y-108585000D03*
D13*
G36*
X128849703Y-107015722D02*
G01*
X128864264Y-107017882D01*
X128878543Y-107021459D01*
X128892403Y-107026418D01*
X128905710Y-107032712D01*
X128918336Y-107040280D01*
X128930159Y-107049048D01*
X128941066Y-107058934D01*
X128950952Y-107069841D01*
X128959720Y-107081664D01*
X128967288Y-107094290D01*
X128973582Y-107107597D01*
X128978541Y-107121457D01*
X128982118Y-107135736D01*
X128984278Y-107150297D01*
X128985000Y-107165000D01*
X128985000Y-107465000D01*
X128984278Y-107479703D01*
X128982118Y-107494264D01*
X128978541Y-107508543D01*
X128973582Y-107522403D01*
X128967288Y-107535710D01*
X128959720Y-107548336D01*
X128950952Y-107560159D01*
X128941066Y-107571066D01*
X128930159Y-107580952D01*
X128918336Y-107589720D01*
X128905710Y-107597288D01*
X128892403Y-107603582D01*
X128878543Y-107608541D01*
X128864264Y-107612118D01*
X128849703Y-107614278D01*
X128835000Y-107615000D01*
X127510000Y-107615000D01*
X127495297Y-107614278D01*
X127480736Y-107612118D01*
X127466457Y-107608541D01*
X127452597Y-107603582D01*
X127439290Y-107597288D01*
X127426664Y-107589720D01*
X127414841Y-107580952D01*
X127403934Y-107571066D01*
X127394048Y-107560159D01*
X127385280Y-107548336D01*
X127377712Y-107535710D01*
X127371418Y-107522403D01*
X127366459Y-107508543D01*
X127362882Y-107494264D01*
X127360722Y-107479703D01*
X127360000Y-107465000D01*
X127360000Y-107165000D01*
X127360722Y-107150297D01*
X127362882Y-107135736D01*
X127366459Y-107121457D01*
X127371418Y-107107597D01*
X127377712Y-107094290D01*
X127385280Y-107081664D01*
X127394048Y-107069841D01*
X127403934Y-107058934D01*
X127414841Y-107049048D01*
X127426664Y-107040280D01*
X127439290Y-107032712D01*
X127452597Y-107026418D01*
X127466457Y-107021459D01*
X127480736Y-107017882D01*
X127495297Y-107015722D01*
X127510000Y-107015000D01*
X128835000Y-107015000D01*
X128849703Y-107015722D01*
X128849703Y-107015722D01*
G37*
D19*
X128172500Y-107315000D03*
D13*
G36*
X131841505Y-107621204D02*
G01*
X131865773Y-107624804D01*
X131889572Y-107630765D01*
X131912671Y-107639030D01*
X131934850Y-107649520D01*
X131955893Y-107662132D01*
X131975599Y-107676747D01*
X131993777Y-107693223D01*
X132010253Y-107711401D01*
X132024868Y-107731107D01*
X132037480Y-107752150D01*
X132047970Y-107774329D01*
X132056235Y-107797428D01*
X132062196Y-107821227D01*
X132065796Y-107845495D01*
X132067000Y-107869999D01*
X132067000Y-110570001D01*
X132065796Y-110594505D01*
X132062196Y-110618773D01*
X132056235Y-110642572D01*
X132047970Y-110665671D01*
X132037480Y-110687850D01*
X132024868Y-110708893D01*
X132010253Y-110728599D01*
X131993777Y-110746777D01*
X131975599Y-110763253D01*
X131955893Y-110777868D01*
X131934850Y-110790480D01*
X131912671Y-110800970D01*
X131889572Y-110809235D01*
X131865773Y-110815196D01*
X131841505Y-110818796D01*
X131817001Y-110820000D01*
X129802999Y-110820000D01*
X129778495Y-110818796D01*
X129754227Y-110815196D01*
X129730428Y-110809235D01*
X129707329Y-110800970D01*
X129685150Y-110790480D01*
X129664107Y-110777868D01*
X129644401Y-110763253D01*
X129626223Y-110746777D01*
X129609747Y-110728599D01*
X129595132Y-110708893D01*
X129582520Y-110687850D01*
X129572030Y-110665671D01*
X129563765Y-110642572D01*
X129557804Y-110618773D01*
X129554204Y-110594505D01*
X129553000Y-110570001D01*
X129553000Y-107869999D01*
X129554204Y-107845495D01*
X129557804Y-107821227D01*
X129563765Y-107797428D01*
X129572030Y-107774329D01*
X129582520Y-107752150D01*
X129595132Y-107731107D01*
X129609747Y-107711401D01*
X129626223Y-107693223D01*
X129644401Y-107676747D01*
X129664107Y-107662132D01*
X129685150Y-107649520D01*
X129707329Y-107639030D01*
X129730428Y-107630765D01*
X129754227Y-107624804D01*
X129778495Y-107621204D01*
X129802999Y-107620000D01*
X131817001Y-107620000D01*
X131841505Y-107621204D01*
X131841505Y-107621204D01*
G37*
D20*
X130810000Y-109220000D03*
D13*
G36*
X144214504Y-112426204D02*
G01*
X144238773Y-112429804D01*
X144262571Y-112435765D01*
X144285671Y-112444030D01*
X144307849Y-112454520D01*
X144328893Y-112467133D01*
X144348598Y-112481747D01*
X144366777Y-112498223D01*
X144383253Y-112516402D01*
X144397867Y-112536107D01*
X144410480Y-112557151D01*
X144420970Y-112579329D01*
X144429235Y-112602429D01*
X144435196Y-112626227D01*
X144438796Y-112650496D01*
X144440000Y-112675000D01*
X144440000Y-113925000D01*
X144438796Y-113949504D01*
X144435196Y-113973773D01*
X144429235Y-113997571D01*
X144420970Y-114020671D01*
X144410480Y-114042849D01*
X144397867Y-114063893D01*
X144383253Y-114083598D01*
X144366777Y-114101777D01*
X144348598Y-114118253D01*
X144328893Y-114132867D01*
X144307849Y-114145480D01*
X144285671Y-114155970D01*
X144262571Y-114164235D01*
X144238773Y-114170196D01*
X144214504Y-114173796D01*
X144190000Y-114175000D01*
X143265000Y-114175000D01*
X143240496Y-114173796D01*
X143216227Y-114170196D01*
X143192429Y-114164235D01*
X143169329Y-114155970D01*
X143147151Y-114145480D01*
X143126107Y-114132867D01*
X143106402Y-114118253D01*
X143088223Y-114101777D01*
X143071747Y-114083598D01*
X143057133Y-114063893D01*
X143044520Y-114042849D01*
X143034030Y-114020671D01*
X143025765Y-113997571D01*
X143019804Y-113973773D01*
X143016204Y-113949504D01*
X143015000Y-113925000D01*
X143015000Y-112675000D01*
X143016204Y-112650496D01*
X143019804Y-112626227D01*
X143025765Y-112602429D01*
X143034030Y-112579329D01*
X143044520Y-112557151D01*
X143057133Y-112536107D01*
X143071747Y-112516402D01*
X143088223Y-112498223D01*
X143106402Y-112481747D01*
X143126107Y-112467133D01*
X143147151Y-112454520D01*
X143169329Y-112444030D01*
X143192429Y-112435765D01*
X143216227Y-112429804D01*
X143240496Y-112426204D01*
X143265000Y-112425000D01*
X144190000Y-112425000D01*
X144214504Y-112426204D01*
X144214504Y-112426204D01*
G37*
D21*
X143727500Y-113300000D03*
D13*
G36*
X141239504Y-112426204D02*
G01*
X141263773Y-112429804D01*
X141287571Y-112435765D01*
X141310671Y-112444030D01*
X141332849Y-112454520D01*
X141353893Y-112467133D01*
X141373598Y-112481747D01*
X141391777Y-112498223D01*
X141408253Y-112516402D01*
X141422867Y-112536107D01*
X141435480Y-112557151D01*
X141445970Y-112579329D01*
X141454235Y-112602429D01*
X141460196Y-112626227D01*
X141463796Y-112650496D01*
X141465000Y-112675000D01*
X141465000Y-113925000D01*
X141463796Y-113949504D01*
X141460196Y-113973773D01*
X141454235Y-113997571D01*
X141445970Y-114020671D01*
X141435480Y-114042849D01*
X141422867Y-114063893D01*
X141408253Y-114083598D01*
X141391777Y-114101777D01*
X141373598Y-114118253D01*
X141353893Y-114132867D01*
X141332849Y-114145480D01*
X141310671Y-114155970D01*
X141287571Y-114164235D01*
X141263773Y-114170196D01*
X141239504Y-114173796D01*
X141215000Y-114175000D01*
X140290000Y-114175000D01*
X140265496Y-114173796D01*
X140241227Y-114170196D01*
X140217429Y-114164235D01*
X140194329Y-114155970D01*
X140172151Y-114145480D01*
X140151107Y-114132867D01*
X140131402Y-114118253D01*
X140113223Y-114101777D01*
X140096747Y-114083598D01*
X140082133Y-114063893D01*
X140069520Y-114042849D01*
X140059030Y-114020671D01*
X140050765Y-113997571D01*
X140044804Y-113973773D01*
X140041204Y-113949504D01*
X140040000Y-113925000D01*
X140040000Y-112675000D01*
X140041204Y-112650496D01*
X140044804Y-112626227D01*
X140050765Y-112602429D01*
X140059030Y-112579329D01*
X140069520Y-112557151D01*
X140082133Y-112536107D01*
X140096747Y-112516402D01*
X140113223Y-112498223D01*
X140131402Y-112481747D01*
X140151107Y-112467133D01*
X140172151Y-112454520D01*
X140194329Y-112444030D01*
X140217429Y-112435765D01*
X140241227Y-112429804D01*
X140265496Y-112426204D01*
X140290000Y-112425000D01*
X141215000Y-112425000D01*
X141239504Y-112426204D01*
X141239504Y-112426204D01*
G37*
D21*
X140752500Y-113300000D03*
D13*
G36*
X144214504Y-109616204D02*
G01*
X144238773Y-109619804D01*
X144262571Y-109625765D01*
X144285671Y-109634030D01*
X144307849Y-109644520D01*
X144328893Y-109657133D01*
X144348598Y-109671747D01*
X144366777Y-109688223D01*
X144383253Y-109706402D01*
X144397867Y-109726107D01*
X144410480Y-109747151D01*
X144420970Y-109769329D01*
X144429235Y-109792429D01*
X144435196Y-109816227D01*
X144438796Y-109840496D01*
X144440000Y-109865000D01*
X144440000Y-111115000D01*
X144438796Y-111139504D01*
X144435196Y-111163773D01*
X144429235Y-111187571D01*
X144420970Y-111210671D01*
X144410480Y-111232849D01*
X144397867Y-111253893D01*
X144383253Y-111273598D01*
X144366777Y-111291777D01*
X144348598Y-111308253D01*
X144328893Y-111322867D01*
X144307849Y-111335480D01*
X144285671Y-111345970D01*
X144262571Y-111354235D01*
X144238773Y-111360196D01*
X144214504Y-111363796D01*
X144190000Y-111365000D01*
X143265000Y-111365000D01*
X143240496Y-111363796D01*
X143216227Y-111360196D01*
X143192429Y-111354235D01*
X143169329Y-111345970D01*
X143147151Y-111335480D01*
X143126107Y-111322867D01*
X143106402Y-111308253D01*
X143088223Y-111291777D01*
X143071747Y-111273598D01*
X143057133Y-111253893D01*
X143044520Y-111232849D01*
X143034030Y-111210671D01*
X143025765Y-111187571D01*
X143019804Y-111163773D01*
X143016204Y-111139504D01*
X143015000Y-111115000D01*
X143015000Y-109865000D01*
X143016204Y-109840496D01*
X143019804Y-109816227D01*
X143025765Y-109792429D01*
X143034030Y-109769329D01*
X143044520Y-109747151D01*
X143057133Y-109726107D01*
X143071747Y-109706402D01*
X143088223Y-109688223D01*
X143106402Y-109671747D01*
X143126107Y-109657133D01*
X143147151Y-109644520D01*
X143169329Y-109634030D01*
X143192429Y-109625765D01*
X143216227Y-109619804D01*
X143240496Y-109616204D01*
X143265000Y-109615000D01*
X144190000Y-109615000D01*
X144214504Y-109616204D01*
X144214504Y-109616204D01*
G37*
D21*
X143727500Y-110490000D03*
D13*
G36*
X141239504Y-109616204D02*
G01*
X141263773Y-109619804D01*
X141287571Y-109625765D01*
X141310671Y-109634030D01*
X141332849Y-109644520D01*
X141353893Y-109657133D01*
X141373598Y-109671747D01*
X141391777Y-109688223D01*
X141408253Y-109706402D01*
X141422867Y-109726107D01*
X141435480Y-109747151D01*
X141445970Y-109769329D01*
X141454235Y-109792429D01*
X141460196Y-109816227D01*
X141463796Y-109840496D01*
X141465000Y-109865000D01*
X141465000Y-111115000D01*
X141463796Y-111139504D01*
X141460196Y-111163773D01*
X141454235Y-111187571D01*
X141445970Y-111210671D01*
X141435480Y-111232849D01*
X141422867Y-111253893D01*
X141408253Y-111273598D01*
X141391777Y-111291777D01*
X141373598Y-111308253D01*
X141353893Y-111322867D01*
X141332849Y-111335480D01*
X141310671Y-111345970D01*
X141287571Y-111354235D01*
X141263773Y-111360196D01*
X141239504Y-111363796D01*
X141215000Y-111365000D01*
X140290000Y-111365000D01*
X140265496Y-111363796D01*
X140241227Y-111360196D01*
X140217429Y-111354235D01*
X140194329Y-111345970D01*
X140172151Y-111335480D01*
X140151107Y-111322867D01*
X140131402Y-111308253D01*
X140113223Y-111291777D01*
X140096747Y-111273598D01*
X140082133Y-111253893D01*
X140069520Y-111232849D01*
X140059030Y-111210671D01*
X140050765Y-111187571D01*
X140044804Y-111163773D01*
X140041204Y-111139504D01*
X140040000Y-111115000D01*
X140040000Y-109865000D01*
X140041204Y-109840496D01*
X140044804Y-109816227D01*
X140050765Y-109792429D01*
X140059030Y-109769329D01*
X140069520Y-109747151D01*
X140082133Y-109726107D01*
X140096747Y-109706402D01*
X140113223Y-109688223D01*
X140131402Y-109671747D01*
X140151107Y-109657133D01*
X140172151Y-109644520D01*
X140194329Y-109634030D01*
X140217429Y-109625765D01*
X140241227Y-109619804D01*
X140265496Y-109616204D01*
X140290000Y-109615000D01*
X141215000Y-109615000D01*
X141239504Y-109616204D01*
X141239504Y-109616204D01*
G37*
D21*
X140752500Y-110490000D03*
D13*
G36*
X144214504Y-106826204D02*
G01*
X144238773Y-106829804D01*
X144262571Y-106835765D01*
X144285671Y-106844030D01*
X144307849Y-106854520D01*
X144328893Y-106867133D01*
X144348598Y-106881747D01*
X144366777Y-106898223D01*
X144383253Y-106916402D01*
X144397867Y-106936107D01*
X144410480Y-106957151D01*
X144420970Y-106979329D01*
X144429235Y-107002429D01*
X144435196Y-107026227D01*
X144438796Y-107050496D01*
X144440000Y-107075000D01*
X144440000Y-108325000D01*
X144438796Y-108349504D01*
X144435196Y-108373773D01*
X144429235Y-108397571D01*
X144420970Y-108420671D01*
X144410480Y-108442849D01*
X144397867Y-108463893D01*
X144383253Y-108483598D01*
X144366777Y-108501777D01*
X144348598Y-108518253D01*
X144328893Y-108532867D01*
X144307849Y-108545480D01*
X144285671Y-108555970D01*
X144262571Y-108564235D01*
X144238773Y-108570196D01*
X144214504Y-108573796D01*
X144190000Y-108575000D01*
X143265000Y-108575000D01*
X143240496Y-108573796D01*
X143216227Y-108570196D01*
X143192429Y-108564235D01*
X143169329Y-108555970D01*
X143147151Y-108545480D01*
X143126107Y-108532867D01*
X143106402Y-108518253D01*
X143088223Y-108501777D01*
X143071747Y-108483598D01*
X143057133Y-108463893D01*
X143044520Y-108442849D01*
X143034030Y-108420671D01*
X143025765Y-108397571D01*
X143019804Y-108373773D01*
X143016204Y-108349504D01*
X143015000Y-108325000D01*
X143015000Y-107075000D01*
X143016204Y-107050496D01*
X143019804Y-107026227D01*
X143025765Y-107002429D01*
X143034030Y-106979329D01*
X143044520Y-106957151D01*
X143057133Y-106936107D01*
X143071747Y-106916402D01*
X143088223Y-106898223D01*
X143106402Y-106881747D01*
X143126107Y-106867133D01*
X143147151Y-106854520D01*
X143169329Y-106844030D01*
X143192429Y-106835765D01*
X143216227Y-106829804D01*
X143240496Y-106826204D01*
X143265000Y-106825000D01*
X144190000Y-106825000D01*
X144214504Y-106826204D01*
X144214504Y-106826204D01*
G37*
D21*
X143727500Y-107700000D03*
D13*
G36*
X141239504Y-106826204D02*
G01*
X141263773Y-106829804D01*
X141287571Y-106835765D01*
X141310671Y-106844030D01*
X141332849Y-106854520D01*
X141353893Y-106867133D01*
X141373598Y-106881747D01*
X141391777Y-106898223D01*
X141408253Y-106916402D01*
X141422867Y-106936107D01*
X141435480Y-106957151D01*
X141445970Y-106979329D01*
X141454235Y-107002429D01*
X141460196Y-107026227D01*
X141463796Y-107050496D01*
X141465000Y-107075000D01*
X141465000Y-108325000D01*
X141463796Y-108349504D01*
X141460196Y-108373773D01*
X141454235Y-108397571D01*
X141445970Y-108420671D01*
X141435480Y-108442849D01*
X141422867Y-108463893D01*
X141408253Y-108483598D01*
X141391777Y-108501777D01*
X141373598Y-108518253D01*
X141353893Y-108532867D01*
X141332849Y-108545480D01*
X141310671Y-108555970D01*
X141287571Y-108564235D01*
X141263773Y-108570196D01*
X141239504Y-108573796D01*
X141215000Y-108575000D01*
X140290000Y-108575000D01*
X140265496Y-108573796D01*
X140241227Y-108570196D01*
X140217429Y-108564235D01*
X140194329Y-108555970D01*
X140172151Y-108545480D01*
X140151107Y-108532867D01*
X140131402Y-108518253D01*
X140113223Y-108501777D01*
X140096747Y-108483598D01*
X140082133Y-108463893D01*
X140069520Y-108442849D01*
X140059030Y-108420671D01*
X140050765Y-108397571D01*
X140044804Y-108373773D01*
X140041204Y-108349504D01*
X140040000Y-108325000D01*
X140040000Y-107075000D01*
X140041204Y-107050496D01*
X140044804Y-107026227D01*
X140050765Y-107002429D01*
X140059030Y-106979329D01*
X140069520Y-106957151D01*
X140082133Y-106936107D01*
X140096747Y-106916402D01*
X140113223Y-106898223D01*
X140131402Y-106881747D01*
X140151107Y-106867133D01*
X140172151Y-106854520D01*
X140194329Y-106844030D01*
X140217429Y-106835765D01*
X140241227Y-106829804D01*
X140265496Y-106826204D01*
X140290000Y-106825000D01*
X141215000Y-106825000D01*
X141239504Y-106826204D01*
X141239504Y-106826204D01*
G37*
D21*
X140752500Y-107700000D03*
D13*
G36*
X131487004Y-126526204D02*
G01*
X131511273Y-126529804D01*
X131535071Y-126535765D01*
X131558171Y-126544030D01*
X131580349Y-126554520D01*
X131601393Y-126567133D01*
X131621098Y-126581747D01*
X131639277Y-126598223D01*
X131655753Y-126616402D01*
X131670367Y-126636107D01*
X131682980Y-126657151D01*
X131693470Y-126679329D01*
X131701735Y-126702429D01*
X131707696Y-126726227D01*
X131711296Y-126750496D01*
X131712500Y-126775000D01*
X131712500Y-128025000D01*
X131711296Y-128049504D01*
X131707696Y-128073773D01*
X131701735Y-128097571D01*
X131693470Y-128120671D01*
X131682980Y-128142849D01*
X131670367Y-128163893D01*
X131655753Y-128183598D01*
X131639277Y-128201777D01*
X131621098Y-128218253D01*
X131601393Y-128232867D01*
X131580349Y-128245480D01*
X131558171Y-128255970D01*
X131535071Y-128264235D01*
X131511273Y-128270196D01*
X131487004Y-128273796D01*
X131462500Y-128275000D01*
X130537500Y-128275000D01*
X130512996Y-128273796D01*
X130488727Y-128270196D01*
X130464929Y-128264235D01*
X130441829Y-128255970D01*
X130419651Y-128245480D01*
X130398607Y-128232867D01*
X130378902Y-128218253D01*
X130360723Y-128201777D01*
X130344247Y-128183598D01*
X130329633Y-128163893D01*
X130317020Y-128142849D01*
X130306530Y-128120671D01*
X130298265Y-128097571D01*
X130292304Y-128073773D01*
X130288704Y-128049504D01*
X130287500Y-128025000D01*
X130287500Y-126775000D01*
X130288704Y-126750496D01*
X130292304Y-126726227D01*
X130298265Y-126702429D01*
X130306530Y-126679329D01*
X130317020Y-126657151D01*
X130329633Y-126636107D01*
X130344247Y-126616402D01*
X130360723Y-126598223D01*
X130378902Y-126581747D01*
X130398607Y-126567133D01*
X130419651Y-126554520D01*
X130441829Y-126544030D01*
X130464929Y-126535765D01*
X130488727Y-126529804D01*
X130512996Y-126526204D01*
X130537500Y-126525000D01*
X131462500Y-126525000D01*
X131487004Y-126526204D01*
X131487004Y-126526204D01*
G37*
D21*
X131000000Y-127400000D03*
D13*
G36*
X128512004Y-126526204D02*
G01*
X128536273Y-126529804D01*
X128560071Y-126535765D01*
X128583171Y-126544030D01*
X128605349Y-126554520D01*
X128626393Y-126567133D01*
X128646098Y-126581747D01*
X128664277Y-126598223D01*
X128680753Y-126616402D01*
X128695367Y-126636107D01*
X128707980Y-126657151D01*
X128718470Y-126679329D01*
X128726735Y-126702429D01*
X128732696Y-126726227D01*
X128736296Y-126750496D01*
X128737500Y-126775000D01*
X128737500Y-128025000D01*
X128736296Y-128049504D01*
X128732696Y-128073773D01*
X128726735Y-128097571D01*
X128718470Y-128120671D01*
X128707980Y-128142849D01*
X128695367Y-128163893D01*
X128680753Y-128183598D01*
X128664277Y-128201777D01*
X128646098Y-128218253D01*
X128626393Y-128232867D01*
X128605349Y-128245480D01*
X128583171Y-128255970D01*
X128560071Y-128264235D01*
X128536273Y-128270196D01*
X128512004Y-128273796D01*
X128487500Y-128275000D01*
X127562500Y-128275000D01*
X127537996Y-128273796D01*
X127513727Y-128270196D01*
X127489929Y-128264235D01*
X127466829Y-128255970D01*
X127444651Y-128245480D01*
X127423607Y-128232867D01*
X127403902Y-128218253D01*
X127385723Y-128201777D01*
X127369247Y-128183598D01*
X127354633Y-128163893D01*
X127342020Y-128142849D01*
X127331530Y-128120671D01*
X127323265Y-128097571D01*
X127317304Y-128073773D01*
X127313704Y-128049504D01*
X127312500Y-128025000D01*
X127312500Y-126775000D01*
X127313704Y-126750496D01*
X127317304Y-126726227D01*
X127323265Y-126702429D01*
X127331530Y-126679329D01*
X127342020Y-126657151D01*
X127354633Y-126636107D01*
X127369247Y-126616402D01*
X127385723Y-126598223D01*
X127403902Y-126581747D01*
X127423607Y-126567133D01*
X127444651Y-126554520D01*
X127466829Y-126544030D01*
X127489929Y-126535765D01*
X127513727Y-126529804D01*
X127537996Y-126526204D01*
X127562500Y-126525000D01*
X128487500Y-126525000D01*
X128512004Y-126526204D01*
X128512004Y-126526204D01*
G37*
D21*
X128025000Y-127400000D03*
D13*
G36*
X150334505Y-107621204D02*
G01*
X150358773Y-107624804D01*
X150382572Y-107630765D01*
X150405671Y-107639030D01*
X150427850Y-107649520D01*
X150448893Y-107662132D01*
X150468599Y-107676747D01*
X150486777Y-107693223D01*
X150503253Y-107711401D01*
X150517868Y-107731107D01*
X150530480Y-107752150D01*
X150540970Y-107774329D01*
X150549235Y-107797428D01*
X150555196Y-107821227D01*
X150558796Y-107845495D01*
X150560000Y-107869999D01*
X150560000Y-108520001D01*
X150558796Y-108544505D01*
X150555196Y-108568773D01*
X150549235Y-108592572D01*
X150540970Y-108615671D01*
X150530480Y-108637850D01*
X150517868Y-108658893D01*
X150503253Y-108678599D01*
X150486777Y-108696777D01*
X150468599Y-108713253D01*
X150448893Y-108727868D01*
X150427850Y-108740480D01*
X150405671Y-108750970D01*
X150382572Y-108759235D01*
X150358773Y-108765196D01*
X150334505Y-108768796D01*
X150310001Y-108770000D01*
X149409999Y-108770000D01*
X149385495Y-108768796D01*
X149361227Y-108765196D01*
X149337428Y-108759235D01*
X149314329Y-108750970D01*
X149292150Y-108740480D01*
X149271107Y-108727868D01*
X149251401Y-108713253D01*
X149233223Y-108696777D01*
X149216747Y-108678599D01*
X149202132Y-108658893D01*
X149189520Y-108637850D01*
X149179030Y-108615671D01*
X149170765Y-108592572D01*
X149164804Y-108568773D01*
X149161204Y-108544505D01*
X149160000Y-108520001D01*
X149160000Y-107869999D01*
X149161204Y-107845495D01*
X149164804Y-107821227D01*
X149170765Y-107797428D01*
X149179030Y-107774329D01*
X149189520Y-107752150D01*
X149202132Y-107731107D01*
X149216747Y-107711401D01*
X149233223Y-107693223D01*
X149251401Y-107676747D01*
X149271107Y-107662132D01*
X149292150Y-107649520D01*
X149314329Y-107639030D01*
X149337428Y-107630765D01*
X149361227Y-107624804D01*
X149385495Y-107621204D01*
X149409999Y-107620000D01*
X150310001Y-107620000D01*
X150334505Y-107621204D01*
X150334505Y-107621204D01*
G37*
D14*
X149860000Y-108195000D03*
D13*
G36*
X150334505Y-109671204D02*
G01*
X150358773Y-109674804D01*
X150382572Y-109680765D01*
X150405671Y-109689030D01*
X150427850Y-109699520D01*
X150448893Y-109712132D01*
X150468599Y-109726747D01*
X150486777Y-109743223D01*
X150503253Y-109761401D01*
X150517868Y-109781107D01*
X150530480Y-109802150D01*
X150540970Y-109824329D01*
X150549235Y-109847428D01*
X150555196Y-109871227D01*
X150558796Y-109895495D01*
X150560000Y-109919999D01*
X150560000Y-110570001D01*
X150558796Y-110594505D01*
X150555196Y-110618773D01*
X150549235Y-110642572D01*
X150540970Y-110665671D01*
X150530480Y-110687850D01*
X150517868Y-110708893D01*
X150503253Y-110728599D01*
X150486777Y-110746777D01*
X150468599Y-110763253D01*
X150448893Y-110777868D01*
X150427850Y-110790480D01*
X150405671Y-110800970D01*
X150382572Y-110809235D01*
X150358773Y-110815196D01*
X150334505Y-110818796D01*
X150310001Y-110820000D01*
X149409999Y-110820000D01*
X149385495Y-110818796D01*
X149361227Y-110815196D01*
X149337428Y-110809235D01*
X149314329Y-110800970D01*
X149292150Y-110790480D01*
X149271107Y-110777868D01*
X149251401Y-110763253D01*
X149233223Y-110746777D01*
X149216747Y-110728599D01*
X149202132Y-110708893D01*
X149189520Y-110687850D01*
X149179030Y-110665671D01*
X149170765Y-110642572D01*
X149164804Y-110618773D01*
X149161204Y-110594505D01*
X149160000Y-110570001D01*
X149160000Y-109919999D01*
X149161204Y-109895495D01*
X149164804Y-109871227D01*
X149170765Y-109847428D01*
X149179030Y-109824329D01*
X149189520Y-109802150D01*
X149202132Y-109781107D01*
X149216747Y-109761401D01*
X149233223Y-109743223D01*
X149251401Y-109726747D01*
X149271107Y-109712132D01*
X149292150Y-109699520D01*
X149314329Y-109689030D01*
X149337428Y-109680765D01*
X149361227Y-109674804D01*
X149385495Y-109671204D01*
X149409999Y-109670000D01*
X150310001Y-109670000D01*
X150334505Y-109671204D01*
X150334505Y-109671204D01*
G37*
D14*
X149860000Y-110245000D03*
D22*
X156100000Y-122900000D03*
X156750000Y-122900000D03*
X157400000Y-122900000D03*
X158050000Y-122900000D03*
X158700000Y-122900000D03*
D23*
X153675000Y-122950000D03*
X161125000Y-122950000D03*
D24*
X153525000Y-126750000D03*
X161275000Y-126750000D03*
D25*
X110600000Y-115800000D03*
D26*
X122505000Y-115800000D03*
X98695000Y-115800000D03*
D27*
X127400000Y-112200000D03*
X134185000Y-106200000D03*
X125400000Y-116000000D03*
X125600000Y-127400000D03*
X128200000Y-106200000D03*
X149800000Y-106400000D03*
X154400000Y-115300000D03*
X135800000Y-123200000D03*
X112500000Y-116000000D03*
X155000000Y-120600000D03*
X151600000Y-116600000D03*
X135400000Y-105400000D03*
X135552500Y-111047500D03*
X132800000Y-127400000D03*
X143727500Y-115672500D03*
X140855000Y-122945000D03*
X137900000Y-115800000D03*
D28*
X140117500Y-107315000D02*
X140752500Y-107950000D01*
X133447500Y-107315000D02*
X134185000Y-107315000D01*
X143292500Y-105410000D02*
X140752500Y-107950000D01*
X152400000Y-105410000D02*
X143292500Y-105410000D01*
X152400000Y-114300000D02*
X152400000Y-105410000D01*
X149860000Y-114545000D02*
X152155000Y-114545000D01*
X152155000Y-114545000D02*
X152400000Y-114300000D01*
X134185000Y-107315000D02*
X140117500Y-107315000D01*
X97590000Y-121110000D02*
X100080000Y-123600000D01*
X97590000Y-118110000D02*
X97590000Y-121110000D01*
X120190000Y-118110000D02*
X123190000Y-118110000D01*
X114700000Y-123600000D02*
X120190000Y-118110000D01*
X100080000Y-123600000D02*
X114700000Y-123600000D01*
X146295000Y-118110000D02*
X149860000Y-114545000D01*
X135840000Y-118110000D02*
X146295000Y-118110000D01*
X91670000Y-118000000D02*
X88350000Y-114680000D01*
X97600000Y-118000000D02*
X91670000Y-118000000D01*
X122705000Y-116000000D02*
X122505000Y-115800000D01*
X125400000Y-116000000D02*
X122705000Y-116000000D01*
X127400000Y-111897500D02*
X128172500Y-111125000D01*
X127400000Y-112200000D02*
X127400000Y-111897500D01*
X134185000Y-106577500D02*
X133447500Y-107315000D01*
X134185000Y-106200000D02*
X134185000Y-106577500D01*
X112500000Y-116000000D02*
X110390000Y-118110000D01*
X153200000Y-119600000D02*
X153600000Y-119600000D01*
X149860000Y-116595000D02*
X149995000Y-116595000D01*
X158700000Y-122089998D02*
X158700000Y-122900000D01*
X156720000Y-120109998D02*
X158700000Y-122089998D01*
X156720000Y-115260000D02*
X156720000Y-120109998D01*
X125600000Y-127400000D02*
X128025000Y-127400000D01*
X151595000Y-116595000D02*
X151600000Y-116600000D01*
X149860000Y-116595000D02*
X151595000Y-116595000D01*
X154200000Y-120600000D02*
X153200000Y-119600000D01*
X155000000Y-120600000D02*
X154200000Y-120600000D01*
X156680000Y-115300000D02*
X156720000Y-115260000D01*
X154400000Y-115300000D02*
X156680000Y-115300000D01*
X149860000Y-106460000D02*
X149800000Y-106400000D01*
X149860000Y-108195000D02*
X149860000Y-106460000D01*
X135800000Y-120450000D02*
X135840000Y-120410000D01*
X135800000Y-123200000D02*
X135800000Y-120450000D01*
X128200000Y-107287500D02*
X128172500Y-107315000D01*
X128200000Y-106200000D02*
X128200000Y-107287500D01*
X143727500Y-110490000D02*
X146050000Y-110490000D01*
X146295000Y-110245000D02*
X149860000Y-110245000D01*
X146050000Y-110490000D02*
X146295000Y-110245000D01*
X143727500Y-110725000D02*
X143727500Y-111700000D01*
X134360000Y-109855000D02*
X133447500Y-109855000D01*
X136195010Y-111690010D02*
X135552500Y-111047500D01*
X143727500Y-111772500D02*
X143727500Y-110490000D01*
X136195010Y-111800000D02*
X143700000Y-111800000D01*
X143700000Y-111800000D02*
X143727500Y-111772500D01*
X135400000Y-105400000D02*
X135400000Y-105400000D01*
X135552500Y-111047500D02*
X134360000Y-109855000D01*
X127260000Y-108585000D02*
X128172500Y-108585000D01*
X126600000Y-107925000D02*
X127260000Y-108585000D01*
X126600000Y-105400000D02*
X126600000Y-107925000D01*
X135400000Y-105400000D02*
X126600000Y-105400000D01*
X143727500Y-113030000D02*
X143727500Y-115672500D01*
X143727500Y-115672500D02*
X143727500Y-115672500D01*
X132800000Y-127400000D02*
X131000000Y-127400000D01*
X138847500Y-108585000D02*
X140752500Y-110490000D01*
X133447500Y-108585000D02*
X138847500Y-108585000D01*
X143292500Y-107950000D02*
X143727500Y-107950000D01*
X140752500Y-110490000D02*
X143292500Y-107950000D01*
X126600000Y-113300000D02*
X140752500Y-113300000D01*
X126600000Y-110000000D02*
X126600000Y-113300000D01*
X128172500Y-109855000D02*
X126745000Y-109855000D01*
X126745000Y-109855000D02*
X126600000Y-110000000D01*
X140855000Y-122945000D02*
X140745000Y-122945000D01*
X137890000Y-115810000D02*
X137900000Y-115800000D01*
X135840000Y-115810000D02*
X137890000Y-115810000D01*
X153200000Y-108260000D02*
X153200000Y-117415000D01*
X153200000Y-108260000D02*
X156720000Y-108260000D01*
X147205000Y-122945000D02*
X152600000Y-117550000D01*
X140855000Y-122945000D02*
X147205000Y-122945000D01*
X156100000Y-120450000D02*
X153200000Y-117550000D01*
X156100000Y-122900000D02*
X156100000Y-120450000D01*
X161125000Y-126600000D02*
X161275000Y-126750000D01*
X161125000Y-122950000D02*
X161125000Y-126600000D01*
X161275000Y-126750000D02*
X153525000Y-126750000D01*
X153525000Y-123100000D02*
X153675000Y-122950000D01*
X153525000Y-126750000D02*
X153525000Y-123100000D01*
M02*
