G04 #@! TF.GenerationSoftware,KiCad,Pcbnew,(5.1.4)-1*
G04 #@! TF.CreationDate,2020-08-24T20:29:47-05:00*
G04 #@! TF.ProjectId,NiteLite,4e697465-4c69-4746-952e-6b696361645f,rev?*
G04 #@! TF.SameCoordinates,Original*
G04 #@! TF.FileFunction,Copper,L2,Bot*
G04 #@! TF.FilePolarity,Positive*
%FSLAX46Y46*%
G04 Gerber Fmt 4.6, Leading zero omitted, Abs format (unit mm)*
G04 Created by KiCad (PCBNEW (5.1.4)-1) date 2020-08-24 20:29:47*
%MOMM*%
%LPD*%
G04 APERTURE LIST*
%ADD10R,1.727200X1.727200*%
%ADD11O,1.727200X1.727200*%
%ADD12C,1.727200*%
%ADD13O,3.500000X1.900000*%
%ADD14O,1.450000X2.000000*%
%ADD15O,1.150000X1.800000*%
%ADD16C,0.800000*%
%ADD17C,0.250000*%
%ADD18C,0.254000*%
G04 APERTURE END LIST*
D10*
X90890000Y-114680000D03*
D11*
X88350000Y-114680000D03*
X90890000Y-112140000D03*
X88350000Y-112140000D03*
D12*
X90890000Y-109600000D03*
X88350000Y-109600000D03*
D13*
X159470000Y-117460000D03*
X159470000Y-106060000D03*
D14*
X153675000Y-122950000D03*
X161125000Y-122950000D03*
D15*
X153525000Y-126750000D03*
X161275000Y-126750000D03*
D16*
X127400000Y-112200000D03*
X134185000Y-106200000D03*
X125400000Y-116000000D03*
X125600000Y-127400000D03*
X128200000Y-106200000D03*
X149800000Y-106400000D03*
X154400000Y-115300000D03*
X135800000Y-123200000D03*
X112500000Y-116000000D03*
X155000000Y-120600000D03*
X151600000Y-116600000D03*
X135400000Y-105400000D03*
X135552500Y-111047500D03*
X132800000Y-127400000D03*
X143727500Y-115672500D03*
X140855000Y-122945000D03*
X137900000Y-115800000D03*
D17*
X130400000Y-109985000D02*
X134185000Y-106200000D01*
X127400000Y-111100000D02*
X130400000Y-111100000D01*
X127400000Y-111100000D02*
X127400000Y-114000000D01*
X127400000Y-114000000D02*
X125400000Y-116000000D01*
X130400000Y-111100000D02*
X130400000Y-109985000D01*
X135400000Y-110895000D02*
X135552500Y-111047500D01*
X135400000Y-105400000D02*
X135400000Y-110895000D01*
X143727500Y-115672500D02*
X144127499Y-116072499D01*
X144127499Y-116072499D02*
X144127499Y-127127499D01*
X145454998Y-127400000D02*
X132800000Y-127400000D01*
X144127499Y-127127499D02*
X143854998Y-127400000D01*
X140855000Y-122379315D02*
X137900000Y-119424315D01*
X140855000Y-122945000D02*
X140855000Y-122379315D01*
X137900000Y-119424315D02*
X137900000Y-115800000D01*
X137900000Y-115800000D02*
X137900000Y-115800000D01*
X159470000Y-107260000D02*
X159470000Y-106060000D01*
X160345001Y-108135001D02*
X159470000Y-107260000D01*
X160345001Y-114480001D02*
X160345001Y-108135001D01*
X159470000Y-115355002D02*
X160345001Y-114480001D01*
X159470000Y-117460000D02*
X159470000Y-115355002D01*
D18*
G36*
X134482795Y-104909744D02*
G01*
X134404774Y-105098102D01*
X134387489Y-105185000D01*
X134286939Y-105165000D01*
X134083061Y-105165000D01*
X133883102Y-105204774D01*
X133694744Y-105282795D01*
X133525226Y-105396063D01*
X133381063Y-105540226D01*
X133267795Y-105709744D01*
X133189774Y-105898102D01*
X133150000Y-106098061D01*
X133150000Y-106160198D01*
X129888998Y-109421201D01*
X129860000Y-109444999D01*
X129836202Y-109473997D01*
X129836201Y-109473998D01*
X129765026Y-109560724D01*
X129694454Y-109692754D01*
X129650998Y-109836015D01*
X129636324Y-109985000D01*
X129640001Y-110022332D01*
X129640001Y-110340000D01*
X127437333Y-110340000D01*
X127400000Y-110336323D01*
X127362667Y-110340000D01*
X127251014Y-110350997D01*
X127107753Y-110394454D01*
X126975724Y-110465026D01*
X126859999Y-110559999D01*
X126765026Y-110675724D01*
X126694454Y-110807753D01*
X126650997Y-110951014D01*
X126636323Y-111100000D01*
X126640000Y-111137332D01*
X126640000Y-111496289D01*
X126596063Y-111540226D01*
X126482795Y-111709744D01*
X126404774Y-111898102D01*
X126365000Y-112098061D01*
X126365000Y-112301939D01*
X126404774Y-112501898D01*
X126482795Y-112690256D01*
X126596063Y-112859774D01*
X126640001Y-112903712D01*
X126640001Y-113685197D01*
X125360199Y-114965000D01*
X125298061Y-114965000D01*
X125098102Y-115004774D01*
X124909744Y-115082795D01*
X124740226Y-115196063D01*
X124596063Y-115340226D01*
X124482795Y-115509744D01*
X124404774Y-115698102D01*
X124365000Y-115898061D01*
X124365000Y-116101939D01*
X124404774Y-116301898D01*
X124482795Y-116490256D01*
X124596063Y-116659774D01*
X124740226Y-116803937D01*
X124909744Y-116917205D01*
X125098102Y-116995226D01*
X125298061Y-117035000D01*
X125501939Y-117035000D01*
X125701898Y-116995226D01*
X125890256Y-116917205D01*
X126059774Y-116803937D01*
X126203937Y-116659774D01*
X126317205Y-116490256D01*
X126395226Y-116301898D01*
X126435000Y-116101939D01*
X126435000Y-116039801D01*
X126776740Y-115698061D01*
X136865000Y-115698061D01*
X136865000Y-115901939D01*
X136904774Y-116101898D01*
X136982795Y-116290256D01*
X137096063Y-116459774D01*
X137140001Y-116503712D01*
X137140000Y-119386992D01*
X137136324Y-119424315D01*
X137140000Y-119461637D01*
X137140000Y-119461647D01*
X137150997Y-119573300D01*
X137194454Y-119716561D01*
X137265026Y-119848591D01*
X137304871Y-119897141D01*
X137359999Y-119964316D01*
X137389003Y-119988119D01*
X139913728Y-122512845D01*
X139859774Y-122643102D01*
X139820000Y-122843061D01*
X139820000Y-123046939D01*
X139859774Y-123246898D01*
X139937795Y-123435256D01*
X140051063Y-123604774D01*
X140195226Y-123748937D01*
X140364744Y-123862205D01*
X140553102Y-123940226D01*
X140753061Y-123980000D01*
X140956939Y-123980000D01*
X141156898Y-123940226D01*
X141345256Y-123862205D01*
X141514774Y-123748937D01*
X141658937Y-123604774D01*
X141772205Y-123435256D01*
X141850226Y-123246898D01*
X141890000Y-123046939D01*
X141890000Y-122843061D01*
X141850226Y-122643102D01*
X141772205Y-122454744D01*
X141658937Y-122285226D01*
X141603987Y-122230276D01*
X141560546Y-122087068D01*
X141489974Y-121955038D01*
X141418799Y-121868312D01*
X141395001Y-121839314D01*
X141366003Y-121815516D01*
X138660000Y-119109514D01*
X138660000Y-116503711D01*
X138703937Y-116459774D01*
X138817205Y-116290256D01*
X138895226Y-116101898D01*
X138935000Y-115901939D01*
X138935000Y-115698061D01*
X138895226Y-115498102D01*
X138817205Y-115309744D01*
X138703937Y-115140226D01*
X138559774Y-114996063D01*
X138390256Y-114882795D01*
X138201898Y-114804774D01*
X138001939Y-114765000D01*
X137798061Y-114765000D01*
X137598102Y-114804774D01*
X137409744Y-114882795D01*
X137240226Y-114996063D01*
X137096063Y-115140226D01*
X136982795Y-115309744D01*
X136904774Y-115498102D01*
X136865000Y-115698061D01*
X126776740Y-115698061D01*
X127911003Y-114563799D01*
X127940001Y-114540001D01*
X127989241Y-114480002D01*
X128034974Y-114424277D01*
X128105546Y-114292247D01*
X128149003Y-114148986D01*
X128160000Y-114037333D01*
X128160000Y-114037324D01*
X128163676Y-114000001D01*
X128160000Y-113962678D01*
X128160000Y-112903711D01*
X128203937Y-112859774D01*
X128317205Y-112690256D01*
X128395226Y-112501898D01*
X128435000Y-112301939D01*
X128435000Y-112098061D01*
X128395226Y-111898102D01*
X128379444Y-111860000D01*
X130362667Y-111860000D01*
X130400000Y-111863677D01*
X130437333Y-111860000D01*
X130548986Y-111849003D01*
X130692247Y-111805546D01*
X130824276Y-111734974D01*
X130940001Y-111640001D01*
X131034974Y-111524276D01*
X131105546Y-111392247D01*
X131149003Y-111248986D01*
X131163677Y-111100000D01*
X131160000Y-111062667D01*
X131160000Y-110299801D01*
X134224802Y-107235000D01*
X134286939Y-107235000D01*
X134486898Y-107195226D01*
X134640000Y-107131808D01*
X134640001Y-110550201D01*
X134635295Y-110557244D01*
X134557274Y-110745602D01*
X134517500Y-110945561D01*
X134517500Y-111149439D01*
X134557274Y-111349398D01*
X134635295Y-111537756D01*
X134748563Y-111707274D01*
X134892726Y-111851437D01*
X135062244Y-111964705D01*
X135250602Y-112042726D01*
X135450561Y-112082500D01*
X135654439Y-112082500D01*
X135854398Y-112042726D01*
X136042756Y-111964705D01*
X136212274Y-111851437D01*
X136356437Y-111707274D01*
X136469705Y-111537756D01*
X136547726Y-111349398D01*
X136587500Y-111149439D01*
X136587500Y-110945561D01*
X136547726Y-110745602D01*
X136469705Y-110557244D01*
X136356437Y-110387726D01*
X136212274Y-110243563D01*
X136160000Y-110208635D01*
X136160000Y-106103711D01*
X136203937Y-106059774D01*
X136317205Y-105890256D01*
X136395226Y-105701898D01*
X136435000Y-105501939D01*
X136435000Y-105298061D01*
X136395226Y-105098102D01*
X136317205Y-104909744D01*
X136243877Y-104800000D01*
X157706865Y-104800000D01*
X157543813Y-104933813D01*
X157345744Y-105175161D01*
X157198566Y-105450512D01*
X157107934Y-105749286D01*
X157077331Y-106060000D01*
X157107934Y-106370714D01*
X157198566Y-106669488D01*
X157345744Y-106944839D01*
X157543813Y-107186187D01*
X157785161Y-107384256D01*
X158060512Y-107531434D01*
X158359286Y-107622066D01*
X158592136Y-107645000D01*
X158814032Y-107645000D01*
X158835026Y-107684276D01*
X158874871Y-107732826D01*
X158929999Y-107800001D01*
X158959002Y-107823803D01*
X159410198Y-108275000D01*
X159353288Y-108275000D01*
X159124348Y-108320539D01*
X158908692Y-108409866D01*
X158714606Y-108539550D01*
X158549550Y-108704606D01*
X158419866Y-108898692D01*
X158330539Y-109114348D01*
X158285000Y-109343288D01*
X158285000Y-109576712D01*
X158330539Y-109805652D01*
X158419866Y-110021308D01*
X158549550Y-110215394D01*
X158714606Y-110380450D01*
X158908692Y-110510134D01*
X159124348Y-110599461D01*
X159353288Y-110645000D01*
X159585002Y-110645000D01*
X159585001Y-112875000D01*
X159353288Y-112875000D01*
X159124348Y-112920539D01*
X158908692Y-113009866D01*
X158714606Y-113139550D01*
X158549550Y-113304606D01*
X158419866Y-113498692D01*
X158330539Y-113714348D01*
X158285000Y-113943288D01*
X158285000Y-114176712D01*
X158330539Y-114405652D01*
X158419866Y-114621308D01*
X158549550Y-114815394D01*
X158714606Y-114980450D01*
X158783752Y-115026652D01*
X158764454Y-115062756D01*
X158743299Y-115132499D01*
X158722987Y-115199461D01*
X158720998Y-115206017D01*
X158706324Y-115355002D01*
X158710001Y-115392334D01*
X158710001Y-115875000D01*
X158592136Y-115875000D01*
X158359286Y-115897934D01*
X158060512Y-115988566D01*
X157785161Y-116135744D01*
X157543813Y-116333813D01*
X157345744Y-116575161D01*
X157198566Y-116850512D01*
X157107934Y-117149286D01*
X157077331Y-117460000D01*
X157107934Y-117770714D01*
X157198566Y-118069488D01*
X157345744Y-118344839D01*
X157543813Y-118586187D01*
X157785161Y-118784256D01*
X158060512Y-118931434D01*
X158359286Y-119022066D01*
X158592136Y-119045000D01*
X160347864Y-119045000D01*
X160580714Y-119022066D01*
X160879488Y-118931434D01*
X161154839Y-118784256D01*
X161396187Y-118586187D01*
X161594256Y-118344839D01*
X161741434Y-118069488D01*
X161832066Y-117770714D01*
X161862669Y-117460000D01*
X161832066Y-117149286D01*
X161741434Y-116850512D01*
X161594256Y-116575161D01*
X161396187Y-116333813D01*
X161154839Y-116135744D01*
X160879488Y-115988566D01*
X160580714Y-115897934D01*
X160347864Y-115875000D01*
X160230000Y-115875000D01*
X160230000Y-115669803D01*
X160856005Y-115043799D01*
X160885002Y-115020002D01*
X160979975Y-114904277D01*
X161050547Y-114772248D01*
X161094004Y-114628987D01*
X161105001Y-114517334D01*
X161105001Y-114517325D01*
X161108677Y-114480002D01*
X161105001Y-114442679D01*
X161105001Y-108172323D01*
X161108677Y-108135000D01*
X161105001Y-108097677D01*
X161105001Y-108097668D01*
X161094004Y-107986015D01*
X161050547Y-107842754D01*
X160979975Y-107710725D01*
X160885002Y-107595000D01*
X160856004Y-107571202D01*
X160830957Y-107546156D01*
X160879488Y-107531434D01*
X161154839Y-107384256D01*
X161396187Y-107186187D01*
X161594256Y-106944839D01*
X161741434Y-106669488D01*
X161832066Y-106370714D01*
X161862669Y-106060000D01*
X161832066Y-105749286D01*
X161741434Y-105450512D01*
X161594256Y-105175161D01*
X161396187Y-104933813D01*
X161233135Y-104800000D01*
X161874675Y-104800000D01*
X161893024Y-106983467D01*
X161857355Y-121524365D01*
X161647967Y-121412445D01*
X161391606Y-121334678D01*
X161125000Y-121308420D01*
X160858393Y-121334678D01*
X160602032Y-121412445D01*
X160365769Y-121538730D01*
X160158682Y-121708683D01*
X159988730Y-121915770D01*
X159862445Y-122152033D01*
X159784678Y-122408394D01*
X159765000Y-122608192D01*
X159765000Y-122973289D01*
X159697105Y-122979976D01*
X159502007Y-123039159D01*
X159322203Y-123135266D01*
X159164604Y-123264604D01*
X159035266Y-123422203D01*
X158939159Y-123602007D01*
X158879976Y-123797105D01*
X158859993Y-124000000D01*
X158879976Y-124202895D01*
X158939159Y-124397993D01*
X159035266Y-124577797D01*
X159164604Y-124735396D01*
X159322203Y-124864734D01*
X159502007Y-124960841D01*
X159697105Y-125020024D01*
X159849162Y-125035000D01*
X159950838Y-125035000D01*
X160102895Y-125020024D01*
X160297993Y-124960841D01*
X160477797Y-124864734D01*
X160635396Y-124735396D01*
X160764734Y-124577797D01*
X160783539Y-124542615D01*
X160858394Y-124565322D01*
X161125000Y-124591580D01*
X161391607Y-124565322D01*
X161647968Y-124487555D01*
X161850352Y-124379379D01*
X161847948Y-125359244D01*
X161740286Y-125301697D01*
X161512200Y-125232508D01*
X161275000Y-125209146D01*
X161037799Y-125232508D01*
X160809713Y-125301697D01*
X160599508Y-125414054D01*
X160415261Y-125565261D01*
X160264054Y-125749509D01*
X160151697Y-125959714D01*
X160082508Y-126187800D01*
X160065000Y-126365564D01*
X160065000Y-127134437D01*
X160082508Y-127312201D01*
X160151697Y-127540287D01*
X160264055Y-127750492D01*
X160415262Y-127934739D01*
X160421673Y-127940000D01*
X154378328Y-127940000D01*
X154384739Y-127934739D01*
X154535946Y-127750492D01*
X154648303Y-127540287D01*
X154717492Y-127312200D01*
X154735000Y-127134436D01*
X154735000Y-126365563D01*
X154717492Y-126187799D01*
X154648303Y-125959713D01*
X154535946Y-125749508D01*
X154384739Y-125565261D01*
X154200491Y-125414054D01*
X153990286Y-125301697D01*
X153762200Y-125232508D01*
X153525000Y-125209146D01*
X153287799Y-125232508D01*
X153059713Y-125301697D01*
X152849508Y-125414054D01*
X152665261Y-125565261D01*
X152514054Y-125749509D01*
X152401697Y-125959714D01*
X152332508Y-126187800D01*
X152315000Y-126365564D01*
X152315000Y-127134437D01*
X152332508Y-127312201D01*
X152401697Y-127540287D01*
X152514055Y-127750492D01*
X152665262Y-127934739D01*
X152671673Y-127940000D01*
X145995000Y-127940000D01*
X146089972Y-127824276D01*
X146160544Y-127692247D01*
X146204001Y-127548986D01*
X146218675Y-127400000D01*
X146204001Y-127251014D01*
X146160544Y-127107753D01*
X146089972Y-126975724D01*
X145994999Y-126859999D01*
X145879274Y-126765026D01*
X145747245Y-126694454D01*
X145603984Y-126650997D01*
X145492331Y-126640000D01*
X144887499Y-126640000D01*
X144887499Y-122608192D01*
X152315000Y-122608192D01*
X152315000Y-123291809D01*
X152334678Y-123491607D01*
X152412445Y-123747968D01*
X152538730Y-123984231D01*
X152708683Y-124191318D01*
X152915770Y-124361270D01*
X153152033Y-124487555D01*
X153408394Y-124565322D01*
X153675000Y-124591580D01*
X153941607Y-124565322D01*
X154016461Y-124542615D01*
X154035266Y-124577797D01*
X154164604Y-124735396D01*
X154322203Y-124864734D01*
X154502007Y-124960841D01*
X154697105Y-125020024D01*
X154849162Y-125035000D01*
X154950838Y-125035000D01*
X155102895Y-125020024D01*
X155297993Y-124960841D01*
X155477797Y-124864734D01*
X155635396Y-124735396D01*
X155764734Y-124577797D01*
X155860841Y-124397993D01*
X155920024Y-124202895D01*
X155940007Y-124000000D01*
X155920024Y-123797105D01*
X155860841Y-123602007D01*
X155764734Y-123422203D01*
X155635396Y-123264604D01*
X155477797Y-123135266D01*
X155297993Y-123039159D01*
X155102895Y-122979976D01*
X155035000Y-122973289D01*
X155035000Y-122608191D01*
X155015322Y-122408393D01*
X154937555Y-122152032D01*
X154811270Y-121915769D01*
X154641317Y-121708682D01*
X154434230Y-121538730D01*
X154197967Y-121412445D01*
X153941606Y-121334678D01*
X153675000Y-121308420D01*
X153408393Y-121334678D01*
X153152032Y-121412445D01*
X152915769Y-121538730D01*
X152708682Y-121708683D01*
X152538730Y-121915770D01*
X152412445Y-122152033D01*
X152334678Y-122408394D01*
X152315000Y-122608192D01*
X144887499Y-122608192D01*
X144887499Y-116109821D01*
X144891175Y-116072498D01*
X144887499Y-116035176D01*
X144887499Y-116035166D01*
X144876502Y-115923513D01*
X144833045Y-115780252D01*
X144762500Y-115648274D01*
X144762500Y-115570561D01*
X144722726Y-115370602D01*
X144644705Y-115182244D01*
X144531437Y-115012726D01*
X144387274Y-114868563D01*
X144217756Y-114755295D01*
X144029398Y-114677274D01*
X143829439Y-114637500D01*
X143625561Y-114637500D01*
X143425602Y-114677274D01*
X143237244Y-114755295D01*
X143067726Y-114868563D01*
X142923563Y-115012726D01*
X142810295Y-115182244D01*
X142732274Y-115370602D01*
X142692500Y-115570561D01*
X142692500Y-115774439D01*
X142732274Y-115974398D01*
X142810295Y-116162756D01*
X142923563Y-116332274D01*
X143067726Y-116476437D01*
X143237244Y-116589705D01*
X143367499Y-116643659D01*
X143367500Y-126640000D01*
X133503711Y-126640000D01*
X133459774Y-126596063D01*
X133290256Y-126482795D01*
X133101898Y-126404774D01*
X132901939Y-126365000D01*
X132698061Y-126365000D01*
X132498102Y-126404774D01*
X132309744Y-126482795D01*
X132140226Y-126596063D01*
X131996063Y-126740226D01*
X131882795Y-126909744D01*
X131804774Y-127098102D01*
X131765000Y-127298061D01*
X131765000Y-127501939D01*
X131804774Y-127701898D01*
X131882795Y-127890256D01*
X131916033Y-127940000D01*
X86127000Y-127940000D01*
X86127000Y-112140000D01*
X86844149Y-112140000D01*
X86873084Y-112433777D01*
X86958775Y-112716264D01*
X87097931Y-112976606D01*
X87285203Y-113204797D01*
X87513394Y-113392069D01*
X87546940Y-113410000D01*
X87513394Y-113427931D01*
X87285203Y-113615203D01*
X87097931Y-113843394D01*
X86958775Y-114103736D01*
X86873084Y-114386223D01*
X86844149Y-114680000D01*
X86873084Y-114973777D01*
X86958775Y-115256264D01*
X87097931Y-115516606D01*
X87285203Y-115744797D01*
X87513394Y-115932069D01*
X87773736Y-116071225D01*
X88056223Y-116156916D01*
X88276381Y-116178600D01*
X88423619Y-116178600D01*
X88643777Y-116156916D01*
X88926264Y-116071225D01*
X89186606Y-115932069D01*
X89414797Y-115744797D01*
X89421414Y-115736735D01*
X89436898Y-115787780D01*
X89495863Y-115898094D01*
X89575215Y-115994785D01*
X89671906Y-116074137D01*
X89782220Y-116133102D01*
X89901918Y-116169412D01*
X90026400Y-116181672D01*
X90604250Y-116178600D01*
X90763000Y-116019850D01*
X90763000Y-114807000D01*
X91017000Y-114807000D01*
X91017000Y-116019850D01*
X91175750Y-116178600D01*
X91753600Y-116181672D01*
X91878082Y-116169412D01*
X91997780Y-116133102D01*
X92108094Y-116074137D01*
X92204785Y-115994785D01*
X92284137Y-115898094D01*
X92343102Y-115787780D01*
X92379412Y-115668082D01*
X92391672Y-115543600D01*
X92388600Y-114965750D01*
X92229850Y-114807000D01*
X91017000Y-114807000D01*
X90763000Y-114807000D01*
X90743000Y-114807000D01*
X90743000Y-114553000D01*
X90763000Y-114553000D01*
X90763000Y-114533000D01*
X91017000Y-114533000D01*
X91017000Y-114553000D01*
X92229850Y-114553000D01*
X92388600Y-114394250D01*
X92391672Y-113816400D01*
X92379412Y-113691918D01*
X92343102Y-113572220D01*
X92284137Y-113461906D01*
X92204785Y-113365215D01*
X92108094Y-113285863D01*
X91997780Y-113226898D01*
X91946735Y-113211414D01*
X91954797Y-113204797D01*
X92142069Y-112976606D01*
X92281225Y-112716264D01*
X92366916Y-112433777D01*
X92395851Y-112140000D01*
X92366916Y-111846223D01*
X92281225Y-111563736D01*
X92142069Y-111303394D01*
X91954797Y-111075203D01*
X91726606Y-110887931D01*
X91689537Y-110868117D01*
X91845302Y-110764039D01*
X92054039Y-110555302D01*
X92218042Y-110309853D01*
X92331010Y-110037125D01*
X92388600Y-109747599D01*
X92388600Y-109452401D01*
X92331010Y-109162875D01*
X92218042Y-108890147D01*
X92054039Y-108644698D01*
X91845302Y-108435961D01*
X91599853Y-108271958D01*
X91327125Y-108158990D01*
X91037599Y-108101400D01*
X90742401Y-108101400D01*
X90452875Y-108158990D01*
X90180147Y-108271958D01*
X89934698Y-108435961D01*
X89725961Y-108644698D01*
X89620000Y-108803281D01*
X89514039Y-108644698D01*
X89305302Y-108435961D01*
X89059853Y-108271958D01*
X88787125Y-108158990D01*
X88497599Y-108101400D01*
X88202401Y-108101400D01*
X87912875Y-108158990D01*
X87640147Y-108271958D01*
X87394698Y-108435961D01*
X87185961Y-108644698D01*
X87021958Y-108890147D01*
X86908990Y-109162875D01*
X86851400Y-109452401D01*
X86851400Y-109747599D01*
X86908990Y-110037125D01*
X87021958Y-110309853D01*
X87185961Y-110555302D01*
X87394698Y-110764039D01*
X87550463Y-110868117D01*
X87513394Y-110887931D01*
X87285203Y-111075203D01*
X87097931Y-111303394D01*
X86958775Y-111563736D01*
X86873084Y-111846223D01*
X86844149Y-112140000D01*
X86127000Y-112140000D01*
X86127000Y-104800000D01*
X134556123Y-104800000D01*
X134482795Y-104909744D01*
X134482795Y-104909744D01*
G37*
X134482795Y-104909744D02*
X134404774Y-105098102D01*
X134387489Y-105185000D01*
X134286939Y-105165000D01*
X134083061Y-105165000D01*
X133883102Y-105204774D01*
X133694744Y-105282795D01*
X133525226Y-105396063D01*
X133381063Y-105540226D01*
X133267795Y-105709744D01*
X133189774Y-105898102D01*
X133150000Y-106098061D01*
X133150000Y-106160198D01*
X129888998Y-109421201D01*
X129860000Y-109444999D01*
X129836202Y-109473997D01*
X129836201Y-109473998D01*
X129765026Y-109560724D01*
X129694454Y-109692754D01*
X129650998Y-109836015D01*
X129636324Y-109985000D01*
X129640001Y-110022332D01*
X129640001Y-110340000D01*
X127437333Y-110340000D01*
X127400000Y-110336323D01*
X127362667Y-110340000D01*
X127251014Y-110350997D01*
X127107753Y-110394454D01*
X126975724Y-110465026D01*
X126859999Y-110559999D01*
X126765026Y-110675724D01*
X126694454Y-110807753D01*
X126650997Y-110951014D01*
X126636323Y-111100000D01*
X126640000Y-111137332D01*
X126640000Y-111496289D01*
X126596063Y-111540226D01*
X126482795Y-111709744D01*
X126404774Y-111898102D01*
X126365000Y-112098061D01*
X126365000Y-112301939D01*
X126404774Y-112501898D01*
X126482795Y-112690256D01*
X126596063Y-112859774D01*
X126640001Y-112903712D01*
X126640001Y-113685197D01*
X125360199Y-114965000D01*
X125298061Y-114965000D01*
X125098102Y-115004774D01*
X124909744Y-115082795D01*
X124740226Y-115196063D01*
X124596063Y-115340226D01*
X124482795Y-115509744D01*
X124404774Y-115698102D01*
X124365000Y-115898061D01*
X124365000Y-116101939D01*
X124404774Y-116301898D01*
X124482795Y-116490256D01*
X124596063Y-116659774D01*
X124740226Y-116803937D01*
X124909744Y-116917205D01*
X125098102Y-116995226D01*
X125298061Y-117035000D01*
X125501939Y-117035000D01*
X125701898Y-116995226D01*
X125890256Y-116917205D01*
X126059774Y-116803937D01*
X126203937Y-116659774D01*
X126317205Y-116490256D01*
X126395226Y-116301898D01*
X126435000Y-116101939D01*
X126435000Y-116039801D01*
X126776740Y-115698061D01*
X136865000Y-115698061D01*
X136865000Y-115901939D01*
X136904774Y-116101898D01*
X136982795Y-116290256D01*
X137096063Y-116459774D01*
X137140001Y-116503712D01*
X137140000Y-119386992D01*
X137136324Y-119424315D01*
X137140000Y-119461637D01*
X137140000Y-119461647D01*
X137150997Y-119573300D01*
X137194454Y-119716561D01*
X137265026Y-119848591D01*
X137304871Y-119897141D01*
X137359999Y-119964316D01*
X137389003Y-119988119D01*
X139913728Y-122512845D01*
X139859774Y-122643102D01*
X139820000Y-122843061D01*
X139820000Y-123046939D01*
X139859774Y-123246898D01*
X139937795Y-123435256D01*
X140051063Y-123604774D01*
X140195226Y-123748937D01*
X140364744Y-123862205D01*
X140553102Y-123940226D01*
X140753061Y-123980000D01*
X140956939Y-123980000D01*
X141156898Y-123940226D01*
X141345256Y-123862205D01*
X141514774Y-123748937D01*
X141658937Y-123604774D01*
X141772205Y-123435256D01*
X141850226Y-123246898D01*
X141890000Y-123046939D01*
X141890000Y-122843061D01*
X141850226Y-122643102D01*
X141772205Y-122454744D01*
X141658937Y-122285226D01*
X141603987Y-122230276D01*
X141560546Y-122087068D01*
X141489974Y-121955038D01*
X141418799Y-121868312D01*
X141395001Y-121839314D01*
X141366003Y-121815516D01*
X138660000Y-119109514D01*
X138660000Y-116503711D01*
X138703937Y-116459774D01*
X138817205Y-116290256D01*
X138895226Y-116101898D01*
X138935000Y-115901939D01*
X138935000Y-115698061D01*
X138895226Y-115498102D01*
X138817205Y-115309744D01*
X138703937Y-115140226D01*
X138559774Y-114996063D01*
X138390256Y-114882795D01*
X138201898Y-114804774D01*
X138001939Y-114765000D01*
X137798061Y-114765000D01*
X137598102Y-114804774D01*
X137409744Y-114882795D01*
X137240226Y-114996063D01*
X137096063Y-115140226D01*
X136982795Y-115309744D01*
X136904774Y-115498102D01*
X136865000Y-115698061D01*
X126776740Y-115698061D01*
X127911003Y-114563799D01*
X127940001Y-114540001D01*
X127989241Y-114480002D01*
X128034974Y-114424277D01*
X128105546Y-114292247D01*
X128149003Y-114148986D01*
X128160000Y-114037333D01*
X128160000Y-114037324D01*
X128163676Y-114000001D01*
X128160000Y-113962678D01*
X128160000Y-112903711D01*
X128203937Y-112859774D01*
X128317205Y-112690256D01*
X128395226Y-112501898D01*
X128435000Y-112301939D01*
X128435000Y-112098061D01*
X128395226Y-111898102D01*
X128379444Y-111860000D01*
X130362667Y-111860000D01*
X130400000Y-111863677D01*
X130437333Y-111860000D01*
X130548986Y-111849003D01*
X130692247Y-111805546D01*
X130824276Y-111734974D01*
X130940001Y-111640001D01*
X131034974Y-111524276D01*
X131105546Y-111392247D01*
X131149003Y-111248986D01*
X131163677Y-111100000D01*
X131160000Y-111062667D01*
X131160000Y-110299801D01*
X134224802Y-107235000D01*
X134286939Y-107235000D01*
X134486898Y-107195226D01*
X134640000Y-107131808D01*
X134640001Y-110550201D01*
X134635295Y-110557244D01*
X134557274Y-110745602D01*
X134517500Y-110945561D01*
X134517500Y-111149439D01*
X134557274Y-111349398D01*
X134635295Y-111537756D01*
X134748563Y-111707274D01*
X134892726Y-111851437D01*
X135062244Y-111964705D01*
X135250602Y-112042726D01*
X135450561Y-112082500D01*
X135654439Y-112082500D01*
X135854398Y-112042726D01*
X136042756Y-111964705D01*
X136212274Y-111851437D01*
X136356437Y-111707274D01*
X136469705Y-111537756D01*
X136547726Y-111349398D01*
X136587500Y-111149439D01*
X136587500Y-110945561D01*
X136547726Y-110745602D01*
X136469705Y-110557244D01*
X136356437Y-110387726D01*
X136212274Y-110243563D01*
X136160000Y-110208635D01*
X136160000Y-106103711D01*
X136203937Y-106059774D01*
X136317205Y-105890256D01*
X136395226Y-105701898D01*
X136435000Y-105501939D01*
X136435000Y-105298061D01*
X136395226Y-105098102D01*
X136317205Y-104909744D01*
X136243877Y-104800000D01*
X157706865Y-104800000D01*
X157543813Y-104933813D01*
X157345744Y-105175161D01*
X157198566Y-105450512D01*
X157107934Y-105749286D01*
X157077331Y-106060000D01*
X157107934Y-106370714D01*
X157198566Y-106669488D01*
X157345744Y-106944839D01*
X157543813Y-107186187D01*
X157785161Y-107384256D01*
X158060512Y-107531434D01*
X158359286Y-107622066D01*
X158592136Y-107645000D01*
X158814032Y-107645000D01*
X158835026Y-107684276D01*
X158874871Y-107732826D01*
X158929999Y-107800001D01*
X158959002Y-107823803D01*
X159410198Y-108275000D01*
X159353288Y-108275000D01*
X159124348Y-108320539D01*
X158908692Y-108409866D01*
X158714606Y-108539550D01*
X158549550Y-108704606D01*
X158419866Y-108898692D01*
X158330539Y-109114348D01*
X158285000Y-109343288D01*
X158285000Y-109576712D01*
X158330539Y-109805652D01*
X158419866Y-110021308D01*
X158549550Y-110215394D01*
X158714606Y-110380450D01*
X158908692Y-110510134D01*
X159124348Y-110599461D01*
X159353288Y-110645000D01*
X159585002Y-110645000D01*
X159585001Y-112875000D01*
X159353288Y-112875000D01*
X159124348Y-112920539D01*
X158908692Y-113009866D01*
X158714606Y-113139550D01*
X158549550Y-113304606D01*
X158419866Y-113498692D01*
X158330539Y-113714348D01*
X158285000Y-113943288D01*
X158285000Y-114176712D01*
X158330539Y-114405652D01*
X158419866Y-114621308D01*
X158549550Y-114815394D01*
X158714606Y-114980450D01*
X158783752Y-115026652D01*
X158764454Y-115062756D01*
X158743299Y-115132499D01*
X158722987Y-115199461D01*
X158720998Y-115206017D01*
X158706324Y-115355002D01*
X158710001Y-115392334D01*
X158710001Y-115875000D01*
X158592136Y-115875000D01*
X158359286Y-115897934D01*
X158060512Y-115988566D01*
X157785161Y-116135744D01*
X157543813Y-116333813D01*
X157345744Y-116575161D01*
X157198566Y-116850512D01*
X157107934Y-117149286D01*
X157077331Y-117460000D01*
X157107934Y-117770714D01*
X157198566Y-118069488D01*
X157345744Y-118344839D01*
X157543813Y-118586187D01*
X157785161Y-118784256D01*
X158060512Y-118931434D01*
X158359286Y-119022066D01*
X158592136Y-119045000D01*
X160347864Y-119045000D01*
X160580714Y-119022066D01*
X160879488Y-118931434D01*
X161154839Y-118784256D01*
X161396187Y-118586187D01*
X161594256Y-118344839D01*
X161741434Y-118069488D01*
X161832066Y-117770714D01*
X161862669Y-117460000D01*
X161832066Y-117149286D01*
X161741434Y-116850512D01*
X161594256Y-116575161D01*
X161396187Y-116333813D01*
X161154839Y-116135744D01*
X160879488Y-115988566D01*
X160580714Y-115897934D01*
X160347864Y-115875000D01*
X160230000Y-115875000D01*
X160230000Y-115669803D01*
X160856005Y-115043799D01*
X160885002Y-115020002D01*
X160979975Y-114904277D01*
X161050547Y-114772248D01*
X161094004Y-114628987D01*
X161105001Y-114517334D01*
X161105001Y-114517325D01*
X161108677Y-114480002D01*
X161105001Y-114442679D01*
X161105001Y-108172323D01*
X161108677Y-108135000D01*
X161105001Y-108097677D01*
X161105001Y-108097668D01*
X161094004Y-107986015D01*
X161050547Y-107842754D01*
X160979975Y-107710725D01*
X160885002Y-107595000D01*
X160856004Y-107571202D01*
X160830957Y-107546156D01*
X160879488Y-107531434D01*
X161154839Y-107384256D01*
X161396187Y-107186187D01*
X161594256Y-106944839D01*
X161741434Y-106669488D01*
X161832066Y-106370714D01*
X161862669Y-106060000D01*
X161832066Y-105749286D01*
X161741434Y-105450512D01*
X161594256Y-105175161D01*
X161396187Y-104933813D01*
X161233135Y-104800000D01*
X161874675Y-104800000D01*
X161893024Y-106983467D01*
X161857355Y-121524365D01*
X161647967Y-121412445D01*
X161391606Y-121334678D01*
X161125000Y-121308420D01*
X160858393Y-121334678D01*
X160602032Y-121412445D01*
X160365769Y-121538730D01*
X160158682Y-121708683D01*
X159988730Y-121915770D01*
X159862445Y-122152033D01*
X159784678Y-122408394D01*
X159765000Y-122608192D01*
X159765000Y-122973289D01*
X159697105Y-122979976D01*
X159502007Y-123039159D01*
X159322203Y-123135266D01*
X159164604Y-123264604D01*
X159035266Y-123422203D01*
X158939159Y-123602007D01*
X158879976Y-123797105D01*
X158859993Y-124000000D01*
X158879976Y-124202895D01*
X158939159Y-124397993D01*
X159035266Y-124577797D01*
X159164604Y-124735396D01*
X159322203Y-124864734D01*
X159502007Y-124960841D01*
X159697105Y-125020024D01*
X159849162Y-125035000D01*
X159950838Y-125035000D01*
X160102895Y-125020024D01*
X160297993Y-124960841D01*
X160477797Y-124864734D01*
X160635396Y-124735396D01*
X160764734Y-124577797D01*
X160783539Y-124542615D01*
X160858394Y-124565322D01*
X161125000Y-124591580D01*
X161391607Y-124565322D01*
X161647968Y-124487555D01*
X161850352Y-124379379D01*
X161847948Y-125359244D01*
X161740286Y-125301697D01*
X161512200Y-125232508D01*
X161275000Y-125209146D01*
X161037799Y-125232508D01*
X160809713Y-125301697D01*
X160599508Y-125414054D01*
X160415261Y-125565261D01*
X160264054Y-125749509D01*
X160151697Y-125959714D01*
X160082508Y-126187800D01*
X160065000Y-126365564D01*
X160065000Y-127134437D01*
X160082508Y-127312201D01*
X160151697Y-127540287D01*
X160264055Y-127750492D01*
X160415262Y-127934739D01*
X160421673Y-127940000D01*
X154378328Y-127940000D01*
X154384739Y-127934739D01*
X154535946Y-127750492D01*
X154648303Y-127540287D01*
X154717492Y-127312200D01*
X154735000Y-127134436D01*
X154735000Y-126365563D01*
X154717492Y-126187799D01*
X154648303Y-125959713D01*
X154535946Y-125749508D01*
X154384739Y-125565261D01*
X154200491Y-125414054D01*
X153990286Y-125301697D01*
X153762200Y-125232508D01*
X153525000Y-125209146D01*
X153287799Y-125232508D01*
X153059713Y-125301697D01*
X152849508Y-125414054D01*
X152665261Y-125565261D01*
X152514054Y-125749509D01*
X152401697Y-125959714D01*
X152332508Y-126187800D01*
X152315000Y-126365564D01*
X152315000Y-127134437D01*
X152332508Y-127312201D01*
X152401697Y-127540287D01*
X152514055Y-127750492D01*
X152665262Y-127934739D01*
X152671673Y-127940000D01*
X145995000Y-127940000D01*
X146089972Y-127824276D01*
X146160544Y-127692247D01*
X146204001Y-127548986D01*
X146218675Y-127400000D01*
X146204001Y-127251014D01*
X146160544Y-127107753D01*
X146089972Y-126975724D01*
X145994999Y-126859999D01*
X145879274Y-126765026D01*
X145747245Y-126694454D01*
X145603984Y-126650997D01*
X145492331Y-126640000D01*
X144887499Y-126640000D01*
X144887499Y-122608192D01*
X152315000Y-122608192D01*
X152315000Y-123291809D01*
X152334678Y-123491607D01*
X152412445Y-123747968D01*
X152538730Y-123984231D01*
X152708683Y-124191318D01*
X152915770Y-124361270D01*
X153152033Y-124487555D01*
X153408394Y-124565322D01*
X153675000Y-124591580D01*
X153941607Y-124565322D01*
X154016461Y-124542615D01*
X154035266Y-124577797D01*
X154164604Y-124735396D01*
X154322203Y-124864734D01*
X154502007Y-124960841D01*
X154697105Y-125020024D01*
X154849162Y-125035000D01*
X154950838Y-125035000D01*
X155102895Y-125020024D01*
X155297993Y-124960841D01*
X155477797Y-124864734D01*
X155635396Y-124735396D01*
X155764734Y-124577797D01*
X155860841Y-124397993D01*
X155920024Y-124202895D01*
X155940007Y-124000000D01*
X155920024Y-123797105D01*
X155860841Y-123602007D01*
X155764734Y-123422203D01*
X155635396Y-123264604D01*
X155477797Y-123135266D01*
X155297993Y-123039159D01*
X155102895Y-122979976D01*
X155035000Y-122973289D01*
X155035000Y-122608191D01*
X155015322Y-122408393D01*
X154937555Y-122152032D01*
X154811270Y-121915769D01*
X154641317Y-121708682D01*
X154434230Y-121538730D01*
X154197967Y-121412445D01*
X153941606Y-121334678D01*
X153675000Y-121308420D01*
X153408393Y-121334678D01*
X153152032Y-121412445D01*
X152915769Y-121538730D01*
X152708682Y-121708683D01*
X152538730Y-121915770D01*
X152412445Y-122152033D01*
X152334678Y-122408394D01*
X152315000Y-122608192D01*
X144887499Y-122608192D01*
X144887499Y-116109821D01*
X144891175Y-116072498D01*
X144887499Y-116035176D01*
X144887499Y-116035166D01*
X144876502Y-115923513D01*
X144833045Y-115780252D01*
X144762500Y-115648274D01*
X144762500Y-115570561D01*
X144722726Y-115370602D01*
X144644705Y-115182244D01*
X144531437Y-115012726D01*
X144387274Y-114868563D01*
X144217756Y-114755295D01*
X144029398Y-114677274D01*
X143829439Y-114637500D01*
X143625561Y-114637500D01*
X143425602Y-114677274D01*
X143237244Y-114755295D01*
X143067726Y-114868563D01*
X142923563Y-115012726D01*
X142810295Y-115182244D01*
X142732274Y-115370602D01*
X142692500Y-115570561D01*
X142692500Y-115774439D01*
X142732274Y-115974398D01*
X142810295Y-116162756D01*
X142923563Y-116332274D01*
X143067726Y-116476437D01*
X143237244Y-116589705D01*
X143367499Y-116643659D01*
X143367500Y-126640000D01*
X133503711Y-126640000D01*
X133459774Y-126596063D01*
X133290256Y-126482795D01*
X133101898Y-126404774D01*
X132901939Y-126365000D01*
X132698061Y-126365000D01*
X132498102Y-126404774D01*
X132309744Y-126482795D01*
X132140226Y-126596063D01*
X131996063Y-126740226D01*
X131882795Y-126909744D01*
X131804774Y-127098102D01*
X131765000Y-127298061D01*
X131765000Y-127501939D01*
X131804774Y-127701898D01*
X131882795Y-127890256D01*
X131916033Y-127940000D01*
X86127000Y-127940000D01*
X86127000Y-112140000D01*
X86844149Y-112140000D01*
X86873084Y-112433777D01*
X86958775Y-112716264D01*
X87097931Y-112976606D01*
X87285203Y-113204797D01*
X87513394Y-113392069D01*
X87546940Y-113410000D01*
X87513394Y-113427931D01*
X87285203Y-113615203D01*
X87097931Y-113843394D01*
X86958775Y-114103736D01*
X86873084Y-114386223D01*
X86844149Y-114680000D01*
X86873084Y-114973777D01*
X86958775Y-115256264D01*
X87097931Y-115516606D01*
X87285203Y-115744797D01*
X87513394Y-115932069D01*
X87773736Y-116071225D01*
X88056223Y-116156916D01*
X88276381Y-116178600D01*
X88423619Y-116178600D01*
X88643777Y-116156916D01*
X88926264Y-116071225D01*
X89186606Y-115932069D01*
X89414797Y-115744797D01*
X89421414Y-115736735D01*
X89436898Y-115787780D01*
X89495863Y-115898094D01*
X89575215Y-115994785D01*
X89671906Y-116074137D01*
X89782220Y-116133102D01*
X89901918Y-116169412D01*
X90026400Y-116181672D01*
X90604250Y-116178600D01*
X90763000Y-116019850D01*
X90763000Y-114807000D01*
X91017000Y-114807000D01*
X91017000Y-116019850D01*
X91175750Y-116178600D01*
X91753600Y-116181672D01*
X91878082Y-116169412D01*
X91997780Y-116133102D01*
X92108094Y-116074137D01*
X92204785Y-115994785D01*
X92284137Y-115898094D01*
X92343102Y-115787780D01*
X92379412Y-115668082D01*
X92391672Y-115543600D01*
X92388600Y-114965750D01*
X92229850Y-114807000D01*
X91017000Y-114807000D01*
X90763000Y-114807000D01*
X90743000Y-114807000D01*
X90743000Y-114553000D01*
X90763000Y-114553000D01*
X90763000Y-114533000D01*
X91017000Y-114533000D01*
X91017000Y-114553000D01*
X92229850Y-114553000D01*
X92388600Y-114394250D01*
X92391672Y-113816400D01*
X92379412Y-113691918D01*
X92343102Y-113572220D01*
X92284137Y-113461906D01*
X92204785Y-113365215D01*
X92108094Y-113285863D01*
X91997780Y-113226898D01*
X91946735Y-113211414D01*
X91954797Y-113204797D01*
X92142069Y-112976606D01*
X92281225Y-112716264D01*
X92366916Y-112433777D01*
X92395851Y-112140000D01*
X92366916Y-111846223D01*
X92281225Y-111563736D01*
X92142069Y-111303394D01*
X91954797Y-111075203D01*
X91726606Y-110887931D01*
X91689537Y-110868117D01*
X91845302Y-110764039D01*
X92054039Y-110555302D01*
X92218042Y-110309853D01*
X92331010Y-110037125D01*
X92388600Y-109747599D01*
X92388600Y-109452401D01*
X92331010Y-109162875D01*
X92218042Y-108890147D01*
X92054039Y-108644698D01*
X91845302Y-108435961D01*
X91599853Y-108271958D01*
X91327125Y-108158990D01*
X91037599Y-108101400D01*
X90742401Y-108101400D01*
X90452875Y-108158990D01*
X90180147Y-108271958D01*
X89934698Y-108435961D01*
X89725961Y-108644698D01*
X89620000Y-108803281D01*
X89514039Y-108644698D01*
X89305302Y-108435961D01*
X89059853Y-108271958D01*
X88787125Y-108158990D01*
X88497599Y-108101400D01*
X88202401Y-108101400D01*
X87912875Y-108158990D01*
X87640147Y-108271958D01*
X87394698Y-108435961D01*
X87185961Y-108644698D01*
X87021958Y-108890147D01*
X86908990Y-109162875D01*
X86851400Y-109452401D01*
X86851400Y-109747599D01*
X86908990Y-110037125D01*
X87021958Y-110309853D01*
X87185961Y-110555302D01*
X87394698Y-110764039D01*
X87550463Y-110868117D01*
X87513394Y-110887931D01*
X87285203Y-111075203D01*
X87097931Y-111303394D01*
X86958775Y-111563736D01*
X86873084Y-111846223D01*
X86844149Y-112140000D01*
X86127000Y-112140000D01*
X86127000Y-104800000D01*
X134556123Y-104800000D01*
X134482795Y-104909744D01*
M02*
