G04 #@! TF.GenerationSoftware,KiCad,Pcbnew,(5.1.4)-1*
G04 #@! TF.CreationDate,2020-06-27T20:58:05-05:00*
G04 #@! TF.ProjectId,NiteLite,4e697465-4c69-4746-952e-6b696361645f,rev?*
G04 #@! TF.SameCoordinates,Original*
G04 #@! TF.FileFunction,Legend,Top*
G04 #@! TF.FilePolarity,Positive*
%FSLAX46Y46*%
G04 Gerber Fmt 4.6, Leading zero omitted, Abs format (unit mm)*
G04 Created by KiCad (PCBNEW (5.1.4)-1) date 2020-06-27 20:58:05*
%MOMM*%
%LPD*%
G04 APERTURE LIST*
%ADD10C,0.500000*%
%ADD11C,0.120000*%
%ADD12C,0.100000*%
%ADD13C,0.150000*%
G04 APERTURE END LIST*
D10*
X84885000Y-120709000D02*
G75*
G03X84885000Y-120709000I-1000000J0D01*
G01*
X86044000Y-114359000D02*
X85536000Y-114359000D01*
X85917000Y-110041000D02*
X85917000Y-114359000D01*
X85536000Y-110041000D02*
X86044000Y-110041000D01*
X85536000Y-114359000D02*
X85536000Y-110041000D01*
X93283000Y-118931000D02*
X86171000Y-118931000D01*
X93283000Y-105596000D02*
X93283000Y-118931000D01*
X86171000Y-105596000D02*
X93283000Y-105596000D01*
X86171000Y-118804000D02*
X86171000Y-105596000D01*
D11*
X153910000Y-118836252D02*
X153910000Y-118313748D01*
X152490000Y-118836252D02*
X152490000Y-118313748D01*
D12*
X130915000Y-114835000D02*
X131215000Y-114835000D01*
X130915000Y-115210000D02*
X130915000Y-114835000D01*
X130915000Y-121385000D02*
X131315000Y-121385000D01*
X130915000Y-120885000D02*
X130915000Y-121385000D01*
X134465000Y-114835000D02*
X134465000Y-115285000D01*
X133990000Y-114835000D02*
X134465000Y-114835000D01*
X134465000Y-121085000D02*
X134660000Y-121085000D01*
X134140000Y-121385000D02*
X134465000Y-121085000D01*
X133665000Y-121385000D02*
X134140000Y-121385000D01*
D11*
X161520000Y-117905000D02*
X162570000Y-117905000D01*
X161520000Y-105615000D02*
X162570000Y-105615000D01*
X158350000Y-107360000D02*
X158350000Y-116160000D01*
X150570000Y-115831252D02*
X150570000Y-115308748D01*
X149150000Y-115831252D02*
X149150000Y-115308748D01*
X130810000Y-106660000D02*
X127360000Y-106660000D01*
X130810000Y-106660000D02*
X132760000Y-106660000D01*
X130810000Y-111780000D02*
X128860000Y-111780000D01*
X130810000Y-111780000D02*
X132760000Y-111780000D01*
X141637936Y-114210000D02*
X142842064Y-114210000D01*
X141637936Y-112390000D02*
X142842064Y-112390000D01*
X141637936Y-111400000D02*
X142842064Y-111400000D01*
X141637936Y-109580000D02*
X142842064Y-109580000D01*
X141637936Y-108610000D02*
X142842064Y-108610000D01*
X141637936Y-106790000D02*
X142842064Y-106790000D01*
X127052500Y-128535000D02*
X131112500Y-128535000D01*
X127052500Y-126265000D02*
X127052500Y-128535000D01*
X131112500Y-126265000D02*
X127052500Y-126265000D01*
X150570000Y-109481252D02*
X150570000Y-108958748D01*
X149150000Y-109481252D02*
X149150000Y-108958748D01*
D13*
X153250000Y-124150000D02*
X153250000Y-125550000D01*
X153250000Y-127950000D02*
X153250000Y-128100000D01*
X153250000Y-128100000D02*
X153550000Y-128100000D01*
X153550000Y-128100000D02*
X153550000Y-128550000D01*
X161250000Y-128550000D02*
X161250000Y-128100000D01*
X161250000Y-128100000D02*
X161550000Y-128100000D01*
X161550000Y-128100000D02*
X161550000Y-127950000D01*
X161550000Y-125550000D02*
X161550000Y-124150000D01*
X156325000Y-121975000D02*
X155600000Y-121975000D01*
X155600000Y-121975000D02*
X155600000Y-122400000D01*
X155600000Y-122400000D02*
X154600000Y-122400000D01*
X159200000Y-122400000D02*
X160200000Y-122400000D01*
D11*
X100130000Y-110915000D02*
X101737090Y-110915000D01*
X100130000Y-112800000D02*
X100130000Y-110915000D01*
X121070000Y-112800000D02*
X121070000Y-110915000D01*
X100130000Y-118800000D02*
X100130000Y-120685000D01*
X121070000Y-118800000D02*
X121070000Y-120685000D01*
X121070000Y-110915000D02*
X119462910Y-110915000D01*
X100130000Y-120685000D02*
X101737090Y-120685000D01*
X121070000Y-120685000D02*
X119462910Y-120685000D01*
X101737090Y-110915000D02*
G75*
G02X119462910Y-110915000I8862910J-4885000D01*
G01*
X119465021Y-120681168D02*
G75*
G02X101737090Y-120685000I-8865021J4881168D01*
G01*
D13*
X86852380Y-118209523D02*
X87852380Y-117542857D01*
X86852380Y-117542857D02*
X87852380Y-118209523D01*
X87852380Y-116638095D02*
X87852380Y-117209523D01*
X87852380Y-116923809D02*
X86852380Y-116923809D01*
X86995238Y-117019047D01*
X87090476Y-117114285D01*
X87138095Y-117209523D01*
X153033333Y-121357142D02*
X152985714Y-121404761D01*
X152842857Y-121452380D01*
X152747619Y-121452380D01*
X152604761Y-121404761D01*
X152509523Y-121309523D01*
X152461904Y-121214285D01*
X152414285Y-121023809D01*
X152414285Y-120880952D01*
X152461904Y-120690476D01*
X152509523Y-120595238D01*
X152604761Y-120500000D01*
X152747619Y-120452380D01*
X152842857Y-120452380D01*
X152985714Y-120500000D01*
X153033333Y-120547619D01*
X153366666Y-120452380D02*
X153985714Y-120452380D01*
X153652380Y-120833333D01*
X153795238Y-120833333D01*
X153890476Y-120880952D01*
X153938095Y-120928571D01*
X153985714Y-121023809D01*
X153985714Y-121261904D01*
X153938095Y-121357142D01*
X153890476Y-121404761D01*
X153795238Y-121452380D01*
X153509523Y-121452380D01*
X153414285Y-121404761D01*
X153366666Y-121357142D01*
X127438095Y-113452380D02*
X127438095Y-114261904D01*
X127485714Y-114357142D01*
X127533333Y-114404761D01*
X127628571Y-114452380D01*
X127819047Y-114452380D01*
X127914285Y-114404761D01*
X127961904Y-114357142D01*
X128009523Y-114261904D01*
X128009523Y-113452380D01*
X128438095Y-113547619D02*
X128485714Y-113500000D01*
X128580952Y-113452380D01*
X128819047Y-113452380D01*
X128914285Y-113500000D01*
X128961904Y-113547619D01*
X129009523Y-113642857D01*
X129009523Y-113738095D01*
X128961904Y-113880952D01*
X128390476Y-114452380D01*
X129009523Y-114452380D01*
X155566666Y-105252380D02*
X155566666Y-105966666D01*
X155519047Y-106109523D01*
X155423809Y-106204761D01*
X155280952Y-106252380D01*
X155185714Y-106252380D01*
X155995238Y-105347619D02*
X156042857Y-105300000D01*
X156138095Y-105252380D01*
X156376190Y-105252380D01*
X156471428Y-105300000D01*
X156519047Y-105347619D01*
X156566666Y-105442857D01*
X156566666Y-105538095D01*
X156519047Y-105680952D01*
X155947619Y-106252380D01*
X156566666Y-106252380D01*
X149533333Y-113457142D02*
X149485714Y-113504761D01*
X149342857Y-113552380D01*
X149247619Y-113552380D01*
X149104761Y-113504761D01*
X149009523Y-113409523D01*
X148961904Y-113314285D01*
X148914285Y-113123809D01*
X148914285Y-112980952D01*
X148961904Y-112790476D01*
X149009523Y-112695238D01*
X149104761Y-112600000D01*
X149247619Y-112552380D01*
X149342857Y-112552380D01*
X149485714Y-112600000D01*
X149533333Y-112647619D01*
X149914285Y-112647619D02*
X149961904Y-112600000D01*
X150057142Y-112552380D01*
X150295238Y-112552380D01*
X150390476Y-112600000D01*
X150438095Y-112647619D01*
X150485714Y-112742857D01*
X150485714Y-112838095D01*
X150438095Y-112980952D01*
X149866666Y-113552380D01*
X150485714Y-113552380D01*
X126838095Y-105152380D02*
X126838095Y-105961904D01*
X126885714Y-106057142D01*
X126933333Y-106104761D01*
X127028571Y-106152380D01*
X127219047Y-106152380D01*
X127314285Y-106104761D01*
X127361904Y-106057142D01*
X127409523Y-105961904D01*
X127409523Y-105152380D01*
X128409523Y-106152380D02*
X127838095Y-106152380D01*
X128123809Y-106152380D02*
X128123809Y-105152380D01*
X128028571Y-105295238D01*
X127933333Y-105390476D01*
X127838095Y-105438095D01*
X138263333Y-113752380D02*
X137930000Y-113276190D01*
X137691904Y-113752380D02*
X137691904Y-112752380D01*
X138072857Y-112752380D01*
X138168095Y-112800000D01*
X138215714Y-112847619D01*
X138263333Y-112942857D01*
X138263333Y-113085714D01*
X138215714Y-113180952D01*
X138168095Y-113228571D01*
X138072857Y-113276190D01*
X137691904Y-113276190D01*
X138596666Y-112752380D02*
X139215714Y-112752380D01*
X138882380Y-113133333D01*
X139025238Y-113133333D01*
X139120476Y-113180952D01*
X139168095Y-113228571D01*
X139215714Y-113323809D01*
X139215714Y-113561904D01*
X139168095Y-113657142D01*
X139120476Y-113704761D01*
X139025238Y-113752380D01*
X138739523Y-113752380D01*
X138644285Y-113704761D01*
X138596666Y-113657142D01*
X138263333Y-110942380D02*
X137930000Y-110466190D01*
X137691904Y-110942380D02*
X137691904Y-109942380D01*
X138072857Y-109942380D01*
X138168095Y-109990000D01*
X138215714Y-110037619D01*
X138263333Y-110132857D01*
X138263333Y-110275714D01*
X138215714Y-110370952D01*
X138168095Y-110418571D01*
X138072857Y-110466190D01*
X137691904Y-110466190D01*
X138644285Y-110037619D02*
X138691904Y-109990000D01*
X138787142Y-109942380D01*
X139025238Y-109942380D01*
X139120476Y-109990000D01*
X139168095Y-110037619D01*
X139215714Y-110132857D01*
X139215714Y-110228095D01*
X139168095Y-110370952D01*
X138596666Y-110942380D01*
X139215714Y-110942380D01*
X138263333Y-108152380D02*
X137930000Y-107676190D01*
X137691904Y-108152380D02*
X137691904Y-107152380D01*
X138072857Y-107152380D01*
X138168095Y-107200000D01*
X138215714Y-107247619D01*
X138263333Y-107342857D01*
X138263333Y-107485714D01*
X138215714Y-107580952D01*
X138168095Y-107628571D01*
X138072857Y-107676190D01*
X137691904Y-107676190D01*
X139215714Y-108152380D02*
X138644285Y-108152380D01*
X138930000Y-108152380D02*
X138930000Y-107152380D01*
X138834761Y-107295238D01*
X138739523Y-107390476D01*
X138644285Y-107438095D01*
X132434404Y-128012380D02*
X132434404Y-127012380D01*
X132672500Y-127012380D01*
X132815357Y-127060000D01*
X132910595Y-127155238D01*
X132958214Y-127250476D01*
X133005833Y-127440952D01*
X133005833Y-127583809D01*
X132958214Y-127774285D01*
X132910595Y-127869523D01*
X132815357Y-127964761D01*
X132672500Y-128012380D01*
X132434404Y-128012380D01*
X133958214Y-128012380D02*
X133386785Y-128012380D01*
X133672500Y-128012380D02*
X133672500Y-127012380D01*
X133577261Y-127155238D01*
X133482023Y-127250476D01*
X133386785Y-127298095D01*
X149693333Y-106792142D02*
X149645714Y-106839761D01*
X149502857Y-106887380D01*
X149407619Y-106887380D01*
X149264761Y-106839761D01*
X149169523Y-106744523D01*
X149121904Y-106649285D01*
X149074285Y-106458809D01*
X149074285Y-106315952D01*
X149121904Y-106125476D01*
X149169523Y-106030238D01*
X149264761Y-105935000D01*
X149407619Y-105887380D01*
X149502857Y-105887380D01*
X149645714Y-105935000D01*
X149693333Y-105982619D01*
X150645714Y-106887380D02*
X150074285Y-106887380D01*
X150360000Y-106887380D02*
X150360000Y-105887380D01*
X150264761Y-106030238D01*
X150169523Y-106125476D01*
X150074285Y-106173095D01*
X157066666Y-120752380D02*
X157066666Y-121466666D01*
X157019047Y-121609523D01*
X156923809Y-121704761D01*
X156780952Y-121752380D01*
X156685714Y-121752380D01*
X158066666Y-121752380D02*
X157495238Y-121752380D01*
X157780952Y-121752380D02*
X157780952Y-120752380D01*
X157685714Y-120895238D01*
X157590476Y-120990476D01*
X157495238Y-121038095D01*
X109814285Y-104528571D02*
X109957142Y-104576190D01*
X110004761Y-104623809D01*
X110052380Y-104719047D01*
X110052380Y-104861904D01*
X110004761Y-104957142D01*
X109957142Y-105004761D01*
X109861904Y-105052380D01*
X109480952Y-105052380D01*
X109480952Y-104052380D01*
X109814285Y-104052380D01*
X109909523Y-104100000D01*
X109957142Y-104147619D01*
X110004761Y-104242857D01*
X110004761Y-104338095D01*
X109957142Y-104433333D01*
X109909523Y-104480952D01*
X109814285Y-104528571D01*
X109480952Y-104528571D01*
X110338095Y-104052380D02*
X110909523Y-104052380D01*
X110623809Y-105052380D02*
X110623809Y-104052380D01*
X111766666Y-105052380D02*
X111195238Y-105052380D01*
X111480952Y-105052380D02*
X111480952Y-104052380D01*
X111385714Y-104195238D01*
X111290476Y-104290476D01*
X111195238Y-104338095D01*
M02*
