M48
; DRILL file {KiCad (5.1.4)-1} date 11/11/2019 2:45:26 PM
; FORMAT={-:-/ absolute / inch / decimal}
; #@! TF.CreationDate,2019-11-11T14:45:26-06:00
; #@! TF.GenerationSoftware,Kicad,Pcbnew,(5.1.4)-1
; #@! TF.FileFunction,Plated,1,2,PTH
FMAT,2
INCH
T1C0.0157
T2C0.0354
T3C0.0400
%
G90
G05
T1
X4.4291Y-4.5669
X4.8543Y-4.6496
X5.0079Y-5.0984
X5.0157Y-4.374
X5.0197Y-4.2244
X5.1654Y-5.0945
X5.2829Y-4.225
X5.3307Y-4.1496
X5.3367Y-4.3719
X5.3898Y-4.7441
X5.4291Y-4.5591
X5.5455Y-4.8404
X5.6586Y-4.554
X5.878Y-4.2402
X6.122Y-4.5394
T3
X3.439Y-4.5354
X3.439Y-4.6354
X3.439Y-4.7354
X3.539Y-4.5354
X3.539Y-4.6354
X3.539Y-4.7354
T2
G00X6.2469Y-4.1756
M15
G01X6.3098Y-4.1756
M16
G05
G00X6.2469Y-4.6244
M15
G01X6.3098Y-4.6244
M16
G05
T0
M30
